# FaceSlapper procedural accessory - Beard
# Player-root local space; face sphere center (0, 0.6, 0) r=0.6
o Beard
v -0.588219 0.556751 0.191124
v -0.571804 0.435683 0.185790
v -0.538850 0.449215 0.274558
v -0.551078 0.556751 0.280788
v -0.519969 0.559192 0.264937
v -0.508591 0.457682 0.259140
v -0.539694 0.444910 0.175357
v -0.555013 0.559192 0.180335
v -0.571804 0.435683 0.185790
v -0.534736 0.318794 0.173746
v -0.511710 0.344303 0.260729
v -0.538850 0.449215 0.274558
v -0.508591 0.457682 0.259140
v -0.483220 0.358539 0.246213
v -0.504965 0.334450 0.164073
v -0.539694 0.444910 0.175357
v -0.534736 0.318794 0.173746
v -0.477023 0.210139 0.154994
v -0.469259 0.244762 0.239099
v -0.511710 0.344303 0.260729
v -0.483220 0.358539 0.246213
v -0.443405 0.264334 0.225926
v -0.450742 0.231618 0.146455
v -0.504965 0.334450 0.164073
v -0.477023 0.210139 0.154994
v -0.399948 0.113792 0.129951
v -0.412020 0.153445 0.209935
v -0.469259 0.244762 0.239099
v -0.443405 0.264334 0.225926
v -0.389588 0.177758 0.198505
v -0.378173 0.140264 0.122876
v -0.450742 0.231618 0.146455
v -0.399948 0.113792 0.129951
v -0.305651 0.033610 0.099312
v -0.341056 0.073154 0.173777
v -0.412020 0.153445 0.209935
v -0.389588 0.177758 0.198505
v -0.322725 0.101470 0.164437
v -0.289224 0.064051 0.093975
v -0.378173 0.140264 0.122876
v -0.305651 0.033610 0.099312
v -0.197031 -0.026952 0.064019
v -0.257905 0.006531 0.131409
v -0.341056 0.073154 0.173777
v -0.322725 0.101470 0.164437
v -0.244235 0.037989 0.124444
v -0.186587 0.006281 0.060626
v -0.289224 0.064051 0.093975
v -0.197031 -0.026952 0.064019
v -0.077656 -0.065006 0.025232
v -0.164548 -0.044045 0.083842
v -0.257905 0.006531 0.131409
v -0.244235 0.037989 0.124444
v -0.155953 -0.010401 0.079462
v -0.073599 -0.030267 0.023914
v -0.186587 0.006281 0.060626
v -0.588219 0.556751 0.191124
v -0.551078 0.556751 0.280788
v -0.519969 0.559192 0.264937
v -0.555013 0.559192 0.180335
v -0.555013 0.559192 0.180335
v -0.519969 0.559192 0.264937
v -0.551078 0.556751 0.280788
v -0.588219 0.556751 0.191124
v -0.077656 -0.065006 0.025232
v -0.164548 -0.044045 0.083842
v -0.155953 -0.010401 0.079462
v -0.073599 -0.030267 0.023914
v -0.073599 -0.030267 0.023914
v -0.155953 -0.010401 0.079462
v -0.164548 -0.044045 0.083842
v -0.077656 -0.065006 0.025232
v -0.551078 0.556751 0.280788
v -0.538850 0.449215 0.274558
v -0.486405 0.435683 0.353394
v -0.500369 0.556751 0.363539
v -0.472122 0.559192 0.343017
v -0.459091 0.444910 0.333549
v -0.508591 0.457682 0.259140
v -0.519969 0.559192 0.264937
v -0.538850 0.449215 0.274558
v -0.511710 0.344303 0.260729
v -0.454874 0.318794 0.330485
v -0.486405 0.435683 0.353394
v -0.459091 0.444910 0.333549
v -0.429549 0.334450 0.312086
v -0.483220 0.358539 0.246213
v -0.508591 0.457682 0.259140
v -0.511710 0.344303 0.260729
v -0.469259 0.244762 0.239099
v -0.405780 0.210139 0.294817
v -0.454874 0.318794 0.330485
v -0.429549 0.334450 0.312086
v -0.383424 0.231618 0.278574
v -0.443405 0.264334 0.225926
v -0.483220 0.358539 0.246213
v -0.469259 0.244762 0.239099
v -0.412020 0.153445 0.209935
v -0.340217 0.113792 0.247182
v -0.405780 0.210139 0.294817
v -0.383424 0.231618 0.278574
v -0.321693 0.140264 0.233724
v -0.389588 0.177758 0.198505
v -0.443405 0.264334 0.225926
v -0.412020 0.153445 0.209935
v -0.341056 0.073154 0.173777
v -0.260003 0.033610 0.188903
v -0.340217 0.113792 0.247182
v -0.321693 0.140264 0.233724
v -0.246029 0.064051 0.178750
v -0.322725 0.101470 0.164437
v -0.389588 0.177758 0.198505
v -0.341056 0.073154 0.173777
v -0.257905 0.006531 0.131409
v -0.167605 -0.026952 0.121772
v -0.260003 0.033610 0.188903
v -0.246029 0.064051 0.178750
v -0.158721 0.006281 0.115317
v -0.244235 0.037989 0.124444
v -0.322725 0.101470 0.164437
v -0.257905 0.006531 0.131409
v -0.164548 -0.044045 0.083842
v -0.066058 -0.065006 0.047994
v -0.167605 -0.026952 0.121772
v -0.158721 0.006281 0.115317
v -0.062607 -0.030267 0.045487
v -0.155953 -0.010401 0.079462
v -0.244235 0.037989 0.124444
v -0.551078 0.556751 0.280788
v -0.500369 0.556751 0.363539
v -0.472122 0.559192 0.343017
v -0.519969 0.559192 0.264937
v -0.519969 0.559192 0.264937
v -0.472122 0.559192 0.343017
v -0.500369 0.556751 0.363539
v -0.551078 0.556751 0.280788
v -0.164548 -0.044045 0.083842
v -0.066058 -0.065006 0.047994
v -0.062607 -0.030267 0.045487
v -0.155953 -0.010401 0.079462
v -0.155953 -0.010401 0.079462
v -0.062607 -0.030267 0.045487
v -0.066058 -0.065006 0.047994
v -0.164548 -0.044045 0.083842
v -0.500369 0.556751 0.363539
v -0.486405 0.435683 0.353394
v -0.427634 0.449215 0.427634
v -0.437338 0.556751 0.437338
v -0.412650 0.559192 0.412650
v -0.403620 0.457682 0.403620
v -0.459091 0.444910 0.333549
v -0.472122 0.559192 0.343017
v -0.486405 0.435683 0.353394
v -0.454874 0.318794 0.330485
v -0.406095 0.344303 0.406095
v -0.427634 0.449215 0.427634
v -0.403620 0.457682 0.403620
v -0.383486 0.358539 0.383486
v -0.429549 0.334450 0.312086
v -0.459091 0.444910 0.333549
v -0.454874 0.318794 0.330485
v -0.405780 0.210139 0.294817
v -0.372406 0.244762 0.372406
v -0.406095 0.344303 0.406095
v -0.383486 0.358539 0.383486
v -0.351888 0.264334 0.351888
v -0.383424 0.231618 0.278574
v -0.429549 0.334450 0.312086
v -0.405780 0.210139 0.294817
v -0.340217 0.113792 0.247182
v -0.326981 0.153445 0.326981
v -0.372406 0.244762 0.372406
v -0.351888 0.264334 0.351888
v -0.309178 0.177758 0.309178
v -0.321693 0.140264 0.233724
v -0.383424 0.231618 0.278574
v -0.340217 0.113792 0.247182
v -0.260003 0.033610 0.188903
v -0.270663 0.073154 0.270663
v -0.326981 0.153445 0.326981
v -0.309178 0.177758 0.309178
v -0.256116 0.101470 0.256116
v -0.246029 0.064051 0.178750
v -0.321693 0.140264 0.233724
v -0.260003 0.033610 0.188903
v -0.167605 -0.026952 0.121772
v -0.204675 0.006531 0.204675
v -0.270663 0.073154 0.270663
v -0.256116 0.101470 0.256116
v -0.193826 0.037989 0.193826
v -0.158721 0.006281 0.115317
v -0.246029 0.064051 0.178750
v -0.167605 -0.026952 0.121772
v -0.066058 -0.065006 0.047994
v -0.130586 -0.044045 0.130586
v -0.204675 0.006531 0.204675
v -0.193826 0.037989 0.193826
v -0.123765 -0.010401 0.123765
v -0.062607 -0.030267 0.045487
v -0.158721 0.006281 0.115317
v -0.500369 0.556751 0.363539
v -0.437338 0.556751 0.437338
v -0.412650 0.559192 0.412650
v -0.472122 0.559192 0.343017
v -0.472122 0.559192 0.343017
v -0.412650 0.559192 0.412650
v -0.437338 0.556751 0.437338
v -0.500369 0.556751 0.363539
v -0.066058 -0.065006 0.047994
v -0.130586 -0.044045 0.130586
v -0.123765 -0.010401 0.123765
v -0.062607 -0.030267 0.045487
v -0.062607 -0.030267 0.045487
v -0.123765 -0.010401 0.123765
v -0.130586 -0.044045 0.130586
v -0.066058 -0.065006 0.047994
v -0.437338 0.556751 0.437338
v -0.427634 0.449215 0.427634
v -0.353394 0.435683 0.486405
v -0.363539 0.556751 0.500369
v -0.343017 0.559192 0.472122
v -0.333549 0.444910 0.459091
v -0.403620 0.457682 0.403620
v -0.412650 0.559192 0.412650
v -0.427634 0.449215 0.427634
v -0.406095 0.344303 0.406095
v -0.330485 0.318794 0.454874
v -0.353394 0.435683 0.486405
v -0.333549 0.444910 0.459091
v -0.312086 0.334450 0.429549
v -0.383486 0.358539 0.383486
v -0.403620 0.457682 0.403620
v -0.406095 0.344303 0.406095
v -0.372406 0.244762 0.372406
v -0.294817 0.210139 0.405780
v -0.330485 0.318794 0.454874
v -0.312086 0.334450 0.429549
v -0.278574 0.231618 0.383424
v -0.351888 0.264334 0.351888
v -0.383486 0.358539 0.383486
v -0.372406 0.244762 0.372406
v -0.326981 0.153445 0.326981
v -0.247182 0.113792 0.340217
v -0.294817 0.210139 0.405780
v -0.278574 0.231618 0.383424
v -0.233724 0.140264 0.321693
v -0.309178 0.177758 0.309178
v -0.351888 0.264334 0.351888
v -0.326981 0.153445 0.326981
v -0.270663 0.073154 0.270663
v -0.188903 0.033610 0.260003
v -0.247182 0.113792 0.340217
v -0.233724 0.140264 0.321693
v -0.178750 0.064051 0.246029
v -0.256116 0.101470 0.256116
v -0.309178 0.177758 0.309178
v -0.270663 0.073154 0.270663
v -0.204675 0.006531 0.204675
v -0.121772 -0.026952 0.167605
v -0.188903 0.033610 0.260003
v -0.178750 0.064051 0.246029
v -0.115317 0.006281 0.158721
v -0.193826 0.037989 0.193826
v -0.256116 0.101470 0.256116
v -0.204675 0.006531 0.204675
v -0.130586 -0.044045 0.130586
v -0.047994 -0.065006 0.066058
v -0.121772 -0.026952 0.167605
v -0.115317 0.006281 0.158721
v -0.045487 -0.030267 0.062607
v -0.123765 -0.010401 0.123765
v -0.193826 0.037989 0.193826
v -0.437338 0.556751 0.437338
v -0.363539 0.556751 0.500369
v -0.343017 0.559192 0.472122
v -0.412650 0.559192 0.412650
v -0.412650 0.559192 0.412650
v -0.343017 0.559192 0.472122
v -0.363539 0.556751 0.500369
v -0.437338 0.556751 0.437338
v -0.130586 -0.044045 0.130586
v -0.047994 -0.065006 0.066058
v -0.045487 -0.030267 0.062607
v -0.123765 -0.010401 0.123765
v -0.123765 -0.010401 0.123765
v -0.045487 -0.030267 0.062607
v -0.047994 -0.065006 0.066058
v -0.130586 -0.044045 0.130586
v -0.363539 0.556751 0.500369
v -0.353394 0.435683 0.486405
v -0.274558 0.449215 0.538850
v -0.280788 0.556751 0.551078
v -0.264937 0.559192 0.519969
v -0.259140 0.457682 0.508591
v -0.333549 0.444910 0.459091
v -0.343017 0.559192 0.472122
v -0.353394 0.435683 0.486405
v -0.330485 0.318794 0.454874
v -0.260729 0.344303 0.511710
v -0.274558 0.449215 0.538850
v -0.259140 0.457682 0.508591
v -0.246213 0.358539 0.483220
v -0.312086 0.334450 0.429549
v -0.333549 0.444910 0.459091
v -0.330485 0.318794 0.454874
v -0.294817 0.210139 0.405780
v -0.239099 0.244762 0.469259
v -0.260729 0.344303 0.511710
v -0.246213 0.358539 0.483220
v -0.225926 0.264334 0.443405
v -0.278574 0.231618 0.383424
v -0.312086 0.334450 0.429549
v -0.294817 0.210139 0.405780
v -0.247182 0.113792 0.340217
v -0.209935 0.153445 0.412020
v -0.239099 0.244762 0.469259
v -0.225926 0.264334 0.443405
v -0.198505 0.177758 0.389588
v -0.233724 0.140264 0.321693
v -0.278574 0.231618 0.383424
v -0.247182 0.113792 0.340217
v -0.188903 0.033610 0.260003
v -0.173777 0.073154 0.341056
v -0.209935 0.153445 0.412020
v -0.198505 0.177758 0.389588
v -0.164437 0.101470 0.322725
v -0.178750 0.064051 0.246029
v -0.233724 0.140264 0.321693
v -0.188903 0.033610 0.260003
v -0.121772 -0.026952 0.167605
v -0.131409 0.006531 0.257905
v -0.173777 0.073154 0.341056
v -0.164437 0.101470 0.322725
v -0.124444 0.037989 0.244235
v -0.115317 0.006281 0.158721
v -0.178750 0.064051 0.246029
v -0.121772 -0.026952 0.167605
v -0.047994 -0.065006 0.066058
v -0.083842 -0.044045 0.164548
v -0.131409 0.006531 0.257905
v -0.124444 0.037989 0.244235
v -0.079462 -0.010401 0.155953
v -0.045487 -0.030267 0.062607
v -0.115317 0.006281 0.158721
v -0.363539 0.556751 0.500369
v -0.280788 0.556751 0.551078
v -0.264937 0.559192 0.519969
v -0.343017 0.559192 0.472122
v -0.343017 0.559192 0.472122
v -0.264937 0.559192 0.519969
v -0.280788 0.556751 0.551078
v -0.363539 0.556751 0.500369
v -0.047994 -0.065006 0.066058
v -0.083842 -0.044045 0.164548
v -0.079462 -0.010401 0.155953
v -0.045487 -0.030267 0.062607
v -0.045487 -0.030267 0.062607
v -0.079462 -0.010401 0.155953
v -0.083842 -0.044045 0.164548
v -0.047994 -0.065006 0.066058
v -0.280788 0.556751 0.551078
v -0.274558 0.449215 0.538850
v -0.185790 0.435683 0.571804
v -0.191124 0.556751 0.588219
v -0.180335 0.559192 0.555013
v -0.175357 0.444910 0.539694
v -0.259140 0.457682 0.508591
v -0.264937 0.559192 0.519969
v -0.274558 0.449215 0.538850
v -0.260729 0.344303 0.511710
v -0.173746 0.318794 0.534736
v -0.185790 0.435683 0.571804
v -0.175357 0.444910 0.539694
v -0.164073 0.334450 0.504965
v -0.246213 0.358539 0.483220
v -0.259140 0.457682 0.508591
v -0.260729 0.344303 0.511710
v -0.239099 0.244762 0.469259
v -0.154994 0.210139 0.477023
v -0.173746 0.318794 0.534736
v -0.164073 0.334450 0.504965
v -0.146455 0.231618 0.450742
v -0.225926 0.264334 0.443405
v -0.246213 0.358539 0.483220
v -0.239099 0.244762 0.469259
v -0.209935 0.153445 0.412020
v -0.129951 0.113792 0.399948
v -0.154994 0.210139 0.477023
v -0.146455 0.231618 0.450742
v -0.122876 0.140264 0.378173
v -0.198505 0.177758 0.389588
v -0.225926 0.264334 0.443405
v -0.209935 0.153445 0.412020
v -0.173777 0.073154 0.341056
v -0.099312 0.033610 0.305651
v -0.129951 0.113792 0.399948
v -0.122876 0.140264 0.378173
v -0.093975 0.064051 0.289224
v -0.164437 0.101470 0.322725
v -0.198505 0.177758 0.389588
v -0.173777 0.073154 0.341056
v -0.131409 0.006531 0.257905
v -0.064019 -0.026952 0.197031
v -0.099312 0.033610 0.305651
v -0.093975 0.064051 0.289224
v -0.060626 0.006281 0.186587
v -0.124444 0.037989 0.244235
v -0.164437 0.101470 0.322725
v -0.131409 0.006531 0.257905
v -0.083842 -0.044045 0.164548
v -0.025232 -0.065006 0.077656
v -0.064019 -0.026952 0.197031
v -0.060626 0.006281 0.186587
v -0.023914 -0.030267 0.073599
v -0.079462 -0.010401 0.155953
v -0.124444 0.037989 0.244235
v -0.280788 0.556751 0.551078
v -0.191124 0.556751 0.588219
v -0.180335 0.559192 0.555013
v -0.264937 0.559192 0.519969
v -0.264937 0.559192 0.519969
v -0.180335 0.559192 0.555013
v -0.191124 0.556751 0.588219
v -0.280788 0.556751 0.551078
v -0.083842 -0.044045 0.164548
v -0.025232 -0.065006 0.077656
v -0.023914 -0.030267 0.073599
v -0.079462 -0.010401 0.155953
v -0.079462 -0.010401 0.155953
v -0.023914 -0.030267 0.073599
v -0.025232 -0.065006 0.077656
v -0.083842 -0.044045 0.164548
v -0.191124 0.556751 0.588219
v -0.185790 0.435683 0.571804
v -0.094606 0.449215 0.597320
v -0.096753 0.556751 0.610875
v -0.091291 0.559192 0.576390
v -0.089294 0.457682 0.563778
v -0.175357 0.444910 0.539694
v -0.180335 0.559192 0.555013
v -0.185790 0.435683 0.571804
v -0.173746 0.318794 0.534736
v -0.089841 0.344303 0.567234
v -0.094606 0.449215 0.597320
v -0.089294 0.457682 0.563778
v -0.084839 0.358539 0.535654
v -0.164073 0.334450 0.504965
v -0.175357 0.444910 0.539694
v -0.173746 0.318794 0.534736
v -0.154994 0.210139 0.477023
v -0.082388 0.244762 0.520178
v -0.089841 0.344303 0.567234
v -0.084839 0.358539 0.535654
v -0.077849 0.264334 0.491518
v -0.146455 0.231618 0.450742
v -0.164073 0.334450 0.504965
v -0.154994 0.210139 0.477023
v -0.129951 0.113792 0.399948
v -0.072339 0.153445 0.456728
v -0.082388 0.244762 0.520178
v -0.077849 0.264334 0.491518
v -0.068400 0.177758 0.431861
v -0.122876 0.140264 0.378173
v -0.146455 0.231618 0.450742
v -0.129951 0.113792 0.399948
v -0.099312 0.033610 0.305651
v -0.059879 0.073154 0.378063
v -0.072339 0.153445 0.456728
v -0.068400 0.177758 0.431861
v -0.056661 0.101470 0.357744
v -0.093975 0.064051 0.289224
v -0.122876 0.140264 0.378173
v -0.099312 0.033610 0.305651
v -0.064019 -0.026952 0.197031
v -0.045281 0.006531 0.285890
v -0.059879 0.073154 0.378063
v -0.056661 0.101470 0.357744
v -0.042880 0.037989 0.270736
v -0.060626 0.006281 0.186587
v -0.093975 0.064051 0.289224
v -0.064019 -0.026952 0.197031
v -0.025232 -0.065006 0.077656
v -0.028890 -0.044045 0.182403
v -0.045281 0.006531 0.285890
v -0.042880 0.037989 0.270736
v -0.027381 -0.010401 0.172875
v -0.023914 -0.030267 0.073599
v -0.060626 0.006281 0.186587
v -0.191124 0.556751 0.588219
v -0.096753 0.556751 0.610875
v -0.091291 0.559192 0.576390
v -0.180335 0.559192 0.555013
v -0.180335 0.559192 0.555013
v -0.091291 0.559192 0.576390
v -0.096753 0.556751 0.610875
v -0.191124 0.556751 0.588219
v -0.025232 -0.065006 0.077656
v -0.028890 -0.044045 0.182403
v -0.027381 -0.010401 0.172875
v -0.023914 -0.030267 0.073599
v -0.023914 -0.030267 0.073599
v -0.027381 -0.010401 0.172875
v -0.028890 -0.044045 0.182403
v -0.025232 -0.065006 0.077656
v -0.096753 0.556751 0.610875
v -0.094606 0.449215 0.597320
v 0.000000 0.435683 0.601230
v 0.000000 0.556751 0.618490
v 0.000000 0.559192 0.583575
v 0.000000 0.444910 0.567468
v -0.089294 0.457682 0.563778
v -0.091291 0.559192 0.576390
v -0.094606 0.449215 0.597320
v -0.089841 0.344303 0.567234
v 0.000000 0.318794 0.562255
v 0.000000 0.435683 0.601230
v 0.000000 0.444910 0.567468
v 0.000000 0.334450 0.530952
v -0.084839 0.358539 0.535654
v -0.089294 0.457682 0.563778
v -0.089841 0.344303 0.567234
v -0.082388 0.244762 0.520178
v 0.000000 0.210139 0.501572
v 0.000000 0.318794 0.562255
v 0.000000 0.334450 0.530952
v 0.000000 0.231618 0.473938
v -0.077849 0.264334 0.491518
v -0.084839 0.358539 0.535654
v -0.082388 0.244762 0.520178
v -0.072339 0.153445 0.456728
v 0.000000 0.113792 0.420531
v 0.000000 0.210139 0.501572
v 0.000000 0.231618 0.473938
v 0.000000 0.140264 0.397635
v -0.068400 0.177758 0.431861
v -0.077849 0.264334 0.491518
v -0.072339 0.153445 0.456728
v -0.059879 0.073154 0.378063
v 0.000000 0.033610 0.321381
v 0.000000 0.113792 0.420531
v 0.000000 0.140264 0.397635
v 0.000000 0.064051 0.304108
v -0.056661 0.101470 0.357744
v -0.068400 0.177758 0.431861
v -0.059879 0.073154 0.378063
v -0.045281 0.006531 0.285890
v 0.000000 -0.026952 0.207171
v 0.000000 0.033610 0.321381
v 0.000000 0.064051 0.304108
v 0.000000 0.006281 0.196190
v -0.042880 0.037989 0.270736
v -0.056661 0.101470 0.357744
v -0.045281 0.006531 0.285890
v -0.028890 -0.044045 0.182403
v 0.000000 -0.065006 0.081652
v 0.000000 -0.026952 0.207171
v 0.000000 0.006281 0.196190
v 0.000000 -0.030267 0.077387
v -0.027381 -0.010401 0.172875
v -0.042880 0.037989 0.270736
v -0.096753 0.556751 0.610875
v 0.000000 0.556751 0.618490
v 0.000000 0.559192 0.583575
v -0.091291 0.559192 0.576390
v -0.091291 0.559192 0.576390
v 0.000000 0.559192 0.583575
v 0.000000 0.556751 0.618490
v -0.096753 0.556751 0.610875
v -0.028890 -0.044045 0.182403
v 0.000000 -0.065006 0.081652
v 0.000000 -0.030267 0.077387
v -0.027381 -0.010401 0.172875
v -0.027381 -0.010401 0.172875
v 0.000000 -0.030267 0.077387
v 0.000000 -0.065006 0.081652
v -0.028890 -0.044045 0.182403
v 0.000000 0.556751 0.618490
v 0.000000 0.435683 0.601230
v 0.094606 0.449215 0.597320
v 0.096753 0.556751 0.610875
v 0.091291 0.559192 0.576390
v 0.089294 0.457682 0.563778
v 0.000000 0.444910 0.567468
v 0.000000 0.559192 0.583575
v 0.000000 0.435683 0.601230
v 0.000000 0.318794 0.562255
v 0.089841 0.344303 0.567234
v 0.094606 0.449215 0.597320
v 0.089294 0.457682 0.563778
v 0.084839 0.358539 0.535654
v 0.000000 0.334450 0.530952
v 0.000000 0.444910 0.567468
v 0.000000 0.318794 0.562255
v 0.000000 0.210139 0.501572
v 0.082388 0.244762 0.520178
v 0.089841 0.344303 0.567234
v 0.084839 0.358539 0.535654
v 0.077849 0.264334 0.491518
v 0.000000 0.231618 0.473938
v 0.000000 0.334450 0.530952
v 0.000000 0.210139 0.501572
v 0.000000 0.113792 0.420531
v 0.072339 0.153445 0.456728
v 0.082388 0.244762 0.520178
v 0.077849 0.264334 0.491518
v 0.068400 0.177758 0.431861
v 0.000000 0.140264 0.397635
v 0.000000 0.231618 0.473938
v 0.000000 0.113792 0.420531
v 0.000000 0.033610 0.321381
v 0.059879 0.073154 0.378063
v 0.072339 0.153445 0.456728
v 0.068400 0.177758 0.431861
v 0.056661 0.101470 0.357744
v 0.000000 0.064051 0.304108
v 0.000000 0.140264 0.397635
v 0.000000 0.033610 0.321381
v 0.000000 -0.026952 0.207171
v 0.045281 0.006531 0.285890
v 0.059879 0.073154 0.378063
v 0.056661 0.101470 0.357744
v 0.042880 0.037989 0.270736
v 0.000000 0.006281 0.196190
v 0.000000 0.064051 0.304108
v 0.000000 -0.026952 0.207171
v 0.000000 -0.065006 0.081652
v 0.028890 -0.044045 0.182403
v 0.045281 0.006531 0.285890
v 0.042880 0.037989 0.270736
v 0.027381 -0.010401 0.172875
v 0.000000 -0.030267 0.077387
v 0.000000 0.006281 0.196190
v 0.000000 0.556751 0.618490
v 0.096753 0.556751 0.610875
v 0.091291 0.559192 0.576390
v 0.000000 0.559192 0.583575
v 0.000000 0.559192 0.583575
v 0.091291 0.559192 0.576390
v 0.096753 0.556751 0.610875
v 0.000000 0.556751 0.618490
v 0.000000 -0.065006 0.081652
v 0.028890 -0.044045 0.182403
v 0.027381 -0.010401 0.172875
v 0.000000 -0.030267 0.077387
v 0.000000 -0.030267 0.077387
v 0.027381 -0.010401 0.172875
v 0.028890 -0.044045 0.182403
v 0.000000 -0.065006 0.081652
v 0.096753 0.556751 0.610875
v 0.094606 0.449215 0.597320
v 0.185790 0.435683 0.571804
v 0.191124 0.556751 0.588219
v 0.180335 0.559192 0.555013
v 0.175357 0.444910 0.539694
v 0.089294 0.457682 0.563778
v 0.091291 0.559192 0.576390
v 0.094606 0.449215 0.597320
v 0.089841 0.344303 0.567234
v 0.173746 0.318794 0.534736
v 0.185790 0.435683 0.571804
v 0.175357 0.444910 0.539694
v 0.164073 0.334450 0.504965
v 0.084839 0.358539 0.535654
v 0.089294 0.457682 0.563778
v 0.089841 0.344303 0.567234
v 0.082388 0.244762 0.520178
v 0.154994 0.210139 0.477023
v 0.173746 0.318794 0.534736
v 0.164073 0.334450 0.504965
v 0.146455 0.231618 0.450742
v 0.077849 0.264334 0.491518
v 0.084839 0.358539 0.535654
v 0.082388 0.244762 0.520178
v 0.072339 0.153445 0.456728
v 0.129951 0.113792 0.399948
v 0.154994 0.210139 0.477023
v 0.146455 0.231618 0.450742
v 0.122876 0.140264 0.378173
v 0.068400 0.177758 0.431861
v 0.077849 0.264334 0.491518
v 0.072339 0.153445 0.456728
v 0.059879 0.073154 0.378063
v 0.099312 0.033610 0.305651
v 0.129951 0.113792 0.399948
v 0.122876 0.140264 0.378173
v 0.093975 0.064051 0.289224
v 0.056661 0.101470 0.357744
v 0.068400 0.177758 0.431861
v 0.059879 0.073154 0.378063
v 0.045281 0.006531 0.285890
v 0.064019 -0.026952 0.197031
v 0.099312 0.033610 0.305651
v 0.093975 0.064051 0.289224
v 0.060626 0.006281 0.186587
v 0.042880 0.037989 0.270736
v 0.056661 0.101470 0.357744
v 0.045281 0.006531 0.285890
v 0.028890 -0.044045 0.182403
v 0.025232 -0.065006 0.077656
v 0.064019 -0.026952 0.197031
v 0.060626 0.006281 0.186587
v 0.023914 -0.030267 0.073599
v 0.027381 -0.010401 0.172875
v 0.042880 0.037989 0.270736
v 0.096753 0.556751 0.610875
v 0.191124 0.556751 0.588219
v 0.180335 0.559192 0.555013
v 0.091291 0.559192 0.576390
v 0.091291 0.559192 0.576390
v 0.180335 0.559192 0.555013
v 0.191124 0.556751 0.588219
v 0.096753 0.556751 0.610875
v 0.028890 -0.044045 0.182403
v 0.025232 -0.065006 0.077656
v 0.023914 -0.030267 0.073599
v 0.027381 -0.010401 0.172875
v 0.027381 -0.010401 0.172875
v 0.023914 -0.030267 0.073599
v 0.025232 -0.065006 0.077656
v 0.028890 -0.044045 0.182403
v 0.191124 0.556751 0.588219
v 0.185790 0.435683 0.571804
v 0.274558 0.449215 0.538850
v 0.280788 0.556751 0.551078
v 0.264937 0.559192 0.519969
v 0.259140 0.457682 0.508591
v 0.175357 0.444910 0.539694
v 0.180335 0.559192 0.555013
v 0.185790 0.435683 0.571804
v 0.173746 0.318794 0.534736
v 0.260729 0.344303 0.511710
v 0.274558 0.449215 0.538850
v 0.259140 0.457682 0.508591
v 0.246213 0.358539 0.483220
v 0.164073 0.334450 0.504965
v 0.175357 0.444910 0.539694
v 0.173746 0.318794 0.534736
v 0.154994 0.210139 0.477023
v 0.239099 0.244762 0.469259
v 0.260729 0.344303 0.511710
v 0.246213 0.358539 0.483220
v 0.225926 0.264334 0.443405
v 0.146455 0.231618 0.450742
v 0.164073 0.334450 0.504965
v 0.154994 0.210139 0.477023
v 0.129951 0.113792 0.399948
v 0.209935 0.153445 0.412020
v 0.239099 0.244762 0.469259
v 0.225926 0.264334 0.443405
v 0.198505 0.177758 0.389588
v 0.122876 0.140264 0.378173
v 0.146455 0.231618 0.450742
v 0.129951 0.113792 0.399948
v 0.099312 0.033610 0.305651
v 0.173777 0.073154 0.341056
v 0.209935 0.153445 0.412020
v 0.198505 0.177758 0.389588
v 0.164437 0.101470 0.322725
v 0.093975 0.064051 0.289224
v 0.122876 0.140264 0.378173
v 0.099312 0.033610 0.305651
v 0.064019 -0.026952 0.197031
v 0.131409 0.006531 0.257905
v 0.173777 0.073154 0.341056
v 0.164437 0.101470 0.322725
v 0.124444 0.037989 0.244235
v 0.060626 0.006281 0.186587
v 0.093975 0.064051 0.289224
v 0.064019 -0.026952 0.197031
v 0.025232 -0.065006 0.077656
v 0.083842 -0.044045 0.164548
v 0.131409 0.006531 0.257905
v 0.124444 0.037989 0.244235
v 0.079462 -0.010401 0.155953
v 0.023914 -0.030267 0.073599
v 0.060626 0.006281 0.186587
v 0.191124 0.556751 0.588219
v 0.280788 0.556751 0.551078
v 0.264937 0.559192 0.519969
v 0.180335 0.559192 0.555013
v 0.180335 0.559192 0.555013
v 0.264937 0.559192 0.519969
v 0.280788 0.556751 0.551078
v 0.191124 0.556751 0.588219
v 0.025232 -0.065006 0.077656
v 0.083842 -0.044045 0.164548
v 0.079462 -0.010401 0.155953
v 0.023914 -0.030267 0.073599
v 0.023914 -0.030267 0.073599
v 0.079462 -0.010401 0.155953
v 0.083842 -0.044045 0.164548
v 0.025232 -0.065006 0.077656
v 0.280788 0.556751 0.551078
v 0.274558 0.449215 0.538850
v 0.353394 0.435683 0.486405
v 0.363539 0.556751 0.500369
v 0.343017 0.559192 0.472122
v 0.333549 0.444910 0.459091
v 0.259140 0.457682 0.508591
v 0.264937 0.559192 0.519969
v 0.274558 0.449215 0.538850
v 0.260729 0.344303 0.511710
v 0.330485 0.318794 0.454874
v 0.353394 0.435683 0.486405
v 0.333549 0.444910 0.459091
v 0.312086 0.334450 0.429549
v 0.246213 0.358539 0.483220
v 0.259140 0.457682 0.508591
v 0.260729 0.344303 0.511710
v 0.239099 0.244762 0.469259
v 0.294817 0.210139 0.405780
v 0.330485 0.318794 0.454874
v 0.312086 0.334450 0.429549
v 0.278574 0.231618 0.383424
v 0.225926 0.264334 0.443405
v 0.246213 0.358539 0.483220
v 0.239099 0.244762 0.469259
v 0.209935 0.153445 0.412020
v 0.247182 0.113792 0.340217
v 0.294817 0.210139 0.405780
v 0.278574 0.231618 0.383424
v 0.233724 0.140264 0.321693
v 0.198505 0.177758 0.389588
v 0.225926 0.264334 0.443405
v 0.209935 0.153445 0.412020
v 0.173777 0.073154 0.341056
v 0.188903 0.033610 0.260003
v 0.247182 0.113792 0.340217
v 0.233724 0.140264 0.321693
v 0.178750 0.064051 0.246029
v 0.164437 0.101470 0.322725
v 0.198505 0.177758 0.389588
v 0.173777 0.073154 0.341056
v 0.131409 0.006531 0.257905
v 0.121772 -0.026952 0.167605
v 0.188903 0.033610 0.260003
v 0.178750 0.064051 0.246029
v 0.115317 0.006281 0.158721
v 0.124444 0.037989 0.244235
v 0.164437 0.101470 0.322725
v 0.131409 0.006531 0.257905
v 0.083842 -0.044045 0.164548
v 0.047994 -0.065006 0.066058
v 0.121772 -0.026952 0.167605
v 0.115317 0.006281 0.158721
v 0.045487 -0.030267 0.062607
v 0.079462 -0.010401 0.155953
v 0.124444 0.037989 0.244235
v 0.280788 0.556751 0.551078
v 0.363539 0.556751 0.500369
v 0.343017 0.559192 0.472122
v 0.264937 0.559192 0.519969
v 0.264937 0.559192 0.519969
v 0.343017 0.559192 0.472122
v 0.363539 0.556751 0.500369
v 0.280788 0.556751 0.551078
v 0.083842 -0.044045 0.164548
v 0.047994 -0.065006 0.066058
v 0.045487 -0.030267 0.062607
v 0.079462 -0.010401 0.155953
v 0.079462 -0.010401 0.155953
v 0.045487 -0.030267 0.062607
v 0.047994 -0.065006 0.066058
v 0.083842 -0.044045 0.164548
v 0.363539 0.556751 0.500369
v 0.353394 0.435683 0.486405
v 0.427634 0.449215 0.427634
v 0.437338 0.556751 0.437338
v 0.412650 0.559192 0.412650
v 0.403620 0.457682 0.403620
v 0.333549 0.444910 0.459091
v 0.343017 0.559192 0.472122
v 0.353394 0.435683 0.486405
v 0.330485 0.318794 0.454874
v 0.406095 0.344303 0.406095
v 0.427634 0.449215 0.427634
v 0.403620 0.457682 0.403620
v 0.383486 0.358539 0.383486
v 0.312086 0.334450 0.429549
v 0.333549 0.444910 0.459091
v 0.330485 0.318794 0.454874
v 0.294817 0.210139 0.405780
v 0.372406 0.244762 0.372406
v 0.406095 0.344303 0.406095
v 0.383486 0.358539 0.383486
v 0.351888 0.264334 0.351888
v 0.278574 0.231618 0.383424
v 0.312086 0.334450 0.429549
v 0.294817 0.210139 0.405780
v 0.247182 0.113792 0.340217
v 0.326981 0.153445 0.326981
v 0.372406 0.244762 0.372406
v 0.351888 0.264334 0.351888
v 0.309178 0.177758 0.309178
v 0.233724 0.140264 0.321693
v 0.278574 0.231618 0.383424
v 0.247182 0.113792 0.340217
v 0.188903 0.033610 0.260003
v 0.270663 0.073154 0.270663
v 0.326981 0.153445 0.326981
v 0.309178 0.177758 0.309178
v 0.256116 0.101470 0.256116
v 0.178750 0.064051 0.246029
v 0.233724 0.140264 0.321693
v 0.188903 0.033610 0.260003
v 0.121772 -0.026952 0.167605
v 0.204675 0.006531 0.204675
v 0.270663 0.073154 0.270663
v 0.256116 0.101470 0.256116
v 0.193826 0.037989 0.193826
v 0.115317 0.006281 0.158721
v 0.178750 0.064051 0.246029
v 0.121772 -0.026952 0.167605
v 0.047994 -0.065006 0.066058
v 0.130586 -0.044045 0.130586
v 0.204675 0.006531 0.204675
v 0.193826 0.037989 0.193826
v 0.123765 -0.010401 0.123765
v 0.045487 -0.030267 0.062607
v 0.115317 0.006281 0.158721
v 0.363539 0.556751 0.500369
v 0.437338 0.556751 0.437338
v 0.412650 0.559192 0.412650
v 0.343017 0.559192 0.472122
v 0.343017 0.559192 0.472122
v 0.412650 0.559192 0.412650
v 0.437338 0.556751 0.437338
v 0.363539 0.556751 0.500369
v 0.047994 -0.065006 0.066058
v 0.130586 -0.044045 0.130586
v 0.123765 -0.010401 0.123765
v 0.045487 -0.030267 0.062607
v 0.045487 -0.030267 0.062607
v 0.123765 -0.010401 0.123765
v 0.130586 -0.044045 0.130586
v 0.047994 -0.065006 0.066058
v 0.437338 0.556751 0.437338
v 0.427634 0.449215 0.427634
v 0.486405 0.435683 0.353394
v 0.500369 0.556751 0.363539
v 0.472122 0.559192 0.343017
v 0.459091 0.444910 0.333549
v 0.403620 0.457682 0.403620
v 0.412650 0.559192 0.412650
v 0.427634 0.449215 0.427634
v 0.406095 0.344303 0.406095
v 0.454874 0.318794 0.330485
v 0.486405 0.435683 0.353394
v 0.459091 0.444910 0.333549
v 0.429549 0.334450 0.312086
v 0.383486 0.358539 0.383486
v 0.403620 0.457682 0.403620
v 0.406095 0.344303 0.406095
v 0.372406 0.244762 0.372406
v 0.405780 0.210139 0.294817
v 0.454874 0.318794 0.330485
v 0.429549 0.334450 0.312086
v 0.383424 0.231618 0.278574
v 0.351888 0.264334 0.351888
v 0.383486 0.358539 0.383486
v 0.372406 0.244762 0.372406
v 0.326981 0.153445 0.326981
v 0.340217 0.113792 0.247182
v 0.405780 0.210139 0.294817
v 0.383424 0.231618 0.278574
v 0.321693 0.140264 0.233724
v 0.309178 0.177758 0.309178
v 0.351888 0.264334 0.351888
v 0.326981 0.153445 0.326981
v 0.270663 0.073154 0.270663
v 0.260003 0.033610 0.188903
v 0.340217 0.113792 0.247182
v 0.321693 0.140264 0.233724
v 0.246029 0.064051 0.178750
v 0.256116 0.101470 0.256116
v 0.309178 0.177758 0.309178
v 0.270663 0.073154 0.270663
v 0.204675 0.006531 0.204675
v 0.167605 -0.026952 0.121772
v 0.260003 0.033610 0.188903
v 0.246029 0.064051 0.178750
v 0.158721 0.006281 0.115317
v 0.193826 0.037989 0.193826
v 0.256116 0.101470 0.256116
v 0.204675 0.006531 0.204675
v 0.130586 -0.044045 0.130586
v 0.066058 -0.065006 0.047994
v 0.167605 -0.026952 0.121772
v 0.158721 0.006281 0.115317
v 0.062607 -0.030267 0.045487
v 0.123765 -0.010401 0.123765
v 0.193826 0.037989 0.193826
v 0.437338 0.556751 0.437338
v 0.500369 0.556751 0.363539
v 0.472122 0.559192 0.343017
v 0.412650 0.559192 0.412650
v 0.412650 0.559192 0.412650
v 0.472122 0.559192 0.343017
v 0.500369 0.556751 0.363539
v 0.437338 0.556751 0.437338
v 0.130586 -0.044045 0.130586
v 0.066058 -0.065006 0.047994
v 0.062607 -0.030267 0.045487
v 0.123765 -0.010401 0.123765
v 0.123765 -0.010401 0.123765
v 0.062607 -0.030267 0.045487
v 0.066058 -0.065006 0.047994
v 0.130586 -0.044045 0.130586
v 0.500369 0.556751 0.363539
v 0.486405 0.435683 0.353394
v 0.538850 0.449215 0.274558
v 0.551078 0.556751 0.280788
v 0.519969 0.559192 0.264937
v 0.508591 0.457682 0.259140
v 0.459091 0.444910 0.333549
v 0.472122 0.559192 0.343017
v 0.486405 0.435683 0.353394
v 0.454874 0.318794 0.330485
v 0.511710 0.344303 0.260729
v 0.538850 0.449215 0.274558
v 0.508591 0.457682 0.259140
v 0.483220 0.358539 0.246213
v 0.429549 0.334450 0.312086
v 0.459091 0.444910 0.333549
v 0.454874 0.318794 0.330485
v 0.405780 0.210139 0.294817
v 0.469259 0.244762 0.239099
v 0.511710 0.344303 0.260729
v 0.483220 0.358539 0.246213
v 0.443405 0.264334 0.225926
v 0.383424 0.231618 0.278574
v 0.429549 0.334450 0.312086
v 0.405780 0.210139 0.294817
v 0.340217 0.113792 0.247182
v 0.412020 0.153445 0.209935
v 0.469259 0.244762 0.239099
v 0.443405 0.264334 0.225926
v 0.389588 0.177758 0.198505
v 0.321693 0.140264 0.233724
v 0.383424 0.231618 0.278574
v 0.340217 0.113792 0.247182
v 0.260003 0.033610 0.188903
v 0.341056 0.073154 0.173777
v 0.412020 0.153445 0.209935
v 0.389588 0.177758 0.198505
v 0.322725 0.101470 0.164437
v 0.246029 0.064051 0.178750
v 0.321693 0.140264 0.233724
v 0.260003 0.033610 0.188903
v 0.167605 -0.026952 0.121772
v 0.257905 0.006531 0.131409
v 0.341056 0.073154 0.173777
v 0.322725 0.101470 0.164437
v 0.244235 0.037989 0.124444
v 0.158721 0.006281 0.115317
v 0.246029 0.064051 0.178750
v 0.167605 -0.026952 0.121772
v 0.066058 -0.065006 0.047994
v 0.164548 -0.044045 0.083842
v 0.257905 0.006531 0.131409
v 0.244235 0.037989 0.124444
v 0.155953 -0.010401 0.079462
v 0.062607 -0.030267 0.045487
v 0.158721 0.006281 0.115317
v 0.500369 0.556751 0.363539
v 0.551078 0.556751 0.280788
v 0.519969 0.559192 0.264937
v 0.472122 0.559192 0.343017
v 0.472122 0.559192 0.343017
v 0.519969 0.559192 0.264937
v 0.551078 0.556751 0.280788
v 0.500369 0.556751 0.363539
v 0.066058 -0.065006 0.047994
v 0.164548 -0.044045 0.083842
v 0.155953 -0.010401 0.079462
v 0.062607 -0.030267 0.045487
v 0.062607 -0.030267 0.045487
v 0.155953 -0.010401 0.079462
v 0.164548 -0.044045 0.083842
v 0.066058 -0.065006 0.047994
v 0.551078 0.556751 0.280788
v 0.538850 0.449215 0.274558
v 0.571804 0.435683 0.185790
v 0.588219 0.556751 0.191124
v 0.555013 0.559192 0.180335
v 0.539694 0.444910 0.175357
v 0.508591 0.457682 0.259140
v 0.519969 0.559192 0.264937
v 0.538850 0.449215 0.274558
v 0.511710 0.344303 0.260729
v 0.534736 0.318794 0.173746
v 0.571804 0.435683 0.185790
v 0.539694 0.444910 0.175357
v 0.504965 0.334450 0.164073
v 0.483220 0.358539 0.246213
v 0.508591 0.457682 0.259140
v 0.511710 0.344303 0.260729
v 0.469259 0.244762 0.239099
v 0.477023 0.210139 0.154994
v 0.534736 0.318794 0.173746
v 0.504965 0.334450 0.164073
v 0.450742 0.231618 0.146455
v 0.443405 0.264334 0.225926
v 0.483220 0.358539 0.246213
v 0.469259 0.244762 0.239099
v 0.412020 0.153445 0.209935
v 0.399948 0.113792 0.129951
v 0.477023 0.210139 0.154994
v 0.450742 0.231618 0.146455
v 0.378173 0.140264 0.122876
v 0.389588 0.177758 0.198505
v 0.443405 0.264334 0.225926
v 0.412020 0.153445 0.209935
v 0.341056 0.073154 0.173777
v 0.305651 0.033610 0.099312
v 0.399948 0.113792 0.129951
v 0.378173 0.140264 0.122876
v 0.289224 0.064051 0.093975
v 0.322725 0.101470 0.164437
v 0.389588 0.177758 0.198505
v 0.341056 0.073154 0.173777
v 0.257905 0.006531 0.131409
v 0.197031 -0.026952 0.064019
v 0.305651 0.033610 0.099312
v 0.289224 0.064051 0.093975
v 0.186587 0.006281 0.060626
v 0.244235 0.037989 0.124444
v 0.322725 0.101470 0.164437
v 0.257905 0.006531 0.131409
v 0.164548 -0.044045 0.083842
v 0.077656 -0.065006 0.025232
v 0.197031 -0.026952 0.064019
v 0.186587 0.006281 0.060626
v 0.073599 -0.030267 0.023914
v 0.155953 -0.010401 0.079462
v 0.244235 0.037989 0.124444
v 0.551078 0.556751 0.280788
v 0.588219 0.556751 0.191124
v 0.555013 0.559192 0.180335
v 0.519969 0.559192 0.264937
v 0.519969 0.559192 0.264937
v 0.555013 0.559192 0.180335
v 0.588219 0.556751 0.191124
v 0.551078 0.556751 0.280788
v 0.164548 -0.044045 0.083842
v 0.077656 -0.065006 0.025232
v 0.073599 -0.030267 0.023914
v 0.155953 -0.010401 0.079462
v 0.155953 -0.010401 0.079462
v 0.073599 -0.030267 0.023914
v 0.077656 -0.065006 0.025232
v 0.164548 -0.044045 0.083842
v -0.588219 0.556751 0.191124
v -0.571804 0.435683 0.185790
v -0.539694 0.444910 0.175357
v -0.555013 0.559192 0.180335
v -0.555013 0.559192 0.180335
v -0.539694 0.444910 0.175357
v -0.571804 0.435683 0.185790
v -0.588219 0.556751 0.191124
v -0.571804 0.435683 0.185790
v -0.534736 0.318794 0.173746
v -0.504965 0.334450 0.164073
v -0.539694 0.444910 0.175357
v -0.539694 0.444910 0.175357
v -0.504965 0.334450 0.164073
v -0.534736 0.318794 0.173746
v -0.571804 0.435683 0.185790
v -0.534736 0.318794 0.173746
v -0.477023 0.210139 0.154994
v -0.450742 0.231618 0.146455
v -0.504965 0.334450 0.164073
v -0.504965 0.334450 0.164073
v -0.450742 0.231618 0.146455
v -0.477023 0.210139 0.154994
v -0.534736 0.318794 0.173746
v -0.477023 0.210139 0.154994
v -0.399948 0.113792 0.129951
v -0.378173 0.140264 0.122876
v -0.450742 0.231618 0.146455
v -0.450742 0.231618 0.146455
v -0.378173 0.140264 0.122876
v -0.399948 0.113792 0.129951
v -0.477023 0.210139 0.154994
v -0.399948 0.113792 0.129951
v -0.305651 0.033610 0.099312
v -0.289224 0.064051 0.093975
v -0.378173 0.140264 0.122876
v -0.378173 0.140264 0.122876
v -0.289224 0.064051 0.093975
v -0.305651 0.033610 0.099312
v -0.399948 0.113792 0.129951
v -0.305651 0.033610 0.099312
v -0.197031 -0.026952 0.064019
v -0.186587 0.006281 0.060626
v -0.289224 0.064051 0.093975
v -0.289224 0.064051 0.093975
v -0.186587 0.006281 0.060626
v -0.197031 -0.026952 0.064019
v -0.305651 0.033610 0.099312
v -0.197031 -0.026952 0.064019
v -0.077656 -0.065006 0.025232
v -0.073599 -0.030267 0.023914
v -0.186587 0.006281 0.060626
v -0.186587 0.006281 0.060626
v -0.073599 -0.030267 0.023914
v -0.077656 -0.065006 0.025232
v -0.197031 -0.026952 0.064019
v 0.588219 0.556751 0.191124
v 0.571804 0.435683 0.185790
v 0.539694 0.444910 0.175357
v 0.555013 0.559192 0.180335
v 0.555013 0.559192 0.180335
v 0.539694 0.444910 0.175357
v 0.571804 0.435683 0.185790
v 0.588219 0.556751 0.191124
v 0.571804 0.435683 0.185790
v 0.534736 0.318794 0.173746
v 0.504965 0.334450 0.164073
v 0.539694 0.444910 0.175357
v 0.539694 0.444910 0.175357
v 0.504965 0.334450 0.164073
v 0.534736 0.318794 0.173746
v 0.571804 0.435683 0.185790
v 0.534736 0.318794 0.173746
v 0.477023 0.210139 0.154994
v 0.450742 0.231618 0.146455
v 0.504965 0.334450 0.164073
v 0.504965 0.334450 0.164073
v 0.450742 0.231618 0.146455
v 0.477023 0.210139 0.154994
v 0.534736 0.318794 0.173746
v 0.477023 0.210139 0.154994
v 0.399948 0.113792 0.129951
v 0.378173 0.140264 0.122876
v 0.450742 0.231618 0.146455
v 0.450742 0.231618 0.146455
v 0.378173 0.140264 0.122876
v 0.399948 0.113792 0.129951
v 0.477023 0.210139 0.154994
v 0.399948 0.113792 0.129951
v 0.305651 0.033610 0.099312
v 0.289224 0.064051 0.093975
v 0.378173 0.140264 0.122876
v 0.378173 0.140264 0.122876
v 0.289224 0.064051 0.093975
v 0.305651 0.033610 0.099312
v 0.399948 0.113792 0.129951
v 0.305651 0.033610 0.099312
v 0.197031 -0.026952 0.064019
v 0.186587 0.006281 0.060626
v 0.289224 0.064051 0.093975
v 0.289224 0.064051 0.093975
v 0.186587 0.006281 0.060626
v 0.197031 -0.026952 0.064019
v 0.305651 0.033610 0.099312
v 0.197031 -0.026952 0.064019
v 0.077656 -0.065006 0.025232
v 0.073599 -0.030267 0.023914
v 0.186587 0.006281 0.060626
v 0.186587 0.006281 0.060626
v 0.073599 -0.030267 0.023914
v 0.077656 -0.065006 0.025232
v 0.197031 -0.026952 0.064019
vn -0.9189 -0.1339 0.3711
vn 0.9191 0.1322 -0.3711
vn -0.8884 -0.2979 0.3492
vn 0.8894 0.2953 -0.3489
vn -0.8313 -0.4604 0.3114
vn 0.8332 0.4574 -0.3107
vn -0.7493 -0.6104 0.2567
vn 0.7522 0.6075 -0.2552
vn -0.6464 -0.7412 0.1814
vn 0.6504 0.7383 -0.1786
vn -0.5298 -0.8448 0.0753
vn 0.5352 0.8418 -0.0701
vn -0.4162 -0.9040 -0.0975
vn 0.4234 0.8995 0.1080
vn -0.0646 0.9975 0.0268
vn 0.0646 -0.9975 -0.0268
vn -0.5534 0.0330 -0.8323
vn 0.5534 -0.0330 0.8323
vn -0.8403 -0.1339 0.5252
vn 0.8405 0.1322 -0.5255
vn -0.8047 -0.2979 0.5135
vn 0.8050 0.2953 -0.5145
vn -0.7406 -0.4604 0.4895
vn 0.7411 0.4574 -0.4914
vn -0.6481 -0.6104 0.4554
vn 0.6486 0.6075 -0.4586
vn -0.5267 -0.7412 0.4163
vn 0.5268 0.7383 -0.4212
vn -0.3723 -0.8448 0.3843
vn 0.3713 0.8418 -0.3917
vn -0.1658 -0.9040 0.3940
vn 0.1615 0.8995 -0.4060
vn -0.0597 0.9975 0.0366
vn 0.0597 -0.9975 -0.0366
vn 0.3480 0.0330 0.9369
vn -0.3480 -0.0330 -0.9369
vn -0.7592 -0.1339 0.6369
vn 0.7595 0.1322 -0.6370
vn -0.7371 -0.2979 0.6066
vn 0.7381 0.2953 -0.6067
vn -0.6944 -0.4604 0.5531
vn 0.6964 0.4574 -0.5530
vn -0.6333 -0.6104 0.4756
vn 0.6365 0.6075 -0.4752
vn -0.5587 -0.7412 0.3722
vn 0.5634 0.7383 -0.3709
vn -0.4806 -0.8448 0.2354
vn 0.4873 0.8418 -0.2321
vn -0.4260 -0.9040 0.0359
vn 0.4361 0.8995 -0.0282
vn -0.0532 0.9975 0.0454
vn 0.0532 -0.9975 -0.0454
vn -0.7835 0.0330 -0.6205
vn 0.7835 -0.0330 0.6205
vn -0.6369 -0.1339 0.7592
vn 0.6370 0.1322 -0.7595
vn -0.6066 -0.2979 0.7371
vn 0.6067 0.2953 -0.7381
vn -0.5531 -0.4604 0.6944
vn 0.5530 0.4574 -0.6964
vn -0.4756 -0.6104 0.6333
vn 0.4752 0.6075 -0.6365
vn -0.3722 -0.7412 0.5587
vn 0.3709 0.7383 -0.5634
vn -0.2354 -0.8448 0.4806
vn 0.2321 0.8418 -0.4873
vn -0.0359 -0.9040 0.4260
vn 0.0282 0.8995 -0.4361
vn -0.0454 0.9975 0.0532
vn 0.0454 -0.9975 -0.0532
vn 0.6205 0.0330 0.7835
vn -0.6205 -0.0330 -0.7835
vn -0.5252 -0.1339 0.8403
vn 0.5255 0.1322 -0.8405
vn -0.5135 -0.2979 0.8047
vn 0.5145 0.2953 -0.8050
vn -0.4895 -0.4604 0.7406
vn 0.4914 0.4574 -0.7411
vn -0.4554 -0.6104 0.6481
vn 0.4586 0.6075 -0.6486
vn -0.4163 -0.7412 0.5267
vn 0.4212 0.7383 -0.5268
vn -0.3843 -0.8448 0.3723
vn 0.3917 0.8418 -0.3713
vn -0.3940 -0.9040 0.1658
vn 0.4060 0.8995 -0.1615
vn -0.0366 0.9975 0.0597
vn 0.0366 -0.9975 -0.0597
vn -0.9369 0.0330 -0.3480
vn 0.9369 -0.0330 0.3480
vn -0.3711 -0.1339 0.9189
vn 0.3711 0.1322 -0.9191
vn -0.3492 -0.2979 0.8884
vn 0.3489 0.2953 -0.8894
vn -0.3114 -0.4604 0.8313
vn 0.3107 0.4574 -0.8332
vn -0.2567 -0.6104 0.7493
vn 0.2552 0.6075 -0.7522
vn -0.1814 -0.7412 0.6464
vn 0.1786 0.7383 -0.6504
vn -0.0753 -0.8448 0.5298
vn 0.0701 0.8418 -0.5352
vn 0.0975 -0.9040 0.4162
vn -0.1080 0.8995 -0.4234
vn -0.0268 0.9975 0.0646
vn 0.0268 -0.9975 -0.0646
vn 0.8323 0.0330 0.5534
vn -0.8323 -0.0330 -0.5534
vn -0.2399 -0.1339 0.9615
vn 0.2400 0.1322 -0.9617
vn -0.2397 -0.2979 0.9240
vn 0.2405 0.2953 -0.9246
vn -0.2367 -0.4604 0.8556
vn 0.2384 0.4574 -0.8567
vn -0.2328 -0.6104 0.7571
vn 0.2357 0.6075 -0.7586
vn -0.2332 -0.7412 0.6295
vn 0.2378 0.7383 -0.6312
vn -0.2504 -0.8448 0.4729
vn 0.2578 0.8418 -0.4742
vn -0.3235 -0.9040 0.2794
vn 0.3362 0.8995 -0.2791
vn -0.0163 0.9975 0.0680
vn 0.0163 -0.9975 -0.0680
vn -0.9986 0.0330 -0.0415
vn 0.9986 -0.0330 0.0415
vn -0.0690 -0.1339 0.9886
vn 0.0689 0.1322 -0.9888
vn -0.0575 -0.2979 0.9529
vn 0.0570 0.2953 -0.9537
vn -0.0393 -0.4604 0.8869
vn 0.0380 0.4574 -0.8884
vn -0.0125 -0.6104 0.7920
vn 0.0103 0.6075 -0.7943
vn 0.0273 -0.7412 0.6708
vn -0.0311 0.7383 -0.6738
vn 0.0920 -0.8448 0.5271
vn -0.0987 0.8418 -0.5306
vn 0.2213 -0.9040 0.3657
vn -0.2335 0.8995 -0.3693
vn -0.0055 0.9975 0.0698
vn 0.0055 -0.9975 -0.0698
vn 0.9625 0.0330 0.2691
vn -0.9625 -0.0330 -0.2691
vn 0.0690 -0.1339 0.9886
vn -0.0689 0.1322 -0.9888
vn 0.0575 -0.2979 0.9529
vn -0.0570 0.2953 -0.9537
vn 0.0393 -0.4604 0.8869
vn -0.0380 0.4574 -0.8884
vn 0.0125 -0.6104 0.7920
vn -0.0103 0.6075 -0.7943
vn -0.0273 -0.7412 0.6708
vn 0.0311 0.7383 -0.6738
vn -0.0920 -0.8448 0.5271
vn 0.0987 0.8418 -0.5306
vn -0.2213 -0.9040 0.3657
vn 0.2335 0.8995 -0.3693
vn 0.0055 0.9975 0.0698
vn -0.0055 -0.9975 -0.0698
vn -0.9625 0.0330 0.2691
vn 0.9625 -0.0330 -0.2691
vn 0.2399 -0.1339 0.9615
vn -0.2400 0.1322 -0.9617
vn 0.2397 -0.2979 0.9240
vn -0.2405 0.2953 -0.9246
vn 0.2367 -0.4604 0.8556
vn -0.2384 0.4574 -0.8567
vn 0.2328 -0.6104 0.7571
vn -0.2357 0.6075 -0.7586
vn 0.2332 -0.7412 0.6295
vn -0.2378 0.7383 -0.6312
vn 0.2504 -0.8448 0.4729
vn -0.2578 0.8418 -0.4742
vn 0.3235 -0.9040 0.2794
vn -0.3362 0.8995 -0.2791
vn 0.0163 0.9975 0.0680
vn -0.0163 -0.9975 -0.0680
vn 0.9986 0.0330 -0.0415
vn -0.9986 -0.0330 0.0415
vn 0.3711 -0.1339 0.9189
vn -0.3711 0.1322 -0.9191
vn 0.3492 -0.2979 0.8884
vn -0.3489 0.2953 -0.8894
vn 0.3114 -0.4604 0.8313
vn -0.3107 0.4574 -0.8332
vn 0.2567 -0.6104 0.7493
vn -0.2552 0.6075 -0.7522
vn 0.1814 -0.7412 0.6464
vn -0.1786 0.7383 -0.6504
vn 0.0753 -0.8448 0.5298
vn -0.0701 0.8418 -0.5352
vn -0.0975 -0.9040 0.4162
vn 0.1080 0.8995 -0.4234
vn 0.0268 0.9975 0.0646
vn -0.0268 -0.9975 -0.0646
vn -0.8323 0.0330 0.5534
vn 0.8323 -0.0330 -0.5534
vn 0.5252 -0.1339 0.8403
vn -0.5255 0.1322 -0.8405
vn 0.5135 -0.2979 0.8047
vn -0.5145 0.2953 -0.8050
vn 0.4895 -0.4604 0.7406
vn -0.4914 0.4574 -0.7411
vn 0.4554 -0.6104 0.6481
vn -0.4586 0.6075 -0.6486
vn 0.4163 -0.7412 0.5267
vn -0.4212 0.7383 -0.5268
vn 0.3843 -0.8448 0.3723
vn -0.3917 0.8418 -0.3713
vn 0.3940 -0.9040 0.1658
vn -0.4060 0.8995 -0.1615
vn 0.0366 0.9975 0.0597
vn -0.0366 -0.9975 -0.0597
vn 0.9369 0.0330 -0.3480
vn -0.9369 -0.0330 0.3480
vn 0.6369 -0.1339 0.7592
vn -0.6370 0.1322 -0.7595
vn 0.6066 -0.2979 0.7371
vn -0.6067 0.2953 -0.7381
vn 0.5531 -0.4604 0.6944
vn -0.5530 0.4574 -0.6964
vn 0.4756 -0.6104 0.6333
vn -0.4752 0.6075 -0.6365
vn 0.3722 -0.7412 0.5587
vn -0.3709 0.7383 -0.5634
vn 0.2354 -0.8448 0.4806
vn -0.2321 0.8418 -0.4873
vn 0.0359 -0.9040 0.4260
vn -0.0282 0.8995 -0.4361
vn 0.0454 0.9975 0.0532
vn -0.0454 -0.9975 -0.0532
vn -0.6205 0.0330 0.7835
vn 0.6205 -0.0330 -0.7835
vn 0.7592 -0.1339 0.6369
vn -0.7595 0.1322 -0.6370
vn 0.7371 -0.2979 0.6066
vn -0.7381 0.2953 -0.6067
vn 0.6944 -0.4604 0.5531
vn -0.6964 0.4574 -0.5530
vn 0.6333 -0.6104 0.4756
vn -0.6365 0.6075 -0.4752
vn 0.5587 -0.7412 0.3722
vn -0.5634 0.7383 -0.3709
vn 0.4806 -0.8448 0.2354
vn -0.4873 0.8418 -0.2321
vn 0.4260 -0.9040 0.0359
vn -0.4361 0.8995 -0.0282
vn 0.0532 0.9975 0.0454
vn -0.0532 -0.9975 -0.0454
vn 0.7835 0.0330 -0.6205
vn -0.7835 -0.0330 0.6205
vn 0.8403 -0.1339 0.5252
vn -0.8405 0.1322 -0.5255
vn 0.8047 -0.2979 0.5135
vn -0.8050 0.2953 -0.5145
vn 0.7406 -0.4604 0.4895
vn -0.7411 0.4574 -0.4914
vn 0.6481 -0.6104 0.4554
vn -0.6486 0.6075 -0.4586
vn 0.5267 -0.7412 0.4163
vn -0.5268 0.7383 -0.4212
vn 0.3723 -0.8448 0.3843
vn -0.3713 0.8418 -0.3917
vn 0.1658 -0.9040 0.3940
vn -0.1615 0.8995 -0.4060
vn 0.0597 0.9975 0.0366
vn -0.0597 -0.9975 -0.0366
vn -0.3480 0.0330 0.9369
vn 0.3480 -0.0330 -0.9369
vn 0.9189 -0.1339 0.3711
vn -0.9191 0.1322 -0.3711
vn 0.8884 -0.2979 0.3492
vn -0.8894 0.2953 -0.3489
vn 0.8313 -0.4604 0.3114
vn -0.8332 0.4574 -0.3107
vn 0.7493 -0.6104 0.2567
vn -0.7522 0.6075 -0.2552
vn 0.6464 -0.7412 0.1814
vn -0.6504 0.7383 -0.1786
vn 0.5298 -0.8448 0.0753
vn -0.5352 0.8418 -0.0701
vn 0.4162 -0.9040 -0.0975
vn -0.4234 0.8995 0.1080
vn 0.0646 0.9975 0.0268
vn -0.0646 -0.9975 -0.0268
vn 0.5534 0.0330 -0.8323
vn -0.5534 -0.0330 0.8323
vn 0.3090 -0.0000 0.9511
vn -0.3090 0.0000 -0.9511
vn 0.3090 -0.0000 0.9511
vn -0.3090 0.0000 -0.9511
vn 0.3090 -0.0000 0.9511
vn -0.3090 0.0000 -0.9511
vn 0.3090 -0.0000 0.9511
vn -0.3090 0.0000 -0.9511
vn 0.3090 0.0000 0.9511
vn -0.3090 -0.0000 -0.9511
vn 0.3090 0.0000 0.9511
vn -0.3090 -0.0000 -0.9511
vn 0.3090 0.0000 0.9511
vn -0.3090 -0.0000 -0.9511
vn 0.3090 0.0000 -0.9511
vn -0.3090 -0.0000 0.9511
vn 0.3090 0.0000 -0.9511
vn -0.3090 -0.0000 0.9511
vn 0.3090 0.0000 -0.9511
vn -0.3090 -0.0000 0.9511
vn 0.3090 0.0000 -0.9511
vn -0.3090 -0.0000 0.9511
vn 0.3090 -0.0000 -0.9511
vn -0.3090 0.0000 0.9511
vn 0.3090 -0.0000 -0.9511
vn -0.3090 0.0000 0.9511
vn 0.3090 -0.0000 -0.9511
vn -0.3090 0.0000 0.9511
f 1//1 2//1 3//1 4//1
f 5//2 6//2 7//2 8//2
f 9//3 10//3 11//3 12//3
f 13//4 14//4 15//4 16//4
f 17//5 18//5 19//5 20//5
f 21//6 22//6 23//6 24//6
f 25//7 26//7 27//7 28//7
f 29//8 30//8 31//8 32//8
f 33//9 34//9 35//9 36//9
f 37//10 38//10 39//10 40//10
f 41//11 42//11 43//11 44//11
f 45//12 46//12 47//12 48//12
f 49//13 50//13 51//13 52//13
f 53//14 54//14 55//14 56//14
f 57//15 58//15 59//15 60//15
f 61//16 62//16 63//16 64//16
f 65//17 66//17 67//17 68//17
f 69//18 70//18 71//18 72//18
f 73//19 74//19 75//19 76//19
f 77//20 78//20 79//20 80//20
f 81//21 82//21 83//21 84//21
f 85//22 86//22 87//22 88//22
f 89//23 90//23 91//23 92//23
f 93//24 94//24 95//24 96//24
f 97//25 98//25 99//25 100//25
f 101//26 102//26 103//26 104//26
f 105//27 106//27 107//27 108//27
f 109//28 110//28 111//28 112//28
f 113//29 114//29 115//29 116//29
f 117//30 118//30 119//30 120//30
f 121//31 122//31 123//31 124//31
f 125//32 126//32 127//32 128//32
f 129//33 130//33 131//33 132//33
f 133//34 134//34 135//34 136//34
f 137//35 138//35 139//35 140//35
f 141//36 142//36 143//36 144//36
f 145//37 146//37 147//37 148//37
f 149//38 150//38 151//38 152//38
f 153//39 154//39 155//39 156//39
f 157//40 158//40 159//40 160//40
f 161//41 162//41 163//41 164//41
f 165//42 166//42 167//42 168//42
f 169//43 170//43 171//43 172//43
f 173//44 174//44 175//44 176//44
f 177//45 178//45 179//45 180//45
f 181//46 182//46 183//46 184//46
f 185//47 186//47 187//47 188//47
f 189//48 190//48 191//48 192//48
f 193//49 194//49 195//49 196//49
f 197//50 198//50 199//50 200//50
f 201//51 202//51 203//51 204//51
f 205//52 206//52 207//52 208//52
f 209//53 210//53 211//53 212//53
f 213//54 214//54 215//54 216//54
f 217//55 218//55 219//55 220//55
f 221//56 222//56 223//56 224//56
f 225//57 226//57 227//57 228//57
f 229//58 230//58 231//58 232//58
f 233//59 234//59 235//59 236//59
f 237//60 238//60 239//60 240//60
f 241//61 242//61 243//61 244//61
f 245//62 246//62 247//62 248//62
f 249//63 250//63 251//63 252//63
f 253//64 254//64 255//64 256//64
f 257//65 258//65 259//65 260//65
f 261//66 262//66 263//66 264//66
f 265//67 266//67 267//67 268//67
f 269//68 270//68 271//68 272//68
f 273//69 274//69 275//69 276//69
f 277//70 278//70 279//70 280//70
f 281//71 282//71 283//71 284//71
f 285//72 286//72 287//72 288//72
f 289//73 290//73 291//73 292//73
f 293//74 294//74 295//74 296//74
f 297//75 298//75 299//75 300//75
f 301//76 302//76 303//76 304//76
f 305//77 306//77 307//77 308//77
f 309//78 310//78 311//78 312//78
f 313//79 314//79 315//79 316//79
f 317//80 318//80 319//80 320//80
f 321//81 322//81 323//81 324//81
f 325//82 326//82 327//82 328//82
f 329//83 330//83 331//83 332//83
f 333//84 334//84 335//84 336//84
f 337//85 338//85 339//85 340//85
f 341//86 342//86 343//86 344//86
f 345//87 346//87 347//87 348//87
f 349//88 350//88 351//88 352//88
f 353//89 354//89 355//89 356//89
f 357//90 358//90 359//90 360//90
f 361//91 362//91 363//91 364//91
f 365//92 366//92 367//92 368//92
f 369//93 370//93 371//93 372//93
f 373//94 374//94 375//94 376//94
f 377//95 378//95 379//95 380//95
f 381//96 382//96 383//96 384//96
f 385//97 386//97 387//97 388//97
f 389//98 390//98 391//98 392//98
f 393//99 394//99 395//99 396//99
f 397//100 398//100 399//100 400//100
f 401//101 402//101 403//101 404//101
f 405//102 406//102 407//102 408//102
f 409//103 410//103 411//103 412//103
f 413//104 414//104 415//104 416//104
f 417//105 418//105 419//105 420//105
f 421//106 422//106 423//106 424//106
f 425//107 426//107 427//107 428//107
f 429//108 430//108 431//108 432//108
f 433//109 434//109 435//109 436//109
f 437//110 438//110 439//110 440//110
f 441//111 442//111 443//111 444//111
f 445//112 446//112 447//112 448//112
f 449//113 450//113 451//113 452//113
f 453//114 454//114 455//114 456//114
f 457//115 458//115 459//115 460//115
f 461//116 462//116 463//116 464//116
f 465//117 466//117 467//117 468//117
f 469//118 470//118 471//118 472//118
f 473//119 474//119 475//119 476//119
f 477//120 478//120 479//120 480//120
f 481//121 482//121 483//121 484//121
f 485//122 486//122 487//122 488//122
f 489//123 490//123 491//123 492//123
f 493//124 494//124 495//124 496//124
f 497//125 498//125 499//125 500//125
f 501//126 502//126 503//126 504//126
f 505//127 506//127 507//127 508//127
f 509//128 510//128 511//128 512//128
f 513//129 514//129 515//129 516//129
f 517//130 518//130 519//130 520//130
f 521//131 522//131 523//131 524//131
f 525//132 526//132 527//132 528//132
f 529//133 530//133 531//133 532//133
f 533//134 534//134 535//134 536//134
f 537//135 538//135 539//135 540//135
f 541//136 542//136 543//136 544//136
f 545//137 546//137 547//137 548//137
f 549//138 550//138 551//138 552//138
f 553//139 554//139 555//139 556//139
f 557//140 558//140 559//140 560//140
f 561//141 562//141 563//141 564//141
f 565//142 566//142 567//142 568//142
f 569//143 570//143 571//143 572//143
f 573//144 574//144 575//144 576//144
f 577//145 578//145 579//145 580//145
f 581//146 582//146 583//146 584//146
f 585//147 586//147 587//147 588//147
f 589//148 590//148 591//148 592//148
f 593//149 594//149 595//149 596//149
f 597//150 598//150 599//150 600//150
f 601//151 602//151 603//151 604//151
f 605//152 606//152 607//152 608//152
f 609//153 610//153 611//153 612//153
f 613//154 614//154 615//154 616//154
f 617//155 618//155 619//155 620//155
f 621//156 622//156 623//156 624//156
f 625//157 626//157 627//157 628//157
f 629//158 630//158 631//158 632//158
f 633//159 634//159 635//159 636//159
f 637//160 638//160 639//160 640//160
f 641//161 642//161 643//161 644//161
f 645//162 646//162 647//162 648//162
f 649//163 650//163 651//163 652//163
f 653//164 654//164 655//164 656//164
f 657//165 658//165 659//165 660//165
f 661//166 662//166 663//166 664//166
f 665//167 666//167 667//167 668//167
f 669//168 670//168 671//168 672//168
f 673//169 674//169 675//169 676//169
f 677//170 678//170 679//170 680//170
f 681//171 682//171 683//171 684//171
f 685//172 686//172 687//172 688//172
f 689//173 690//173 691//173 692//173
f 693//174 694//174 695//174 696//174
f 697//175 698//175 699//175 700//175
f 701//176 702//176 703//176 704//176
f 705//177 706//177 707//177 708//177
f 709//178 710//178 711//178 712//178
f 713//179 714//179 715//179 716//179
f 717//180 718//180 719//180 720//180
f 721//181 722//181 723//181 724//181
f 725//182 726//182 727//182 728//182
f 729//183 730//183 731//183 732//183
f 733//184 734//184 735//184 736//184
f 737//185 738//185 739//185 740//185
f 741//186 742//186 743//186 744//186
f 745//187 746//187 747//187 748//187
f 749//188 750//188 751//188 752//188
f 753//189 754//189 755//189 756//189
f 757//190 758//190 759//190 760//190
f 761//191 762//191 763//191 764//191
f 765//192 766//192 767//192 768//192
f 769//193 770//193 771//193 772//193
f 773//194 774//194 775//194 776//194
f 777//195 778//195 779//195 780//195
f 781//196 782//196 783//196 784//196
f 785//197 786//197 787//197 788//197
f 789//198 790//198 791//198 792//198
f 793//199 794//199 795//199 796//199
f 797//200 798//200 799//200 800//200
f 801//201 802//201 803//201 804//201
f 805//202 806//202 807//202 808//202
f 809//203 810//203 811//203 812//203
f 813//204 814//204 815//204 816//204
f 817//205 818//205 819//205 820//205
f 821//206 822//206 823//206 824//206
f 825//207 826//207 827//207 828//207
f 829//208 830//208 831//208 832//208
f 833//209 834//209 835//209 836//209
f 837//210 838//210 839//210 840//210
f 841//211 842//211 843//211 844//211
f 845//212 846//212 847//212 848//212
f 849//213 850//213 851//213 852//213
f 853//214 854//214 855//214 856//214
f 857//215 858//215 859//215 860//215
f 861//216 862//216 863//216 864//216
f 865//217 866//217 867//217 868//217
f 869//218 870//218 871//218 872//218
f 873//219 874//219 875//219 876//219
f 877//220 878//220 879//220 880//220
f 881//221 882//221 883//221 884//221
f 885//222 886//222 887//222 888//222
f 889//223 890//223 891//223 892//223
f 893//224 894//224 895//224 896//224
f 897//225 898//225 899//225 900//225
f 901//226 902//226 903//226 904//226
f 905//227 906//227 907//227 908//227
f 909//228 910//228 911//228 912//228
f 913//229 914//229 915//229 916//229
f 917//230 918//230 919//230 920//230
f 921//231 922//231 923//231 924//231
f 925//232 926//232 927//232 928//232
f 929//233 930//233 931//233 932//233
f 933//234 934//234 935//234 936//234
f 937//235 938//235 939//235 940//235
f 941//236 942//236 943//236 944//236
f 945//237 946//237 947//237 948//237
f 949//238 950//238 951//238 952//238
f 953//239 954//239 955//239 956//239
f 957//240 958//240 959//240 960//240
f 961//241 962//241 963//241 964//241
f 965//242 966//242 967//242 968//242
f 969//243 970//243 971//243 972//243
f 973//244 974//244 975//244 976//244
f 977//245 978//245 979//245 980//245
f 981//246 982//246 983//246 984//246
f 985//247 986//247 987//247 988//247
f 989//248 990//248 991//248 992//248
f 993//249 994//249 995//249 996//249
f 997//250 998//250 999//250 1000//250
f 1001//251 1002//251 1003//251 1004//251
f 1005//252 1006//252 1007//252 1008//252
f 1009//253 1010//253 1011//253 1012//253
f 1013//254 1014//254 1015//254 1016//254
f 1017//255 1018//255 1019//255 1020//255
f 1021//256 1022//256 1023//256 1024//256
f 1025//257 1026//257 1027//257 1028//257
f 1029//258 1030//258 1031//258 1032//258
f 1033//259 1034//259 1035//259 1036//259
f 1037//260 1038//260 1039//260 1040//260
f 1041//261 1042//261 1043//261 1044//261
f 1045//262 1046//262 1047//262 1048//262
f 1049//263 1050//263 1051//263 1052//263
f 1053//264 1054//264 1055//264 1056//264
f 1057//265 1058//265 1059//265 1060//265
f 1061//266 1062//266 1063//266 1064//266
f 1065//267 1066//267 1067//267 1068//267
f 1069//268 1070//268 1071//268 1072//268
f 1073//269 1074//269 1075//269 1076//269
f 1077//270 1078//270 1079//270 1080//270
f 1081//271 1082//271 1083//271 1084//271
f 1085//272 1086//272 1087//272 1088//272
f 1089//273 1090//273 1091//273 1092//273
f 1093//274 1094//274 1095//274 1096//274
f 1097//275 1098//275 1099//275 1100//275
f 1101//276 1102//276 1103//276 1104//276
f 1105//277 1106//277 1107//277 1108//277
f 1109//278 1110//278 1111//278 1112//278
f 1113//279 1114//279 1115//279 1116//279
f 1117//280 1118//280 1119//280 1120//280
f 1121//281 1122//281 1123//281 1124//281
f 1125//282 1126//282 1127//282 1128//282
f 1129//283 1130//283 1131//283 1132//283
f 1133//284 1134//284 1135//284 1136//284
f 1137//285 1138//285 1139//285 1140//285
f 1141//286 1142//286 1143//286 1144//286
f 1145//287 1146//287 1147//287 1148//287
f 1149//288 1150//288 1151//288 1152//288
f 1153//289 1154//289 1155//289 1156//289
f 1157//290 1158//290 1159//290 1160//290
f 1161//291 1162//291 1163//291 1164//291
f 1165//292 1166//292 1167//292 1168//292
f 1169//293 1170//293 1171//293 1172//293
f 1173//294 1174//294 1175//294 1176//294
f 1177//295 1178//295 1179//295 1180//295
f 1181//296 1182//296 1183//296 1184//296
f 1185//297 1186//297 1187//297 1188//297
f 1189//298 1190//298 1191//298 1192//298
f 1193//299 1194//299 1195//299 1196//299
f 1197//300 1198//300 1199//300 1200//300
f 1201//301 1202//301 1203//301 1204//301
f 1205//302 1206//302 1207//302 1208//302
f 1209//303 1210//303 1211//303 1212//303
f 1213//304 1214//304 1215//304 1216//304
f 1217//305 1218//305 1219//305 1220//305
f 1221//306 1222//306 1223//306 1224//306
f 1225//307 1226//307 1227//307 1228//307
f 1229//308 1230//308 1231//308 1232//308
f 1233//309 1234//309 1235//309 1236//309
f 1237//310 1238//310 1239//310 1240//310
f 1241//311 1242//311 1243//311 1244//311
f 1245//312 1246//312 1247//312 1248//312
f 1249//313 1250//313 1251//313 1252//313
f 1253//314 1254//314 1255//314 1256//314
f 1257//315 1258//315 1259//315 1260//315
f 1261//316 1262//316 1263//316 1264//316
