# FaceSlapper procedural accessory - Glasses_Circle
# Player-root local space; face sphere center (0, 0.6, 0) r=0.6
o Glasses_Circle
v 0.218040 0.710000 0.597685
v 0.213839 0.737193 0.598634
v 0.190981 0.729579 0.603799
v 0.194006 0.710000 0.603115
v 0.189598 0.710000 0.583607
v 0.186573 0.729579 0.584291
v 0.209431 0.737193 0.579126
v 0.213632 0.710000 0.578177
v 0.213632 0.710000 0.578177
v 0.209431 0.737193 0.579126
v 0.213839 0.737193 0.598634
v 0.218040 0.710000 0.597685
v 0.194006 0.710000 0.603115
v 0.190981 0.729579 0.603799
v 0.186573 0.729579 0.584291
v 0.189598 0.710000 0.583607
v 0.213839 0.737193 0.598634
v 0.201647 0.761725 0.601389
v 0.182203 0.747242 0.605782
v 0.190981 0.729579 0.603799
v 0.186573 0.729579 0.584291
v 0.177795 0.747242 0.586274
v 0.197239 0.761725 0.581881
v 0.209431 0.737193 0.579126
v 0.209431 0.737193 0.579126
v 0.197239 0.761725 0.581881
v 0.201647 0.761725 0.601389
v 0.213839 0.737193 0.598634
v 0.190981 0.729579 0.603799
v 0.182203 0.747242 0.605782
v 0.177795 0.747242 0.586274
v 0.186573 0.729579 0.584291
v 0.201647 0.761725 0.601389
v 0.182657 0.781193 0.605680
v 0.168530 0.761259 0.608872
v 0.182203 0.747242 0.605782
v 0.177795 0.747242 0.586274
v 0.164122 0.761259 0.589364
v 0.178249 0.781193 0.586172
v 0.197239 0.761725 0.581881
v 0.197239 0.761725 0.581881
v 0.178249 0.781193 0.586172
v 0.182657 0.781193 0.605680
v 0.201647 0.761725 0.601389
v 0.182203 0.747242 0.605782
v 0.168530 0.761259 0.608872
v 0.164122 0.761259 0.589364
v 0.177795 0.747242 0.586274
v 0.182657 0.781193 0.605680
v 0.158729 0.793693 0.611087
v 0.151302 0.770259 0.612765
v 0.168530 0.761259 0.608872
v 0.164122 0.761259 0.589364
v 0.146894 0.770259 0.593257
v 0.154321 0.793693 0.591578
v 0.178249 0.781193 0.586172
v 0.178249 0.781193 0.586172
v 0.154321 0.793693 0.591578
v 0.158729 0.793693 0.611087
v 0.182657 0.781193 0.605680
v 0.168530 0.761259 0.608872
v 0.151302 0.770259 0.612765
v 0.146894 0.770259 0.593257
v 0.164122 0.761259 0.589364
v 0.158729 0.793693 0.611087
v 0.132204 0.798000 0.617080
v 0.132204 0.773360 0.617080
v 0.151302 0.770259 0.612765
v 0.146894 0.770259 0.593257
v 0.127796 0.773360 0.597572
v 0.127796 0.798000 0.597572
v 0.154321 0.793693 0.591578
v 0.154321 0.793693 0.591578
v 0.127796 0.798000 0.597572
v 0.132204 0.798000 0.617080
v 0.158729 0.793693 0.611087
v 0.151302 0.770259 0.612765
v 0.132204 0.773360 0.617080
v 0.127796 0.773360 0.597572
v 0.146894 0.770259 0.593257
v 0.132204 0.798000 0.617080
v 0.105679 0.793693 0.623074
v 0.113106 0.770259 0.621395
v 0.132204 0.773360 0.617080
v 0.127796 0.773360 0.597572
v 0.108698 0.770259 0.601887
v 0.101271 0.793693 0.603565
v 0.127796 0.798000 0.597572
v 0.127796 0.798000 0.597572
v 0.101271 0.793693 0.603565
v 0.105679 0.793693 0.623074
v 0.132204 0.798000 0.617080
v 0.132204 0.773360 0.617080
v 0.113106 0.770259 0.621395
v 0.108698 0.770259 0.601887
v 0.127796 0.773360 0.597572
v 0.105679 0.793693 0.623074
v 0.081751 0.781193 0.628480
v 0.095878 0.761259 0.625288
v 0.113106 0.770259 0.621395
v 0.108698 0.770259 0.601887
v 0.091470 0.761259 0.605780
v 0.077343 0.781193 0.608972
v 0.101271 0.793693 0.603565
v 0.101271 0.793693 0.603565
v 0.077343 0.781193 0.608972
v 0.081751 0.781193 0.628480
v 0.105679 0.793693 0.623074
v 0.113106 0.770259 0.621395
v 0.095878 0.761259 0.625288
v 0.091470 0.761259 0.605780
v 0.108698 0.770259 0.601887
v 0.081751 0.781193 0.628480
v 0.062761 0.761725 0.632771
v 0.082205 0.747242 0.628378
v 0.095878 0.761259 0.625288
v 0.091470 0.761259 0.605780
v 0.077797 0.747242 0.608870
v 0.058353 0.761725 0.613263
v 0.077343 0.781193 0.608972
v 0.077343 0.781193 0.608972
v 0.058353 0.761725 0.613263
v 0.062761 0.761725 0.632771
v 0.081751 0.781193 0.628480
v 0.095878 0.761259 0.625288
v 0.082205 0.747242 0.628378
v 0.077797 0.747242 0.608870
v 0.091470 0.761259 0.605780
v 0.062761 0.761725 0.632771
v 0.050569 0.737193 0.635526
v 0.073427 0.729579 0.630361
v 0.082205 0.747242 0.628378
v 0.077797 0.747242 0.608870
v 0.069019 0.729579 0.610853
v 0.046161 0.737193 0.616018
v 0.058353 0.761725 0.613263
v 0.058353 0.761725 0.613263
v 0.046161 0.737193 0.616018
v 0.050569 0.737193 0.635526
v 0.062761 0.761725 0.632771
v 0.082205 0.747242 0.628378
v 0.073427 0.729579 0.630361
v 0.069019 0.729579 0.610853
v 0.077797 0.747242 0.608870
v 0.050569 0.737193 0.635526
v 0.046368 0.710000 0.636475
v 0.070402 0.710000 0.631045
v 0.073427 0.729579 0.630361
v 0.069019 0.729579 0.610853
v 0.065994 0.710000 0.611537
v 0.041960 0.710000 0.616967
v 0.046161 0.737193 0.616018
v 0.046161 0.737193 0.616018
v 0.041960 0.710000 0.616967
v 0.046368 0.710000 0.636475
v 0.050569 0.737193 0.635526
v 0.073427 0.729579 0.630361
v 0.070402 0.710000 0.631045
v 0.065994 0.710000 0.611537
v 0.069019 0.729579 0.610853
v 0.046368 0.710000 0.636475
v 0.050569 0.682807 0.635526
v 0.073427 0.690421 0.630361
v 0.070402 0.710000 0.631045
v 0.065994 0.710000 0.611537
v 0.069019 0.690421 0.610853
v 0.046161 0.682807 0.616018
v 0.041960 0.710000 0.616967
v 0.041960 0.710000 0.616967
v 0.046161 0.682807 0.616018
v 0.050569 0.682807 0.635526
v 0.046368 0.710000 0.636475
v 0.070402 0.710000 0.631045
v 0.073427 0.690421 0.630361
v 0.069019 0.690421 0.610853
v 0.065994 0.710000 0.611537
v 0.050569 0.682807 0.635526
v 0.062761 0.658275 0.632771
v 0.082205 0.672758 0.628378
v 0.073427 0.690421 0.630361
v 0.069019 0.690421 0.610853
v 0.077797 0.672758 0.608870
v 0.058353 0.658275 0.613263
v 0.046161 0.682807 0.616018
v 0.046161 0.682807 0.616018
v 0.058353 0.658275 0.613263
v 0.062761 0.658275 0.632771
v 0.050569 0.682807 0.635526
v 0.073427 0.690421 0.630361
v 0.082205 0.672758 0.628378
v 0.077797 0.672758 0.608870
v 0.069019 0.690421 0.610853
v 0.062761 0.658275 0.632771
v 0.081751 0.638807 0.628480
v 0.095878 0.658741 0.625288
v 0.082205 0.672758 0.628378
v 0.077797 0.672758 0.608870
v 0.091470 0.658741 0.605780
v 0.077343 0.638807 0.608972
v 0.058353 0.658275 0.613263
v 0.058353 0.658275 0.613263
v 0.077343 0.638807 0.608972
v 0.081751 0.638807 0.628480
v 0.062761 0.658275 0.632771
v 0.082205 0.672758 0.628378
v 0.095878 0.658741 0.625288
v 0.091470 0.658741 0.605780
v 0.077797 0.672758 0.608870
v 0.081751 0.638807 0.628480
v 0.105679 0.626307 0.623074
v 0.113106 0.649741 0.621395
v 0.095878 0.658741 0.625288
v 0.091470 0.658741 0.605780
v 0.108698 0.649741 0.601887
v 0.101271 0.626307 0.603565
v 0.077343 0.638807 0.608972
v 0.077343 0.638807 0.608972
v 0.101271 0.626307 0.603565
v 0.105679 0.626307 0.623074
v 0.081751 0.638807 0.628480
v 0.095878 0.658741 0.625288
v 0.113106 0.649741 0.621395
v 0.108698 0.649741 0.601887
v 0.091470 0.658741 0.605780
v 0.105679 0.626307 0.623074
v 0.132204 0.622000 0.617080
v 0.132204 0.646640 0.617080
v 0.113106 0.649741 0.621395
v 0.108698 0.649741 0.601887
v 0.127796 0.646640 0.597572
v 0.127796 0.622000 0.597572
v 0.101271 0.626307 0.603565
v 0.101271 0.626307 0.603565
v 0.127796 0.622000 0.597572
v 0.132204 0.622000 0.617080
v 0.105679 0.626307 0.623074
v 0.113106 0.649741 0.621395
v 0.132204 0.646640 0.617080
v 0.127796 0.646640 0.597572
v 0.108698 0.649741 0.601887
v 0.132204 0.622000 0.617080
v 0.158729 0.626307 0.611087
v 0.151302 0.649741 0.612765
v 0.132204 0.646640 0.617080
v 0.127796 0.646640 0.597572
v 0.146894 0.649741 0.593257
v 0.154321 0.626307 0.591578
v 0.127796 0.622000 0.597572
v 0.127796 0.622000 0.597572
v 0.154321 0.626307 0.591578
v 0.158729 0.626307 0.611087
v 0.132204 0.622000 0.617080
v 0.132204 0.646640 0.617080
v 0.151302 0.649741 0.612765
v 0.146894 0.649741 0.593257
v 0.127796 0.646640 0.597572
v 0.158729 0.626307 0.611087
v 0.182657 0.638807 0.605680
v 0.168530 0.658741 0.608872
v 0.151302 0.649741 0.612765
v 0.146894 0.649741 0.593257
v 0.164122 0.658741 0.589364
v 0.178249 0.638807 0.586172
v 0.154321 0.626307 0.591578
v 0.154321 0.626307 0.591578
v 0.178249 0.638807 0.586172
v 0.182657 0.638807 0.605680
v 0.158729 0.626307 0.611087
v 0.151302 0.649741 0.612765
v 0.168530 0.658741 0.608872
v 0.164122 0.658741 0.589364
v 0.146894 0.649741 0.593257
v 0.182657 0.638807 0.605680
v 0.201647 0.658275 0.601389
v 0.182203 0.672758 0.605782
v 0.168530 0.658741 0.608872
v 0.164122 0.658741 0.589364
v 0.177795 0.672758 0.586274
v 0.197239 0.658275 0.581881
v 0.178249 0.638807 0.586172
v 0.178249 0.638807 0.586172
v 0.197239 0.658275 0.581881
v 0.201647 0.658275 0.601389
v 0.182657 0.638807 0.605680
v 0.168530 0.658741 0.608872
v 0.182203 0.672758 0.605782
v 0.177795 0.672758 0.586274
v 0.164122 0.658741 0.589364
v 0.201647 0.658275 0.601389
v 0.213839 0.682807 0.598634
v 0.190981 0.690421 0.603799
v 0.182203 0.672758 0.605782
v 0.177795 0.672758 0.586274
v 0.186573 0.690421 0.584291
v 0.209431 0.682807 0.579126
v 0.197239 0.658275 0.581881
v 0.197239 0.658275 0.581881
v 0.209431 0.682807 0.579126
v 0.213839 0.682807 0.598634
v 0.201647 0.658275 0.601389
v 0.182203 0.672758 0.605782
v 0.190981 0.690421 0.603799
v 0.186573 0.690421 0.584291
v 0.177795 0.672758 0.586274
v 0.213839 0.682807 0.598634
v 0.218040 0.710000 0.597685
v 0.194006 0.710000 0.603115
v 0.190981 0.690421 0.603799
v 0.186573 0.690421 0.584291
v 0.189598 0.710000 0.583607
v 0.213632 0.710000 0.578177
v 0.209431 0.682807 0.579126
v 0.209431 0.682807 0.579126
v 0.213632 0.710000 0.578177
v 0.218040 0.710000 0.597685
v 0.213839 0.682807 0.598634
v 0.190981 0.690421 0.603799
v 0.194006 0.710000 0.603115
v 0.189598 0.710000 0.583607
v 0.186573 0.690421 0.584291
v -0.046368 0.710000 0.636475
v -0.050569 0.737193 0.635526
v -0.073427 0.729579 0.630361
v -0.070402 0.710000 0.631045
v -0.065994 0.710000 0.611537
v -0.069019 0.729579 0.610853
v -0.046161 0.737193 0.616018
v -0.041960 0.710000 0.616967
v -0.041960 0.710000 0.616967
v -0.046161 0.737193 0.616018
v -0.050569 0.737193 0.635526
v -0.046368 0.710000 0.636475
v -0.070402 0.710000 0.631045
v -0.073427 0.729579 0.630361
v -0.069019 0.729579 0.610853
v -0.065994 0.710000 0.611537
v -0.050569 0.737193 0.635526
v -0.062761 0.761725 0.632771
v -0.082205 0.747242 0.628378
v -0.073427 0.729579 0.630361
v -0.069019 0.729579 0.610853
v -0.077797 0.747242 0.608870
v -0.058353 0.761725 0.613263
v -0.046161 0.737193 0.616018
v -0.046161 0.737193 0.616018
v -0.058353 0.761725 0.613263
v -0.062761 0.761725 0.632771
v -0.050569 0.737193 0.635526
v -0.073427 0.729579 0.630361
v -0.082205 0.747242 0.628378
v -0.077797 0.747242 0.608870
v -0.069019 0.729579 0.610853
v -0.062761 0.761725 0.632771
v -0.081751 0.781193 0.628480
v -0.095878 0.761259 0.625288
v -0.082205 0.747242 0.628378
v -0.077797 0.747242 0.608870
v -0.091470 0.761259 0.605780
v -0.077343 0.781193 0.608972
v -0.058353 0.761725 0.613263
v -0.058353 0.761725 0.613263
v -0.077343 0.781193 0.608972
v -0.081751 0.781193 0.628480
v -0.062761 0.761725 0.632771
v -0.082205 0.747242 0.628378
v -0.095878 0.761259 0.625288
v -0.091470 0.761259 0.605780
v -0.077797 0.747242 0.608870
v -0.081751 0.781193 0.628480
v -0.105679 0.793693 0.623074
v -0.113106 0.770259 0.621395
v -0.095878 0.761259 0.625288
v -0.091470 0.761259 0.605780
v -0.108698 0.770259 0.601887
v -0.101271 0.793693 0.603565
v -0.077343 0.781193 0.608972
v -0.077343 0.781193 0.608972
v -0.101271 0.793693 0.603565
v -0.105679 0.793693 0.623074
v -0.081751 0.781193 0.628480
v -0.095878 0.761259 0.625288
v -0.113106 0.770259 0.621395
v -0.108698 0.770259 0.601887
v -0.091470 0.761259 0.605780
v -0.105679 0.793693 0.623074
v -0.132204 0.798000 0.617080
v -0.132204 0.773360 0.617080
v -0.113106 0.770259 0.621395
v -0.108698 0.770259 0.601887
v -0.127796 0.773360 0.597572
v -0.127796 0.798000 0.597572
v -0.101271 0.793693 0.603565
v -0.101271 0.793693 0.603565
v -0.127796 0.798000 0.597572
v -0.132204 0.798000 0.617080
v -0.105679 0.793693 0.623074
v -0.113106 0.770259 0.621395
v -0.132204 0.773360 0.617080
v -0.127796 0.773360 0.597572
v -0.108698 0.770259 0.601887
v -0.132204 0.798000 0.617080
v -0.158729 0.793693 0.611087
v -0.151302 0.770259 0.612765
v -0.132204 0.773360 0.617080
v -0.127796 0.773360 0.597572
v -0.146894 0.770259 0.593257
v -0.154321 0.793693 0.591578
v -0.127796 0.798000 0.597572
v -0.127796 0.798000 0.597572
v -0.154321 0.793693 0.591578
v -0.158729 0.793693 0.611087
v -0.132204 0.798000 0.617080
v -0.132204 0.773360 0.617080
v -0.151302 0.770259 0.612765
v -0.146894 0.770259 0.593257
v -0.127796 0.773360 0.597572
v -0.158729 0.793693 0.611087
v -0.182657 0.781193 0.605680
v -0.168530 0.761259 0.608872
v -0.151302 0.770259 0.612765
v -0.146894 0.770259 0.593257
v -0.164122 0.761259 0.589364
v -0.178249 0.781193 0.586172
v -0.154321 0.793693 0.591578
v -0.154321 0.793693 0.591578
v -0.178249 0.781193 0.586172
v -0.182657 0.781193 0.605680
v -0.158729 0.793693 0.611087
v -0.151302 0.770259 0.612765
v -0.168530 0.761259 0.608872
v -0.164122 0.761259 0.589364
v -0.146894 0.770259 0.593257
v -0.182657 0.781193 0.605680
v -0.201647 0.761725 0.601389
v -0.182203 0.747242 0.605782
v -0.168530 0.761259 0.608872
v -0.164122 0.761259 0.589364
v -0.177795 0.747242 0.586274
v -0.197239 0.761725 0.581881
v -0.178249 0.781193 0.586172
v -0.178249 0.781193 0.586172
v -0.197239 0.761725 0.581881
v -0.201647 0.761725 0.601389
v -0.182657 0.781193 0.605680
v -0.168530 0.761259 0.608872
v -0.182203 0.747242 0.605782
v -0.177795 0.747242 0.586274
v -0.164122 0.761259 0.589364
v -0.201647 0.761725 0.601389
v -0.213839 0.737193 0.598634
v -0.190981 0.729579 0.603799
v -0.182203 0.747242 0.605782
v -0.177795 0.747242 0.586274
v -0.186573 0.729579 0.584291
v -0.209431 0.737193 0.579126
v -0.197239 0.761725 0.581881
v -0.197239 0.761725 0.581881
v -0.209431 0.737193 0.579126
v -0.213839 0.737193 0.598634
v -0.201647 0.761725 0.601389
v -0.182203 0.747242 0.605782
v -0.190981 0.729579 0.603799
v -0.186573 0.729579 0.584291
v -0.177795 0.747242 0.586274
v -0.213839 0.737193 0.598634
v -0.218040 0.710000 0.597685
v -0.194006 0.710000 0.603115
v -0.190981 0.729579 0.603799
v -0.186573 0.729579 0.584291
v -0.189598 0.710000 0.583607
v -0.213632 0.710000 0.578177
v -0.209431 0.737193 0.579126
v -0.209431 0.737193 0.579126
v -0.213632 0.710000 0.578177
v -0.218040 0.710000 0.597685
v -0.213839 0.737193 0.598634
v -0.190981 0.729579 0.603799
v -0.194006 0.710000 0.603115
v -0.189598 0.710000 0.583607
v -0.186573 0.729579 0.584291
v -0.218040 0.710000 0.597685
v -0.213839 0.682807 0.598634
v -0.190981 0.690421 0.603799
v -0.194006 0.710000 0.603115
v -0.189598 0.710000 0.583607
v -0.186573 0.690421 0.584291
v -0.209431 0.682807 0.579126
v -0.213632 0.710000 0.578177
v -0.213632 0.710000 0.578177
v -0.209431 0.682807 0.579126
v -0.213839 0.682807 0.598634
v -0.218040 0.710000 0.597685
v -0.194006 0.710000 0.603115
v -0.190981 0.690421 0.603799
v -0.186573 0.690421 0.584291
v -0.189598 0.710000 0.583607
v -0.213839 0.682807 0.598634
v -0.201647 0.658275 0.601389
v -0.182203 0.672758 0.605782
v -0.190981 0.690421 0.603799
v -0.186573 0.690421 0.584291
v -0.177795 0.672758 0.586274
v -0.197239 0.658275 0.581881
v -0.209431 0.682807 0.579126
v -0.209431 0.682807 0.579126
v -0.197239 0.658275 0.581881
v -0.201647 0.658275 0.601389
v -0.213839 0.682807 0.598634
v -0.190981 0.690421 0.603799
v -0.182203 0.672758 0.605782
v -0.177795 0.672758 0.586274
v -0.186573 0.690421 0.584291
v -0.201647 0.658275 0.601389
v -0.182657 0.638807 0.605680
v -0.168530 0.658741 0.608872
v -0.182203 0.672758 0.605782
v -0.177795 0.672758 0.586274
v -0.164122 0.658741 0.589364
v -0.178249 0.638807 0.586172
v -0.197239 0.658275 0.581881
v -0.197239 0.658275 0.581881
v -0.178249 0.638807 0.586172
v -0.182657 0.638807 0.605680
v -0.201647 0.658275 0.601389
v -0.182203 0.672758 0.605782
v -0.168530 0.658741 0.608872
v -0.164122 0.658741 0.589364
v -0.177795 0.672758 0.586274
v -0.182657 0.638807 0.605680
v -0.158729 0.626307 0.611087
v -0.151302 0.649741 0.612765
v -0.168530 0.658741 0.608872
v -0.164122 0.658741 0.589364
v -0.146894 0.649741 0.593257
v -0.154321 0.626307 0.591578
v -0.178249 0.638807 0.586172
v -0.178249 0.638807 0.586172
v -0.154321 0.626307 0.591578
v -0.158729 0.626307 0.611087
v -0.182657 0.638807 0.605680
v -0.168530 0.658741 0.608872
v -0.151302 0.649741 0.612765
v -0.146894 0.649741 0.593257
v -0.164122 0.658741 0.589364
v -0.158729 0.626307 0.611087
v -0.132204 0.622000 0.617080
v -0.132204 0.646640 0.617080
v -0.151302 0.649741 0.612765
v -0.146894 0.649741 0.593257
v -0.127796 0.646640 0.597572
v -0.127796 0.622000 0.597572
v -0.154321 0.626307 0.591578
v -0.154321 0.626307 0.591578
v -0.127796 0.622000 0.597572
v -0.132204 0.622000 0.617080
v -0.158729 0.626307 0.611087
v -0.151302 0.649741 0.612765
v -0.132204 0.646640 0.617080
v -0.127796 0.646640 0.597572
v -0.146894 0.649741 0.593257
v -0.132204 0.622000 0.617080
v -0.105679 0.626307 0.623074
v -0.113106 0.649741 0.621395
v -0.132204 0.646640 0.617080
v -0.127796 0.646640 0.597572
v -0.108698 0.649741 0.601887
v -0.101271 0.626307 0.603565
v -0.127796 0.622000 0.597572
v -0.127796 0.622000 0.597572
v -0.101271 0.626307 0.603565
v -0.105679 0.626307 0.623074
v -0.132204 0.622000 0.617080
v -0.132204 0.646640 0.617080
v -0.113106 0.649741 0.621395
v -0.108698 0.649741 0.601887
v -0.127796 0.646640 0.597572
v -0.105679 0.626307 0.623074
v -0.081751 0.638807 0.628480
v -0.095878 0.658741 0.625288
v -0.113106 0.649741 0.621395
v -0.108698 0.649741 0.601887
v -0.091470 0.658741 0.605780
v -0.077343 0.638807 0.608972
v -0.101271 0.626307 0.603565
v -0.101271 0.626307 0.603565
v -0.077343 0.638807 0.608972
v -0.081751 0.638807 0.628480
v -0.105679 0.626307 0.623074
v -0.113106 0.649741 0.621395
v -0.095878 0.658741 0.625288
v -0.091470 0.658741 0.605780
v -0.108698 0.649741 0.601887
v -0.081751 0.638807 0.628480
v -0.062761 0.658275 0.632771
v -0.082205 0.672758 0.628378
v -0.095878 0.658741 0.625288
v -0.091470 0.658741 0.605780
v -0.077797 0.672758 0.608870
v -0.058353 0.658275 0.613263
v -0.077343 0.638807 0.608972
v -0.077343 0.638807 0.608972
v -0.058353 0.658275 0.613263
v -0.062761 0.658275 0.632771
v -0.081751 0.638807 0.628480
v -0.095878 0.658741 0.625288
v -0.082205 0.672758 0.628378
v -0.077797 0.672758 0.608870
v -0.091470 0.658741 0.605780
v -0.062761 0.658275 0.632771
v -0.050569 0.682807 0.635526
v -0.073427 0.690421 0.630361
v -0.082205 0.672758 0.628378
v -0.077797 0.672758 0.608870
v -0.069019 0.690421 0.610853
v -0.046161 0.682807 0.616018
v -0.058353 0.658275 0.613263
v -0.058353 0.658275 0.613263
v -0.046161 0.682807 0.616018
v -0.050569 0.682807 0.635526
v -0.062761 0.658275 0.632771
v -0.082205 0.672758 0.628378
v -0.073427 0.690421 0.630361
v -0.069019 0.690421 0.610853
v -0.077797 0.672758 0.608870
v -0.050569 0.682807 0.635526
v -0.046368 0.710000 0.636475
v -0.070402 0.710000 0.631045
v -0.073427 0.690421 0.630361
v -0.069019 0.690421 0.610853
v -0.065994 0.710000 0.611537
v -0.041960 0.710000 0.616967
v -0.046161 0.682807 0.616018
v -0.046161 0.682807 0.616018
v -0.041960 0.710000 0.616967
v -0.046368 0.710000 0.636475
v -0.050569 0.682807 0.635526
v -0.073427 0.690421 0.630361
v -0.070402 0.710000 0.631045
v -0.065994 0.710000 0.611537
v -0.069019 0.690421 0.610853
v 0.042500 0.741000 0.601326
v 0.042500 0.741000 0.621326
v 0.042500 0.715000 0.621326
v 0.042500 0.715000 0.601326
v -0.042500 0.715000 0.601326
v -0.042500 0.715000 0.621326
v -0.042500 0.741000 0.621326
v -0.042500 0.741000 0.601326
v -0.042500 0.741000 0.601326
v -0.042500 0.741000 0.621326
v 0.042500 0.741000 0.621326
v 0.042500 0.741000 0.601326
v 0.042500 0.715000 0.601326
v 0.042500 0.715000 0.621326
v -0.042500 0.715000 0.621326
v -0.042500 0.715000 0.601326
v 0.042500 0.715000 0.621326
v 0.042500 0.741000 0.621326
v -0.042500 0.741000 0.621326
v -0.042500 0.715000 0.621326
v -0.042500 0.715000 0.601326
v -0.042500 0.741000 0.601326
v 0.042500 0.741000 0.601326
v 0.042500 0.715000 0.601326
v 0.203953 0.724992 0.595172
v 0.545353 0.704992 0.092846
v 0.544798 0.675008 0.093663
v 0.203398 0.695008 0.595989
v 0.223247 0.695008 0.609480
v 0.564647 0.675008 0.107154
v 0.565202 0.704992 0.106337
v 0.223802 0.724992 0.608663
v 0.223802 0.724992 0.608663
v 0.565202 0.704992 0.106337
v 0.545353 0.704992 0.092846
v 0.203953 0.724992 0.595172
v 0.203398 0.695008 0.595989
v 0.544798 0.675008 0.093663
v 0.564647 0.675008 0.107154
v 0.223247 0.695008 0.609480
v 0.544798 0.675008 0.093663
v 0.545353 0.704992 0.092846
v 0.565202 0.704992 0.106337
v 0.564647 0.675008 0.107154
v 0.223247 0.695008 0.609480
v 0.223802 0.724992 0.608663
v 0.203953 0.724992 0.595172
v 0.203398 0.695008 0.595989
v -0.223802 0.724992 0.608663
v -0.565202 0.704992 0.106337
v -0.564647 0.675008 0.107154
v -0.223247 0.695008 0.609480
v -0.203398 0.695008 0.595989
v -0.544798 0.675008 0.093663
v -0.545353 0.704992 0.092846
v -0.203953 0.724992 0.595172
v -0.203953 0.724992 0.595172
v -0.545353 0.704992 0.092846
v -0.565202 0.704992 0.106337
v -0.223802 0.724992 0.608663
v -0.223247 0.695008 0.609480
v -0.564647 0.675008 0.107154
v -0.544798 0.675008 0.093663
v -0.203398 0.695008 0.595989
v -0.564647 0.675008 0.107154
v -0.565202 0.704992 0.106337
v -0.545353 0.704992 0.092846
v -0.544798 0.675008 0.093663
v -0.203398 0.695008 0.595989
v -0.203953 0.724992 0.595172
v -0.223802 0.724992 0.608663
v -0.223247 0.695008 0.609480
vn 0.2204 -0.0000 0.9754
vn -0.2204 0.0000 -0.9754
vn 0.9634 0.1564 -0.2177
vn -0.9634 -0.1564 0.2177
vn 0.2204 0.0000 0.9754
vn -0.2204 -0.0000 -0.9754
vn 0.8691 0.4540 -0.1964
vn -0.8691 -0.4540 0.1964
vn 0.2204 -0.0000 0.9754
vn -0.2204 0.0000 -0.9754
vn 0.6897 0.7071 -0.1558
vn -0.6897 -0.7071 0.1558
vn 0.2204 0.0000 0.9754
vn -0.2204 -0.0000 -0.9754
vn 0.4428 0.8910 -0.1001
vn -0.4428 -0.8910 0.1001
vn 0.2204 0.0000 0.9754
vn -0.2204 -0.0000 -0.9754
vn 0.1526 0.9877 -0.0345
vn -0.1526 -0.9877 0.0345
vn 0.2204 -0.0000 0.9754
vn -0.2204 0.0000 -0.9754
vn -0.1526 0.9877 0.0345
vn 0.1526 -0.9877 -0.0345
vn 0.2204 -0.0000 0.9754
vn -0.2204 0.0000 -0.9754
vn -0.4428 0.8910 0.1001
vn 0.4428 -0.8910 -0.1001
vn 0.2204 0.0000 0.9754
vn -0.2204 -0.0000 -0.9754
vn -0.6897 0.7071 0.1558
vn 0.6897 -0.7071 -0.1558
vn 0.2204 -0.0000 0.9754
vn -0.2204 0.0000 -0.9754
vn -0.8691 0.4540 0.1964
vn 0.8691 -0.4540 -0.1964
vn 0.2204 0.0000 0.9754
vn -0.2204 -0.0000 -0.9754
vn -0.9634 0.1564 0.2177
vn 0.9634 -0.1564 -0.2177
vn 0.2204 -0.0000 0.9754
vn -0.2204 0.0000 -0.9754
vn -0.9634 -0.1564 0.2177
vn 0.9634 0.1564 -0.2177
vn 0.2204 0.0000 0.9754
vn -0.2204 -0.0000 -0.9754
vn -0.8691 -0.4540 0.1964
vn 0.8691 0.4540 -0.1964
vn 0.2204 -0.0000 0.9754
vn -0.2204 0.0000 -0.9754
vn -0.6897 -0.7071 0.1558
vn 0.6897 0.7071 -0.1558
vn 0.2204 0.0000 0.9754
vn -0.2204 -0.0000 -0.9754
vn -0.4428 -0.8910 0.1001
vn 0.4428 0.8910 -0.1001
vn 0.2204 0.0000 0.9754
vn -0.2204 -0.0000 -0.9754
vn -0.1526 -0.9877 0.0345
vn 0.1526 0.9877 -0.0345
vn 0.2204 -0.0000 0.9754
vn -0.2204 0.0000 -0.9754
vn 0.1526 -0.9877 -0.0345
vn -0.1526 0.9877 0.0345
vn 0.2204 -0.0000 0.9754
vn -0.2204 0.0000 -0.9754
vn 0.4428 -0.8910 -0.1001
vn -0.4428 0.8910 0.1001
vn 0.2204 0.0000 0.9754
vn -0.2204 -0.0000 -0.9754
vn 0.6897 -0.7071 -0.1558
vn -0.6897 0.7071 0.1558
vn 0.2204 -0.0000 0.9754
vn -0.2204 0.0000 -0.9754
vn 0.8691 -0.4540 -0.1964
vn -0.8691 0.4540 0.1964
vn 0.2204 0.0000 0.9754
vn -0.2204 -0.0000 -0.9754
vn 0.9634 -0.1564 -0.2177
vn -0.9634 0.1564 0.2177
vn -0.2204 0.0000 0.9754
vn 0.2204 -0.0000 -0.9754
vn 0.9634 0.1564 0.2177
vn -0.9634 -0.1564 -0.2177
vn -0.2204 -0.0000 0.9754
vn 0.2204 0.0000 -0.9754
vn 0.8691 0.4540 0.1964
vn -0.8691 -0.4540 -0.1964
vn -0.2204 0.0000 0.9754
vn 0.2204 -0.0000 -0.9754
vn 0.6897 0.7071 0.1558
vn -0.6897 -0.7071 -0.1558
vn -0.2204 -0.0000 0.9754
vn 0.2204 0.0000 -0.9754
vn 0.4428 0.8910 0.1001
vn -0.4428 -0.8910 -0.1001
vn -0.2204 -0.0000 0.9754
vn 0.2204 0.0000 -0.9754
vn 0.1526 0.9877 0.0345
vn -0.1526 -0.9877 -0.0345
vn -0.2204 0.0000 0.9754
vn 0.2204 -0.0000 -0.9754
vn -0.1526 0.9877 -0.0345
vn 0.1526 -0.9877 0.0345
vn -0.2204 0.0000 0.9754
vn 0.2204 -0.0000 -0.9754
vn -0.4428 0.8910 -0.1001
vn 0.4428 -0.8910 0.1001
vn -0.2204 -0.0000 0.9754
vn 0.2204 0.0000 -0.9754
vn -0.6897 0.7071 -0.1558
vn 0.6897 -0.7071 0.1558
vn -0.2204 0.0000 0.9754
vn 0.2204 -0.0000 -0.9754
vn -0.8691 0.4540 -0.1964
vn 0.8691 -0.4540 0.1964
vn -0.2204 -0.0000 0.9754
vn 0.2204 0.0000 -0.9754
vn -0.9634 0.1564 -0.2177
vn 0.9634 -0.1564 0.2177
vn -0.2204 0.0000 0.9754
vn 0.2204 -0.0000 -0.9754
vn -0.9634 -0.1564 -0.2177
vn 0.9634 0.1564 0.2177
vn -0.2204 -0.0000 0.9754
vn 0.2204 0.0000 -0.9754
vn -0.8691 -0.4540 -0.1964
vn 0.8691 0.4540 0.1964
vn -0.2204 0.0000 0.9754
vn 0.2204 -0.0000 -0.9754
vn -0.6897 -0.7071 -0.1558
vn 0.6897 0.7071 0.1558
vn -0.2204 -0.0000 0.9754
vn 0.2204 0.0000 -0.9754
vn -0.4428 -0.8910 -0.1001
vn 0.4428 0.8910 0.1001
vn -0.2204 -0.0000 0.9754
vn 0.2204 0.0000 -0.9754
vn -0.1526 -0.9877 -0.0345
vn 0.1526 0.9877 0.0345
vn -0.2204 0.0000 0.9754
vn 0.2204 -0.0000 -0.9754
vn 0.1526 -0.9877 0.0345
vn -0.1526 0.9877 -0.0345
vn -0.2204 0.0000 0.9754
vn 0.2204 -0.0000 -0.9754
vn 0.4428 -0.8910 0.1001
vn -0.4428 0.8910 -0.1001
vn -0.2204 -0.0000 0.9754
vn 0.2204 0.0000 -0.9754
vn 0.6897 -0.7071 0.1558
vn -0.6897 0.7071 -0.1558
vn -0.2204 0.0000 0.9754
vn 0.2204 -0.0000 -0.9754
vn 0.8691 -0.4540 0.1964
vn -0.8691 0.4540 -0.1964
vn -0.2204 -0.0000 0.9754
vn 0.2204 0.0000 -0.9754
vn 0.9634 -0.1564 0.2177
vn -0.9634 0.1564 -0.2177
vn 1.0000 -0.0000 -0.0000
vn -1.0000 0.0000 0.0000
vn 0.0000 1.0000 0.0000
vn -0.0000 -1.0000 -0.0000
vn -0.0000 -0.0000 1.0000
vn 0.0000 0.0000 -1.0000
vn -0.8271 0.0000 -0.5621
vn 0.8271 -0.0000 0.5621
vn 0.0185 0.9995 -0.0272
vn -0.0185 -0.9995 0.0272
vn 0.5618 -0.0329 -0.8266
vn -0.5618 0.0329 0.8266
vn -0.8271 -0.0000 0.5621
vn 0.8271 0.0000 -0.5621
vn -0.0185 0.9995 -0.0272
vn 0.0185 -0.9995 0.0272
vn -0.5618 -0.0329 -0.8266
vn 0.5618 0.0329 0.8266
f 1//1 2//1 3//1 4//1
f 5//2 6//2 7//2 8//2
f 9//3 10//3 11//3 12//3
f 13//4 14//4 15//4 16//4
f 17//5 18//5 19//5 20//5
f 21//6 22//6 23//6 24//6
f 25//7 26//7 27//7 28//7
f 29//8 30//8 31//8 32//8
f 33//9 34//9 35//9 36//9
f 37//10 38//10 39//10 40//10
f 41//11 42//11 43//11 44//11
f 45//12 46//12 47//12 48//12
f 49//13 50//13 51//13 52//13
f 53//14 54//14 55//14 56//14
f 57//15 58//15 59//15 60//15
f 61//16 62//16 63//16 64//16
f 65//17 66//17 67//17 68//17
f 69//18 70//18 71//18 72//18
f 73//19 74//19 75//19 76//19
f 77//20 78//20 79//20 80//20
f 81//21 82//21 83//21 84//21
f 85//22 86//22 87//22 88//22
f 89//23 90//23 91//23 92//23
f 93//24 94//24 95//24 96//24
f 97//25 98//25 99//25 100//25
f 101//26 102//26 103//26 104//26
f 105//27 106//27 107//27 108//27
f 109//28 110//28 111//28 112//28
f 113//29 114//29 115//29 116//29
f 117//30 118//30 119//30 120//30
f 121//31 122//31 123//31 124//31
f 125//32 126//32 127//32 128//32
f 129//33 130//33 131//33 132//33
f 133//34 134//34 135//34 136//34
f 137//35 138//35 139//35 140//35
f 141//36 142//36 143//36 144//36
f 145//37 146//37 147//37 148//37
f 149//38 150//38 151//38 152//38
f 153//39 154//39 155//39 156//39
f 157//40 158//40 159//40 160//40
f 161//41 162//41 163//41 164//41
f 165//42 166//42 167//42 168//42
f 169//43 170//43 171//43 172//43
f 173//44 174//44 175//44 176//44
f 177//45 178//45 179//45 180//45
f 181//46 182//46 183//46 184//46
f 185//47 186//47 187//47 188//47
f 189//48 190//48 191//48 192//48
f 193//49 194//49 195//49 196//49
f 197//50 198//50 199//50 200//50
f 201//51 202//51 203//51 204//51
f 205//52 206//52 207//52 208//52
f 209//53 210//53 211//53 212//53
f 213//54 214//54 215//54 216//54
f 217//55 218//55 219//55 220//55
f 221//56 222//56 223//56 224//56
f 225//57 226//57 227//57 228//57
f 229//58 230//58 231//58 232//58
f 233//59 234//59 235//59 236//59
f 237//60 238//60 239//60 240//60
f 241//61 242//61 243//61 244//61
f 245//62 246//62 247//62 248//62
f 249//63 250//63 251//63 252//63
f 253//64 254//64 255//64 256//64
f 257//65 258//65 259//65 260//65
f 261//66 262//66 263//66 264//66
f 265//67 266//67 267//67 268//67
f 269//68 270//68 271//68 272//68
f 273//69 274//69 275//69 276//69
f 277//70 278//70 279//70 280//70
f 281//71 282//71 283//71 284//71
f 285//72 286//72 287//72 288//72
f 289//73 290//73 291//73 292//73
f 293//74 294//74 295//74 296//74
f 297//75 298//75 299//75 300//75
f 301//76 302//76 303//76 304//76
f 305//77 306//77 307//77 308//77
f 309//78 310//78 311//78 312//78
f 313//79 314//79 315//79 316//79
f 317//80 318//80 319//80 320//80
f 321//81 322//81 323//81 324//81
f 325//82 326//82 327//82 328//82
f 329//83 330//83 331//83 332//83
f 333//84 334//84 335//84 336//84
f 337//85 338//85 339//85 340//85
f 341//86 342//86 343//86 344//86
f 345//87 346//87 347//87 348//87
f 349//88 350//88 351//88 352//88
f 353//89 354//89 355//89 356//89
f 357//90 358//90 359//90 360//90
f 361//91 362//91 363//91 364//91
f 365//92 366//92 367//92 368//92
f 369//93 370//93 371//93 372//93
f 373//94 374//94 375//94 376//94
f 377//95 378//95 379//95 380//95
f 381//96 382//96 383//96 384//96
f 385//97 386//97 387//97 388//97
f 389//98 390//98 391//98 392//98
f 393//99 394//99 395//99 396//99
f 397//100 398//100 399//100 400//100
f 401//101 402//101 403//101 404//101
f 405//102 406//102 407//102 408//102
f 409//103 410//103 411//103 412//103
f 413//104 414//104 415//104 416//104
f 417//105 418//105 419//105 420//105
f 421//106 422//106 423//106 424//106
f 425//107 426//107 427//107 428//107
f 429//108 430//108 431//108 432//108
f 433//109 434//109 435//109 436//109
f 437//110 438//110 439//110 440//110
f 441//111 442//111 443//111 444//111
f 445//112 446//112 447//112 448//112
f 449//113 450//113 451//113 452//113
f 453//114 454//114 455//114 456//114
f 457//115 458//115 459//115 460//115
f 461//116 462//116 463//116 464//116
f 465//117 466//117 467//117 468//117
f 469//118 470//118 471//118 472//118
f 473//119 474//119 475//119 476//119
f 477//120 478//120 479//120 480//120
f 481//121 482//121 483//121 484//121
f 485//122 486//122 487//122 488//122
f 489//123 490//123 491//123 492//123
f 493//124 494//124 495//124 496//124
f 497//125 498//125 499//125 500//125
f 501//126 502//126 503//126 504//126
f 505//127 506//127 507//127 508//127
f 509//128 510//128 511//128 512//128
f 513//129 514//129 515//129 516//129
f 517//130 518//130 519//130 520//130
f 521//131 522//131 523//131 524//131
f 525//132 526//132 527//132 528//132
f 529//133 530//133 531//133 532//133
f 533//134 534//134 535//134 536//134
f 537//135 538//135 539//135 540//135
f 541//136 542//136 543//136 544//136
f 545//137 546//137 547//137 548//137
f 549//138 550//138 551//138 552//138
f 553//139 554//139 555//139 556//139
f 557//140 558//140 559//140 560//140
f 561//141 562//141 563//141 564//141
f 565//142 566//142 567//142 568//142
f 569//143 570//143 571//143 572//143
f 573//144 574//144 575//144 576//144
f 577//145 578//145 579//145 580//145
f 581//146 582//146 583//146 584//146
f 585//147 586//147 587//147 588//147
f 589//148 590//148 591//148 592//148
f 593//149 594//149 595//149 596//149
f 597//150 598//150 599//150 600//150
f 601//151 602//151 603//151 604//151
f 605//152 606//152 607//152 608//152
f 609//153 610//153 611//153 612//153
f 613//154 614//154 615//154 616//154
f 617//155 618//155 619//155 620//155
f 621//156 622//156 623//156 624//156
f 625//157 626//157 627//157 628//157
f 629//158 630//158 631//158 632//158
f 633//159 634//159 635//159 636//159
f 637//160 638//160 639//160 640//160
f 641//161 642//161 643//161 644//161
f 645//162 646//162 647//162 648//162
f 649//163 650//163 651//163 652//163
f 653//164 654//164 655//164 656//164
f 657//165 658//165 659//165 660//165
f 661//166 662//166 663//166 664//166
f 665//167 666//167 667//167 668//167
f 669//168 670//168 671//168 672//168
f 673//169 674//169 675//169 676//169
f 677//170 678//170 679//170 680//170
f 681//171 682//171 683//171 684//171
f 685//172 686//172 687//172 688//172
f 689//173 690//173 691//173 692//173
f 693//174 694//174 695//174 696//174
f 697//175 698//175 699//175 700//175
f 701//176 702//176 703//176 704//176
f 705//177 706//177 707//177 708//177
f 709//178 710//178 711//178 712//178
