# FaceSlapper procedural accessory - Glasses_Star
# Player-root local space; face sphere center (0, 0.6, 0) r=0.6
o Glasses_Star
v 0.132204 0.808000 0.617080
v 0.106920 0.745678 0.622793
v 0.114000 0.735688 0.621194
v 0.132204 0.780560 0.617080
v 0.127796 0.780560 0.597572
v 0.109592 0.735688 0.601685
v 0.102512 0.745678 0.603285
v 0.127796 0.808000 0.597572
v 0.127796 0.808000 0.597572
v 0.102512 0.745678 0.603285
v 0.106920 0.745678 0.622793
v 0.132204 0.808000 0.617080
v 0.132204 0.780560 0.617080
v 0.114000 0.735688 0.621194
v 0.109592 0.735688 0.601685
v 0.127796 0.780560 0.597572
v 0.106920 0.745678 0.622793
v 0.041292 0.740284 0.637622
v 0.066748 0.731804 0.631871
v 0.114000 0.735688 0.621194
v 0.109592 0.735688 0.601685
v 0.062340 0.731804 0.612362
v 0.036884 0.740284 0.618114
v 0.102512 0.745678 0.603285
v 0.102512 0.745678 0.603285
v 0.036884 0.740284 0.618114
v 0.041292 0.740284 0.637622
v 0.106920 0.745678 0.622793
v 0.114000 0.735688 0.621194
v 0.066748 0.731804 0.631871
v 0.062340 0.731804 0.612362
v 0.109592 0.735688 0.601685
v 0.041292 0.740284 0.637622
v 0.091294 0.696372 0.626324
v 0.102749 0.700188 0.623736
v 0.066748 0.731804 0.631871
v 0.062340 0.731804 0.612362
v 0.098341 0.700188 0.604228
v 0.086886 0.696372 0.606816
v 0.036884 0.740284 0.618114
v 0.036884 0.740284 0.618114
v 0.086886 0.696372 0.606816
v 0.091294 0.696372 0.626324
v 0.041292 0.740284 0.637622
v 0.066748 0.731804 0.631871
v 0.102749 0.700188 0.623736
v 0.098341 0.700188 0.604228
v 0.062340 0.731804 0.612362
v 0.091294 0.696372 0.626324
v 0.076018 0.630716 0.629776
v 0.091750 0.652916 0.626221
v 0.102749 0.700188 0.623736
v 0.098341 0.700188 0.604228
v 0.087342 0.652916 0.606713
v 0.071610 0.630716 0.610268
v 0.086886 0.696372 0.606816
v 0.086886 0.696372 0.606816
v 0.071610 0.630716 0.610268
v 0.076018 0.630716 0.629776
v 0.091294 0.696372 0.626324
v 0.102749 0.700188 0.623736
v 0.091750 0.652916 0.626221
v 0.087342 0.652916 0.606713
v 0.098341 0.700188 0.604228
v 0.076018 0.630716 0.629776
v 0.132204 0.665900 0.617080
v 0.132204 0.678248 0.617080
v 0.091750 0.652916 0.626221
v 0.087342 0.652916 0.606713
v 0.127796 0.678248 0.597572
v 0.127796 0.665900 0.597572
v 0.071610 0.630716 0.610268
v 0.071610 0.630716 0.610268
v 0.127796 0.665900 0.597572
v 0.132204 0.665900 0.617080
v 0.076018 0.630716 0.629776
v 0.091750 0.652916 0.626221
v 0.132204 0.678248 0.617080
v 0.127796 0.678248 0.597572
v 0.087342 0.652916 0.606713
v 0.132204 0.665900 0.617080
v 0.188390 0.630716 0.604384
v 0.172658 0.652916 0.607939
v 0.132204 0.678248 0.617080
v 0.127796 0.678248 0.597572
v 0.168250 0.652916 0.588431
v 0.183982 0.630716 0.584876
v 0.127796 0.665900 0.597572
v 0.127796 0.665900 0.597572
v 0.183982 0.630716 0.584876
v 0.188390 0.630716 0.604384
v 0.132204 0.665900 0.617080
v 0.132204 0.678248 0.617080
v 0.172658 0.652916 0.607939
v 0.168250 0.652916 0.588431
v 0.127796 0.678248 0.597572
v 0.188390 0.630716 0.604384
v 0.173114 0.696372 0.607836
v 0.161659 0.700188 0.610424
v 0.172658 0.652916 0.607939
v 0.168250 0.652916 0.588431
v 0.157251 0.700188 0.590916
v 0.168706 0.696372 0.588328
v 0.183982 0.630716 0.584876
v 0.183982 0.630716 0.584876
v 0.168706 0.696372 0.588328
v 0.173114 0.696372 0.607836
v 0.188390 0.630716 0.604384
v 0.172658 0.652916 0.607939
v 0.161659 0.700188 0.610424
v 0.157251 0.700188 0.590916
v 0.168250 0.652916 0.588431
v 0.173114 0.696372 0.607836
v 0.223116 0.740284 0.596538
v 0.197660 0.731804 0.602290
v 0.161659 0.700188 0.610424
v 0.157251 0.700188 0.590916
v 0.193252 0.731804 0.582781
v 0.218708 0.740284 0.577030
v 0.168706 0.696372 0.588328
v 0.168706 0.696372 0.588328
v 0.218708 0.740284 0.577030
v 0.223116 0.740284 0.596538
v 0.173114 0.696372 0.607836
v 0.161659 0.700188 0.610424
v 0.197660 0.731804 0.602290
v 0.193252 0.731804 0.582781
v 0.157251 0.700188 0.590916
v 0.223116 0.740284 0.596538
v 0.157488 0.745678 0.611367
v 0.150408 0.735688 0.612967
v 0.197660 0.731804 0.602290
v 0.193252 0.731804 0.582781
v 0.146000 0.735688 0.593458
v 0.153080 0.745678 0.591859
v 0.218708 0.740284 0.577030
v 0.218708 0.740284 0.577030
v 0.153080 0.745678 0.591859
v 0.157488 0.745678 0.611367
v 0.223116 0.740284 0.596538
v 0.197660 0.731804 0.602290
v 0.150408 0.735688 0.612967
v 0.146000 0.735688 0.593458
v 0.193252 0.731804 0.582781
v 0.157488 0.745678 0.611367
v 0.132204 0.808000 0.617080
v 0.132204 0.780560 0.617080
v 0.150408 0.735688 0.612967
v 0.146000 0.735688 0.593458
v 0.127796 0.780560 0.597572
v 0.127796 0.808000 0.597572
v 0.153080 0.745678 0.591859
v 0.153080 0.745678 0.591859
v 0.127796 0.808000 0.597572
v 0.132204 0.808000 0.617080
v 0.157488 0.745678 0.611367
v 0.150408 0.735688 0.612967
v 0.132204 0.780560 0.617080
v 0.127796 0.780560 0.597572
v 0.146000 0.735688 0.593458
v -0.132204 0.808000 0.617080
v -0.157488 0.745678 0.611367
v -0.150408 0.735688 0.612967
v -0.132204 0.780560 0.617080
v -0.127796 0.780560 0.597572
v -0.146000 0.735688 0.593458
v -0.153080 0.745678 0.591859
v -0.127796 0.808000 0.597572
v -0.127796 0.808000 0.597572
v -0.153080 0.745678 0.591859
v -0.157488 0.745678 0.611367
v -0.132204 0.808000 0.617080
v -0.132204 0.780560 0.617080
v -0.150408 0.735688 0.612967
v -0.146000 0.735688 0.593458
v -0.127796 0.780560 0.597572
v -0.157488 0.745678 0.611367
v -0.223116 0.740284 0.596538
v -0.197660 0.731804 0.602290
v -0.150408 0.735688 0.612967
v -0.146000 0.735688 0.593458
v -0.193252 0.731804 0.582781
v -0.218708 0.740284 0.577030
v -0.153080 0.745678 0.591859
v -0.153080 0.745678 0.591859
v -0.218708 0.740284 0.577030
v -0.223116 0.740284 0.596538
v -0.157488 0.745678 0.611367
v -0.150408 0.735688 0.612967
v -0.197660 0.731804 0.602290
v -0.193252 0.731804 0.582781
v -0.146000 0.735688 0.593458
v -0.223116 0.740284 0.596538
v -0.173114 0.696372 0.607836
v -0.161659 0.700188 0.610424
v -0.197660 0.731804 0.602290
v -0.193252 0.731804 0.582781
v -0.157251 0.700188 0.590916
v -0.168706 0.696372 0.588328
v -0.218708 0.740284 0.577030
v -0.218708 0.740284 0.577030
v -0.168706 0.696372 0.588328
v -0.173114 0.696372 0.607836
v -0.223116 0.740284 0.596538
v -0.197660 0.731804 0.602290
v -0.161659 0.700188 0.610424
v -0.157251 0.700188 0.590916
v -0.193252 0.731804 0.582781
v -0.173114 0.696372 0.607836
v -0.188390 0.630716 0.604384
v -0.172658 0.652916 0.607939
v -0.161659 0.700188 0.610424
v -0.157251 0.700188 0.590916
v -0.168250 0.652916 0.588431
v -0.183982 0.630716 0.584876
v -0.168706 0.696372 0.588328
v -0.168706 0.696372 0.588328
v -0.183982 0.630716 0.584876
v -0.188390 0.630716 0.604384
v -0.173114 0.696372 0.607836
v -0.161659 0.700188 0.610424
v -0.172658 0.652916 0.607939
v -0.168250 0.652916 0.588431
v -0.157251 0.700188 0.590916
v -0.188390 0.630716 0.604384
v -0.132204 0.665900 0.617080
v -0.132204 0.678248 0.617080
v -0.172658 0.652916 0.607939
v -0.168250 0.652916 0.588431
v -0.127796 0.678248 0.597572
v -0.127796 0.665900 0.597572
v -0.183982 0.630716 0.584876
v -0.183982 0.630716 0.584876
v -0.127796 0.665900 0.597572
v -0.132204 0.665900 0.617080
v -0.188390 0.630716 0.604384
v -0.172658 0.652916 0.607939
v -0.132204 0.678248 0.617080
v -0.127796 0.678248 0.597572
v -0.168250 0.652916 0.588431
v -0.132204 0.665900 0.617080
v -0.076018 0.630716 0.629776
v -0.091750 0.652916 0.626221
v -0.132204 0.678248 0.617080
v -0.127796 0.678248 0.597572
v -0.087342 0.652916 0.606713
v -0.071610 0.630716 0.610268
v -0.127796 0.665900 0.597572
v -0.127796 0.665900 0.597572
v -0.071610 0.630716 0.610268
v -0.076018 0.630716 0.629776
v -0.132204 0.665900 0.617080
v -0.132204 0.678248 0.617080
v -0.091750 0.652916 0.626221
v -0.087342 0.652916 0.606713
v -0.127796 0.678248 0.597572
v -0.076018 0.630716 0.629776
v -0.091294 0.696372 0.626324
v -0.102749 0.700188 0.623736
v -0.091750 0.652916 0.626221
v -0.087342 0.652916 0.606713
v -0.098341 0.700188 0.604228
v -0.086886 0.696372 0.606816
v -0.071610 0.630716 0.610268
v -0.071610 0.630716 0.610268
v -0.086886 0.696372 0.606816
v -0.091294 0.696372 0.626324
v -0.076018 0.630716 0.629776
v -0.091750 0.652916 0.626221
v -0.102749 0.700188 0.623736
v -0.098341 0.700188 0.604228
v -0.087342 0.652916 0.606713
v -0.091294 0.696372 0.626324
v -0.041292 0.740284 0.637622
v -0.066748 0.731804 0.631871
v -0.102749 0.700188 0.623736
v -0.098341 0.700188 0.604228
v -0.062340 0.731804 0.612362
v -0.036884 0.740284 0.618114
v -0.086886 0.696372 0.606816
v -0.086886 0.696372 0.606816
v -0.036884 0.740284 0.618114
v -0.041292 0.740284 0.637622
v -0.091294 0.696372 0.626324
v -0.102749 0.700188 0.623736
v -0.066748 0.731804 0.631871
v -0.062340 0.731804 0.612362
v -0.098341 0.700188 0.604228
v -0.041292 0.740284 0.637622
v -0.106920 0.745678 0.622793
v -0.114000 0.735688 0.621194
v -0.066748 0.731804 0.631871
v -0.062340 0.731804 0.612362
v -0.109592 0.735688 0.601685
v -0.102512 0.745678 0.603285
v -0.036884 0.740284 0.618114
v -0.036884 0.740284 0.618114
v -0.102512 0.745678 0.603285
v -0.106920 0.745678 0.622793
v -0.041292 0.740284 0.637622
v -0.066748 0.731804 0.631871
v -0.114000 0.735688 0.621194
v -0.109592 0.735688 0.601685
v -0.062340 0.731804 0.612362
v -0.106920 0.745678 0.622793
v -0.132204 0.808000 0.617080
v -0.132204 0.780560 0.617080
v -0.114000 0.735688 0.621194
v -0.109592 0.735688 0.601685
v -0.127796 0.780560 0.597572
v -0.127796 0.808000 0.597572
v -0.102512 0.745678 0.603285
v -0.102512 0.745678 0.603285
v -0.127796 0.808000 0.597572
v -0.132204 0.808000 0.617080
v -0.106920 0.745678 0.622793
v -0.114000 0.735688 0.621194
v -0.132204 0.780560 0.617080
v -0.127796 0.780560 0.597572
v -0.109592 0.735688 0.601685
v 0.042500 0.741000 0.601326
v 0.042500 0.741000 0.621326
v 0.042500 0.715000 0.621326
v 0.042500 0.715000 0.601326
v -0.042500 0.715000 0.601326
v -0.042500 0.715000 0.621326
v -0.042500 0.741000 0.621326
v -0.042500 0.741000 0.601326
v -0.042500 0.741000 0.601326
v -0.042500 0.741000 0.621326
v 0.042500 0.741000 0.621326
v 0.042500 0.741000 0.601326
v 0.042500 0.715000 0.601326
v 0.042500 0.715000 0.621326
v -0.042500 0.715000 0.621326
v -0.042500 0.715000 0.601326
v 0.042500 0.715000 0.621326
v 0.042500 0.741000 0.621326
v -0.042500 0.741000 0.621326
v -0.042500 0.715000 0.621326
v -0.042500 0.715000 0.601326
v -0.042500 0.741000 0.601326
v 0.042500 0.741000 0.601326
v 0.042500 0.715000 0.601326
v 0.213363 0.724992 0.595295
v 0.545263 0.704992 0.092969
v 0.544713 0.675008 0.093800
v 0.212813 0.695008 0.596126
v 0.232837 0.695008 0.609357
v 0.564737 0.675008 0.107031
v 0.565287 0.704992 0.106200
v 0.233387 0.724992 0.608526
v 0.233387 0.724992 0.608526
v 0.565287 0.704992 0.106200
v 0.545263 0.704992 0.092969
v 0.213363 0.724992 0.595295
v 0.212813 0.695008 0.596126
v 0.544713 0.675008 0.093800
v 0.564737 0.675008 0.107031
v 0.232837 0.695008 0.609357
v 0.544713 0.675008 0.093800
v 0.545263 0.704992 0.092969
v 0.565287 0.704992 0.106200
v 0.564737 0.675008 0.107031
v 0.232837 0.695008 0.609357
v 0.233387 0.724992 0.608526
v 0.213363 0.724992 0.595295
v 0.212813 0.695008 0.596126
v -0.233387 0.724992 0.608526
v -0.565287 0.704992 0.106200
v -0.564737 0.675008 0.107031
v -0.232837 0.695008 0.609357
v -0.212813 0.695008 0.596126
v -0.544713 0.675008 0.093800
v -0.545263 0.704992 0.092969
v -0.213363 0.724992 0.595295
v -0.213363 0.724992 0.595295
v -0.545263 0.704992 0.092969
v -0.565287 0.704992 0.106200
v -0.233387 0.724992 0.608526
v -0.232837 0.695008 0.609357
v -0.564737 0.675008 0.107031
v -0.544713 0.675008 0.093800
v -0.212813 0.695008 0.596126
v -0.564737 0.675008 0.107031
v -0.565287 0.704992 0.106200
v -0.545263 0.704992 0.092969
v -0.544713 0.675008 0.093800
v -0.212813 0.695008 0.596126
v -0.213363 0.724992 0.595295
v -0.233387 0.724992 0.608526
v -0.232837 0.695008 0.609357
vn 0.2204 0.0000 0.9754
vn -0.2204 -0.0000 -0.9754
vn -0.9006 0.3840 0.2035
vn 0.9006 -0.3840 -0.2035
vn 0.2204 0.0000 0.9754
vn -0.2204 -0.0000 -0.9754
vn -0.0779 0.9968 0.0176
vn 0.0779 -0.9968 -0.0176
vn 0.2204 -0.0000 0.9754
vn -0.2204 0.0000 -0.9754
vn -0.6346 -0.7595 0.1434
vn 0.6346 0.7595 -0.1434
vn 0.2204 -0.0000 0.9754
vn -0.2204 0.0000 -0.9754
vn -0.9488 0.2320 0.2144
vn 0.9488 -0.2320 -0.2144
vn 0.2204 0.0000 0.9754
vn -0.2204 -0.0000 -0.9754
vn 0.5084 -0.8534 -0.1149
vn -0.5084 0.8534 0.1149
vn 0.2204 -0.0000 0.9754
vn -0.2204 0.0000 -0.9754
vn -0.5084 -0.8534 0.1149
vn 0.5084 0.8534 -0.1149
vn 0.2204 0.0000 0.9754
vn -0.2204 -0.0000 -0.9754
vn 0.9488 0.2320 -0.2144
vn -0.9488 -0.2320 0.2144
vn 0.2204 0.0000 0.9754
vn -0.2204 -0.0000 -0.9754
vn 0.6346 -0.7595 -0.1434
vn -0.6346 0.7595 0.1434
vn 0.2204 -0.0000 0.9754
vn -0.2204 0.0000 -0.9754
vn 0.0779 0.9968 -0.0176
vn -0.0779 -0.9968 0.0176
vn 0.2204 -0.0000 0.9754
vn -0.2204 0.0000 -0.9754
vn 0.9006 0.3840 -0.2035
vn -0.9006 -0.3840 0.2035
vn -0.2204 -0.0000 0.9754
vn 0.2204 0.0000 -0.9754
vn -0.9006 0.3840 -0.2035
vn 0.9006 -0.3840 0.2035
vn -0.2204 -0.0000 0.9754
vn 0.2204 0.0000 -0.9754
vn -0.0779 0.9968 -0.0176
vn 0.0779 -0.9968 0.0176
vn -0.2204 0.0000 0.9754
vn 0.2204 -0.0000 -0.9754
vn -0.6346 -0.7595 -0.1434
vn 0.6346 0.7595 0.1434
vn -0.2204 0.0000 0.9754
vn 0.2204 -0.0000 -0.9754
vn -0.9488 0.2320 -0.2144
vn 0.9488 -0.2320 0.2144
vn -0.2204 -0.0000 0.9754
vn 0.2204 0.0000 -0.9754
vn 0.5084 -0.8534 0.1149
vn -0.5084 0.8534 -0.1149
vn -0.2204 0.0000 0.9754
vn 0.2204 -0.0000 -0.9754
vn -0.5084 -0.8534 -0.1149
vn 0.5084 0.8534 0.1149
vn -0.2204 -0.0000 0.9754
vn 0.2204 0.0000 -0.9754
vn 0.9488 0.2320 0.2144
vn -0.9488 -0.2320 -0.2144
vn -0.2204 -0.0000 0.9754
vn 0.2204 0.0000 -0.9754
vn 0.6346 -0.7595 0.1434
vn -0.6346 0.7595 -0.1434
vn -0.2204 0.0000 0.9754
vn 0.2204 -0.0000 -0.9754
vn 0.0779 0.9968 0.0176
vn -0.0779 -0.9968 -0.0176
vn -0.2204 0.0000 0.9754
vn 0.2204 -0.0000 -0.9754
vn 0.9006 0.3840 0.2035
vn -0.9006 -0.3840 -0.2035
vn 1.0000 -0.0000 -0.0000
vn -1.0000 0.0000 0.0000
vn 0.0000 1.0000 0.0000
vn -0.0000 -1.0000 -0.0000
vn -0.0000 -0.0000 1.0000
vn 0.0000 0.0000 -1.0000
vn -0.8343 0.0000 -0.5513
vn 0.8343 0.0000 0.5513
vn 0.0183 0.9994 -0.0277
vn -0.0183 -0.9994 0.0277
vn 0.5510 -0.0332 -0.8339
vn -0.5510 0.0332 0.8339
vn -0.8343 0.0000 0.5513
vn 0.8343 0.0000 -0.5513
vn -0.0183 0.9994 -0.0277
vn 0.0183 -0.9994 0.0277
vn -0.5510 -0.0332 -0.8339
vn 0.5510 0.0332 0.8339
f 1//1 2//1 3//1 4//1
f 5//2 6//2 7//2 8//2
f 9//3 10//3 11//3 12//3
f 13//4 14//4 15//4 16//4
f 17//5 18//5 19//5 20//5
f 21//6 22//6 23//6 24//6
f 25//7 26//7 27//7 28//7
f 29//8 30//8 31//8 32//8
f 33//9 34//9 35//9 36//9
f 37//10 38//10 39//10 40//10
f 41//11 42//11 43//11 44//11
f 45//12 46//12 47//12 48//12
f 49//13 50//13 51//13 52//13
f 53//14 54//14 55//14 56//14
f 57//15 58//15 59//15 60//15
f 61//16 62//16 63//16 64//16
f 65//17 66//17 67//17 68//17
f 69//18 70//18 71//18 72//18
f 73//19 74//19 75//19 76//19
f 77//20 78//20 79//20 80//20
f 81//21 82//21 83//21 84//21
f 85//22 86//22 87//22 88//22
f 89//23 90//23 91//23 92//23
f 93//24 94//24 95//24 96//24
f 97//25 98//25 99//25 100//25
f 101//26 102//26 103//26 104//26
f 105//27 106//27 107//27 108//27
f 109//28 110//28 111//28 112//28
f 113//29 114//29 115//29 116//29
f 117//30 118//30 119//30 120//30
f 121//31 122//31 123//31 124//31
f 125//32 126//32 127//32 128//32
f 129//33 130//33 131//33 132//33
f 133//34 134//34 135//34 136//34
f 137//35 138//35 139//35 140//35
f 141//36 142//36 143//36 144//36
f 145//37 146//37 147//37 148//37
f 149//38 150//38 151//38 152//38
f 153//39 154//39 155//39 156//39
f 157//40 158//40 159//40 160//40
f 161//41 162//41 163//41 164//41
f 165//42 166//42 167//42 168//42
f 169//43 170//43 171//43 172//43
f 173//44 174//44 175//44 176//44
f 177//45 178//45 179//45 180//45
f 181//46 182//46 183//46 184//46
f 185//47 186//47 187//47 188//47
f 189//48 190//48 191//48 192//48
f 193//49 194//49 195//49 196//49
f 197//50 198//50 199//50 200//50
f 201//51 202//51 203//51 204//51
f 205//52 206//52 207//52 208//52
f 209//53 210//53 211//53 212//53
f 213//54 214//54 215//54 216//54
f 217//55 218//55 219//55 220//55
f 221//56 222//56 223//56 224//56
f 225//57 226//57 227//57 228//57
f 229//58 230//58 231//58 232//58
f 233//59 234//59 235//59 236//59
f 237//60 238//60 239//60 240//60
f 241//61 242//61 243//61 244//61
f 245//62 246//62 247//62 248//62
f 249//63 250//63 251//63 252//63
f 253//64 254//64 255//64 256//64
f 257//65 258//65 259//65 260//65
f 261//66 262//66 263//66 264//66
f 265//67 266//67 267//67 268//67
f 269//68 270//68 271//68 272//68
f 273//69 274//69 275//69 276//69
f 277//70 278//70 279//70 280//70
f 281//71 282//71 283//71 284//71
f 285//72 286//72 287//72 288//72
f 289//73 290//73 291//73 292//73
f 293//74 294//74 295//74 296//74
f 297//75 298//75 299//75 300//75
f 301//76 302//76 303//76 304//76
f 305//77 306//77 307//77 308//77
f 309//78 310//78 311//78 312//78
f 313//79 314//79 315//79 316//79
f 317//80 318//80 319//80 320//80
f 321//81 322//81 323//81 324//81
f 325//82 326//82 327//82 328//82
f 329//83 330//83 331//83 332//83
f 333//84 334//84 335//84 336//84
f 337//85 338//85 339//85 340//85
f 341//86 342//86 343//86 344//86
f 345//87 346//87 347//87 348//87
f 349//88 350//88 351//88 352//88
f 353//89 354//89 355//89 356//89
f 357//90 358//90 359//90 360//90
f 361//91 362//91 363//91 364//91
f 365//92 366//92 367//92 368//92
f 369//93 370//93 371//93 372//93
f 373//94 374//94 375//94 376//94
f 377//95 378//95 379//95 380//95
f 381//96 382//96 383//96 384//96
f 385//97 386//97 387//97 388//97
f 389//98 390//98 391//98 392//98
