# FaceSlapper procedural accessory - Glasses_Heart
# Player-root local space; face sphere center (0, 0.6, 0) r=0.6
o Glasses_Heart
v 0.132204 0.724834 0.617080
v 0.133304 0.729726 0.616831
v 0.133732 0.737397 0.616735
v 0.132204 0.730602 0.617080
v 0.127796 0.730602 0.597572
v 0.129324 0.737397 0.597227
v 0.128896 0.729726 0.597323
v 0.127796 0.724834 0.597572
v 0.132204 0.730602 0.617080
v 0.133732 0.737397 0.616735
v 0.129324 0.737397 0.597227
v 0.127796 0.730602 0.597572
v 0.127796 0.724834 0.597572
v 0.128896 0.729726 0.597323
v 0.133304 0.729726 0.616831
v 0.132204 0.724834 0.617080
v 0.133304 0.729726 0.616831
v 0.140136 0.740705 0.615288
v 0.143220 0.752645 0.614591
v 0.133732 0.737397 0.616735
v 0.129324 0.737397 0.597227
v 0.138812 0.752645 0.595083
v 0.135728 0.740705 0.595780
v 0.128896 0.729726 0.597323
v 0.133732 0.737397 0.616735
v 0.143220 0.752645 0.614591
v 0.138812 0.752645 0.595083
v 0.129324 0.737397 0.597227
v 0.128896 0.729726 0.597323
v 0.135728 0.740705 0.595780
v 0.140136 0.740705 0.615288
v 0.133304 0.729726 0.616831
v 0.140136 0.740705 0.615288
v 0.154639 0.749457 0.612011
v 0.163363 0.764801 0.610039
v 0.143220 0.752645 0.614591
v 0.138812 0.752645 0.595083
v 0.158955 0.764801 0.590531
v 0.150230 0.749457 0.592503
v 0.135728 0.740705 0.595780
v 0.143220 0.752645 0.614591
v 0.163363 0.764801 0.610039
v 0.158955 0.764801 0.590531
v 0.138812 0.752645 0.595083
v 0.135728 0.740705 0.595780
v 0.150230 0.749457 0.592503
v 0.154639 0.749457 0.612011
v 0.140136 0.740705 0.615288
v 0.154639 0.749457 0.612011
v 0.173419 0.749060 0.607767
v 0.189447 0.764249 0.604146
v 0.163363 0.764801 0.610039
v 0.158955 0.764801 0.590531
v 0.185039 0.764249 0.584637
v 0.169011 0.749060 0.588259
v 0.150230 0.749457 0.592503
v 0.163363 0.764801 0.610039
v 0.189447 0.764249 0.604146
v 0.185039 0.764249 0.584637
v 0.158955 0.764801 0.590531
v 0.150230 0.749457 0.592503
v 0.169011 0.749060 0.588259
v 0.173419 0.749060 0.607767
v 0.154639 0.749457 0.612011
v 0.173419 0.749060 0.607767
v 0.189390 0.738285 0.604158
v 0.211630 0.749284 0.599133
v 0.189447 0.764249 0.604146
v 0.185039 0.764249 0.584637
v 0.207222 0.749284 0.579625
v 0.184982 0.738285 0.584650
v 0.169011 0.749060 0.588259
v 0.189447 0.764249 0.604146
v 0.211630 0.749284 0.599133
v 0.207222 0.749284 0.579625
v 0.185039 0.764249 0.584637
v 0.169011 0.749060 0.588259
v 0.184982 0.738285 0.584650
v 0.189390 0.738285 0.604158
v 0.173419 0.749060 0.607767
v 0.189390 0.738285 0.604158
v 0.195658 0.721107 0.602742
v 0.220335 0.725426 0.597166
v 0.211630 0.749284 0.599133
v 0.207222 0.749284 0.579625
v 0.215927 0.725426 0.577658
v 0.191250 0.721107 0.583234
v 0.184982 0.738285 0.584650
v 0.211630 0.749284 0.599133
v 0.220335 0.725426 0.597166
v 0.215927 0.725426 0.577658
v 0.207222 0.749284 0.579625
v 0.184982 0.738285 0.584650
v 0.191250 0.721107 0.583234
v 0.195658 0.721107 0.602742
v 0.189390 0.738285 0.604158
v 0.195658 0.721107 0.602742
v 0.189390 0.702662 0.604158
v 0.211630 0.699809 0.599133
v 0.220335 0.725426 0.597166
v 0.215927 0.725426 0.577658
v 0.207222 0.699809 0.579625
v 0.184982 0.702662 0.584650
v 0.191250 0.721107 0.583234
v 0.220335 0.725426 0.597166
v 0.211630 0.699809 0.599133
v 0.207222 0.699809 0.579625
v 0.215927 0.725426 0.577658
v 0.191250 0.721107 0.583234
v 0.184982 0.702662 0.584650
v 0.189390 0.702662 0.604158
v 0.195658 0.721107 0.602742
v 0.189390 0.702662 0.604158
v 0.173419 0.685700 0.607767
v 0.189447 0.676249 0.604146
v 0.211630 0.699809 0.599133
v 0.207222 0.699809 0.579625
v 0.185039 0.676249 0.584637
v 0.169011 0.685700 0.588259
v 0.184982 0.702662 0.584650
v 0.211630 0.699809 0.599133
v 0.189447 0.676249 0.604146
v 0.185039 0.676249 0.584637
v 0.207222 0.699809 0.579625
v 0.184982 0.702662 0.584650
v 0.169011 0.685700 0.588259
v 0.173419 0.685700 0.607767
v 0.189390 0.702662 0.604158
v 0.173419 0.685700 0.607767
v 0.154639 0.670394 0.612011
v 0.163363 0.654992 0.610039
v 0.189447 0.676249 0.604146
v 0.185039 0.676249 0.584637
v 0.158955 0.654992 0.590531
v 0.150230 0.670394 0.592503
v 0.169011 0.685700 0.588259
v 0.189447 0.676249 0.604146
v 0.163363 0.654992 0.610039
v 0.158955 0.654992 0.590531
v 0.185039 0.676249 0.584637
v 0.169011 0.685700 0.588259
v 0.150230 0.670394 0.592503
v 0.154639 0.670394 0.612011
v 0.173419 0.685700 0.607767
v 0.154639 0.670394 0.612011
v 0.140136 0.656784 0.615288
v 0.143220 0.636089 0.614591
v 0.163363 0.654992 0.610039
v 0.158955 0.654992 0.590531
v 0.138812 0.636089 0.595083
v 0.135728 0.656784 0.595780
v 0.150230 0.670394 0.592503
v 0.163363 0.654992 0.610039
v 0.143220 0.636089 0.614591
v 0.138812 0.636089 0.595083
v 0.158955 0.654992 0.590531
v 0.150230 0.670394 0.592503
v 0.135728 0.656784 0.595780
v 0.140136 0.656784 0.615288
v 0.154639 0.670394 0.612011
v 0.140136 0.656784 0.615288
v 0.133304 0.646666 0.616831
v 0.133732 0.622036 0.616735
v 0.143220 0.636089 0.614591
v 0.138812 0.636089 0.595083
v 0.129324 0.622036 0.597227
v 0.128896 0.646666 0.597323
v 0.135728 0.656784 0.595780
v 0.143220 0.636089 0.614591
v 0.133732 0.622036 0.616735
v 0.129324 0.622036 0.597227
v 0.138812 0.636089 0.595083
v 0.135728 0.656784 0.595780
v 0.128896 0.646666 0.597323
v 0.133304 0.646666 0.616831
v 0.140136 0.656784 0.615288
v 0.133304 0.646666 0.616831
v 0.132204 0.642838 0.617080
v 0.132204 0.616720 0.617080
v 0.133732 0.622036 0.616735
v 0.129324 0.622036 0.597227
v 0.127796 0.616720 0.597572
v 0.127796 0.642838 0.597572
v 0.128896 0.646666 0.597323
v 0.133732 0.622036 0.616735
v 0.132204 0.616720 0.617080
v 0.127796 0.616720 0.597572
v 0.129324 0.622036 0.597227
v 0.128896 0.646666 0.597323
v 0.127796 0.642838 0.597572
v 0.132204 0.642838 0.617080
v 0.133304 0.646666 0.616831
v 0.132204 0.642838 0.617080
v 0.131104 0.646666 0.617329
v 0.130676 0.622036 0.617425
v 0.132204 0.616720 0.617080
v 0.127796 0.616720 0.597572
v 0.126268 0.622036 0.597917
v 0.126696 0.646666 0.597820
v 0.127796 0.642838 0.597572
v 0.132204 0.616720 0.617080
v 0.130676 0.622036 0.617425
v 0.126268 0.622036 0.597917
v 0.127796 0.616720 0.597572
v 0.127796 0.642838 0.597572
v 0.126696 0.646666 0.597820
v 0.131104 0.646666 0.617329
v 0.132204 0.642838 0.617080
v 0.131104 0.646666 0.617329
v 0.124272 0.656784 0.618872
v 0.121188 0.636089 0.619569
v 0.130676 0.622036 0.617425
v 0.126268 0.622036 0.597917
v 0.116780 0.636089 0.600061
v 0.119864 0.656784 0.599364
v 0.126696 0.646666 0.597820
v 0.130676 0.622036 0.617425
v 0.121188 0.636089 0.619569
v 0.116780 0.636089 0.600061
v 0.126268 0.622036 0.597917
v 0.126696 0.646666 0.597820
v 0.119864 0.656784 0.599364
v 0.124272 0.656784 0.618872
v 0.131104 0.646666 0.617329
v 0.124272 0.656784 0.618872
v 0.109770 0.670394 0.622149
v 0.101045 0.654992 0.624121
v 0.121188 0.636089 0.619569
v 0.116780 0.636089 0.600061
v 0.096637 0.654992 0.604613
v 0.105361 0.670394 0.602641
v 0.119864 0.656784 0.599364
v 0.121188 0.636089 0.619569
v 0.101045 0.654992 0.624121
v 0.096637 0.654992 0.604613
v 0.116780 0.636089 0.600061
v 0.119864 0.656784 0.599364
v 0.105361 0.670394 0.602641
v 0.109770 0.670394 0.622149
v 0.124272 0.656784 0.618872
v 0.109770 0.670394 0.622149
v 0.090989 0.685700 0.626393
v 0.074961 0.676249 0.630015
v 0.101045 0.654992 0.624121
v 0.096637 0.654992 0.604613
v 0.070553 0.676249 0.610506
v 0.086581 0.685700 0.606885
v 0.105361 0.670394 0.602641
v 0.101045 0.654992 0.624121
v 0.074961 0.676249 0.630015
v 0.070553 0.676249 0.610506
v 0.096637 0.654992 0.604613
v 0.105361 0.670394 0.602641
v 0.086581 0.685700 0.606885
v 0.090989 0.685700 0.626393
v 0.109770 0.670394 0.622149
v 0.090989 0.685700 0.626393
v 0.075018 0.702662 0.630002
v 0.052778 0.699809 0.635027
v 0.074961 0.676249 0.630015
v 0.070553 0.676249 0.610506
v 0.048370 0.699809 0.615519
v 0.070610 0.702662 0.610494
v 0.086581 0.685700 0.606885
v 0.074961 0.676249 0.630015
v 0.052778 0.699809 0.635027
v 0.048370 0.699809 0.615519
v 0.070553 0.676249 0.610506
v 0.086581 0.685700 0.606885
v 0.070610 0.702662 0.610494
v 0.075018 0.702662 0.630002
v 0.090989 0.685700 0.626393
v 0.075018 0.702662 0.630002
v 0.068750 0.721107 0.631418
v 0.044073 0.725426 0.636994
v 0.052778 0.699809 0.635027
v 0.048370 0.699809 0.615519
v 0.039665 0.725426 0.617486
v 0.064342 0.721107 0.611910
v 0.070610 0.702662 0.610494
v 0.052778 0.699809 0.635027
v 0.044073 0.725426 0.636994
v 0.039665 0.725426 0.617486
v 0.048370 0.699809 0.615519
v 0.070610 0.702662 0.610494
v 0.064342 0.721107 0.611910
v 0.068750 0.721107 0.631418
v 0.075018 0.702662 0.630002
v 0.068750 0.721107 0.631418
v 0.075018 0.738285 0.630002
v 0.052778 0.749284 0.635027
v 0.044073 0.725426 0.636994
v 0.039665 0.725426 0.617486
v 0.048370 0.749284 0.615519
v 0.070610 0.738285 0.610494
v 0.064342 0.721107 0.611910
v 0.044073 0.725426 0.636994
v 0.052778 0.749284 0.635027
v 0.048370 0.749284 0.615519
v 0.039665 0.725426 0.617486
v 0.064342 0.721107 0.611910
v 0.070610 0.738285 0.610494
v 0.075018 0.738285 0.630002
v 0.068750 0.721107 0.631418
v 0.075018 0.738285 0.630002
v 0.090989 0.749060 0.626393
v 0.074961 0.764249 0.630015
v 0.052778 0.749284 0.635027
v 0.048370 0.749284 0.615519
v 0.070553 0.764249 0.610506
v 0.086581 0.749060 0.606885
v 0.070610 0.738285 0.610494
v 0.052778 0.749284 0.635027
v 0.074961 0.764249 0.630015
v 0.070553 0.764249 0.610506
v 0.048370 0.749284 0.615519
v 0.070610 0.738285 0.610494
v 0.086581 0.749060 0.606885
v 0.090989 0.749060 0.626393
v 0.075018 0.738285 0.630002
v 0.090989 0.749060 0.626393
v 0.109770 0.749457 0.622149
v 0.101045 0.764801 0.624121
v 0.074961 0.764249 0.630015
v 0.070553 0.764249 0.610506
v 0.096637 0.764801 0.604613
v 0.105361 0.749457 0.602641
v 0.086581 0.749060 0.606885
v 0.074961 0.764249 0.630015
v 0.101045 0.764801 0.624121
v 0.096637 0.764801 0.604613
v 0.070553 0.764249 0.610506
v 0.086581 0.749060 0.606885
v 0.105361 0.749457 0.602641
v 0.109770 0.749457 0.622149
v 0.090989 0.749060 0.626393
v 0.109770 0.749457 0.622149
v 0.124272 0.740705 0.618872
v 0.121188 0.752645 0.619569
v 0.101045 0.764801 0.624121
v 0.096637 0.764801 0.604613
v 0.116780 0.752645 0.600061
v 0.119864 0.740705 0.599364
v 0.105361 0.749457 0.602641
v 0.101045 0.764801 0.624121
v 0.121188 0.752645 0.619569
v 0.116780 0.752645 0.600061
v 0.096637 0.764801 0.604613
v 0.105361 0.749457 0.602641
v 0.119864 0.740705 0.599364
v 0.124272 0.740705 0.618872
v 0.109770 0.749457 0.622149
v 0.124272 0.740705 0.618872
v 0.131104 0.729726 0.617329
v 0.130676 0.737397 0.617425
v 0.121188 0.752645 0.619569
v 0.116780 0.752645 0.600061
v 0.126268 0.737397 0.597917
v 0.126696 0.729726 0.597820
v 0.119864 0.740705 0.599364
v 0.121188 0.752645 0.619569
v 0.130676 0.737397 0.617425
v 0.126268 0.737397 0.597917
v 0.116780 0.752645 0.600061
v 0.119864 0.740705 0.599364
v 0.126696 0.729726 0.597820
v 0.131104 0.729726 0.617329
v 0.124272 0.740705 0.618872
v 0.131104 0.729726 0.617329
v 0.132204 0.724834 0.617080
v 0.132204 0.730602 0.617080
v 0.130676 0.737397 0.617425
v 0.126268 0.737397 0.597917
v 0.127796 0.730602 0.597572
v 0.127796 0.724834 0.597572
v 0.126696 0.729726 0.597820
v 0.130676 0.737397 0.617425
v 0.132204 0.730602 0.617080
v 0.127796 0.730602 0.597572
v 0.126268 0.737397 0.597917
v 0.126696 0.729726 0.597820
v 0.127796 0.724834 0.597572
v 0.132204 0.724834 0.617080
v 0.131104 0.729726 0.617329
v -0.132204 0.724834 0.617080
v -0.131104 0.729726 0.617329
v -0.130676 0.737397 0.617425
v -0.132204 0.730602 0.617080
v -0.127796 0.730602 0.597572
v -0.126268 0.737397 0.597917
v -0.126696 0.729726 0.597820
v -0.127796 0.724834 0.597572
v -0.132204 0.730602 0.617080
v -0.130676 0.737397 0.617425
v -0.126268 0.737397 0.597917
v -0.127796 0.730602 0.597572
v -0.127796 0.724834 0.597572
v -0.126696 0.729726 0.597820
v -0.131104 0.729726 0.617329
v -0.132204 0.724834 0.617080
v -0.131104 0.729726 0.617329
v -0.124272 0.740705 0.618872
v -0.121188 0.752645 0.619569
v -0.130676 0.737397 0.617425
v -0.126268 0.737397 0.597917
v -0.116780 0.752645 0.600061
v -0.119864 0.740705 0.599364
v -0.126696 0.729726 0.597820
v -0.130676 0.737397 0.617425
v -0.121188 0.752645 0.619569
v -0.116780 0.752645 0.600061
v -0.126268 0.737397 0.597917
v -0.126696 0.729726 0.597820
v -0.119864 0.740705 0.599364
v -0.124272 0.740705 0.618872
v -0.131104 0.729726 0.617329
v -0.124272 0.740705 0.618872
v -0.109770 0.749457 0.622149
v -0.101045 0.764801 0.624121
v -0.121188 0.752645 0.619569
v -0.116780 0.752645 0.600061
v -0.096637 0.764801 0.604613
v -0.105361 0.749457 0.602641
v -0.119864 0.740705 0.599364
v -0.121188 0.752645 0.619569
v -0.101045 0.764801 0.624121
v -0.096637 0.764801 0.604613
v -0.116780 0.752645 0.600061
v -0.119864 0.740705 0.599364
v -0.105361 0.749457 0.602641
v -0.109770 0.749457 0.622149
v -0.124272 0.740705 0.618872
v -0.109770 0.749457 0.622149
v -0.090989 0.749060 0.626393
v -0.074961 0.764249 0.630015
v -0.101045 0.764801 0.624121
v -0.096637 0.764801 0.604613
v -0.070553 0.764249 0.610506
v -0.086581 0.749060 0.606885
v -0.105361 0.749457 0.602641
v -0.101045 0.764801 0.624121
v -0.074961 0.764249 0.630015
v -0.070553 0.764249 0.610506
v -0.096637 0.764801 0.604613
v -0.105361 0.749457 0.602641
v -0.086581 0.749060 0.606885
v -0.090989 0.749060 0.626393
v -0.109770 0.749457 0.622149
v -0.090989 0.749060 0.626393
v -0.075018 0.738285 0.630002
v -0.052778 0.749284 0.635027
v -0.074961 0.764249 0.630015
v -0.070553 0.764249 0.610506
v -0.048370 0.749284 0.615519
v -0.070610 0.738285 0.610494
v -0.086581 0.749060 0.606885
v -0.074961 0.764249 0.630015
v -0.052778 0.749284 0.635027
v -0.048370 0.749284 0.615519
v -0.070553 0.764249 0.610506
v -0.086581 0.749060 0.606885
v -0.070610 0.738285 0.610494
v -0.075018 0.738285 0.630002
v -0.090989 0.749060 0.626393
v -0.075018 0.738285 0.630002
v -0.068750 0.721107 0.631418
v -0.044073 0.725426 0.636994
v -0.052778 0.749284 0.635027
v -0.048370 0.749284 0.615519
v -0.039665 0.725426 0.617486
v -0.064342 0.721107 0.611910
v -0.070610 0.738285 0.610494
v -0.052778 0.749284 0.635027
v -0.044073 0.725426 0.636994
v -0.039665 0.725426 0.617486
v -0.048370 0.749284 0.615519
v -0.070610 0.738285 0.610494
v -0.064342 0.721107 0.611910
v -0.068750 0.721107 0.631418
v -0.075018 0.738285 0.630002
v -0.068750 0.721107 0.631418
v -0.075018 0.702662 0.630002
v -0.052778 0.699809 0.635027
v -0.044073 0.725426 0.636994
v -0.039665 0.725426 0.617486
v -0.048370 0.699809 0.615519
v -0.070610 0.702662 0.610494
v -0.064342 0.721107 0.611910
v -0.044073 0.725426 0.636994
v -0.052778 0.699809 0.635027
v -0.048370 0.699809 0.615519
v -0.039665 0.725426 0.617486
v -0.064342 0.721107 0.611910
v -0.070610 0.702662 0.610494
v -0.075018 0.702662 0.630002
v -0.068750 0.721107 0.631418
v -0.075018 0.702662 0.630002
v -0.090989 0.685700 0.626393
v -0.074961 0.676249 0.630015
v -0.052778 0.699809 0.635027
v -0.048370 0.699809 0.615519
v -0.070553 0.676249 0.610506
v -0.086581 0.685700 0.606885
v -0.070610 0.702662 0.610494
v -0.052778 0.699809 0.635027
v -0.074961 0.676249 0.630015
v -0.070553 0.676249 0.610506
v -0.048370 0.699809 0.615519
v -0.070610 0.702662 0.610494
v -0.086581 0.685700 0.606885
v -0.090989 0.685700 0.626393
v -0.075018 0.702662 0.630002
v -0.090989 0.685700 0.626393
v -0.109770 0.670394 0.622149
v -0.101045 0.654992 0.624121
v -0.074961 0.676249 0.630015
v -0.070553 0.676249 0.610506
v -0.096637 0.654992 0.604613
v -0.105361 0.670394 0.602641
v -0.086581 0.685700 0.606885
v -0.074961 0.676249 0.630015
v -0.101045 0.654992 0.624121
v -0.096637 0.654992 0.604613
v -0.070553 0.676249 0.610506
v -0.086581 0.685700 0.606885
v -0.105361 0.670394 0.602641
v -0.109770 0.670394 0.622149
v -0.090989 0.685700 0.626393
v -0.109770 0.670394 0.622149
v -0.124272 0.656784 0.618872
v -0.121188 0.636089 0.619569
v -0.101045 0.654992 0.624121
v -0.096637 0.654992 0.604613
v -0.116780 0.636089 0.600061
v -0.119864 0.656784 0.599364
v -0.105361 0.670394 0.602641
v -0.101045 0.654992 0.624121
v -0.121188 0.636089 0.619569
v -0.116780 0.636089 0.600061
v -0.096637 0.654992 0.604613
v -0.105361 0.670394 0.602641
v -0.119864 0.656784 0.599364
v -0.124272 0.656784 0.618872
v -0.109770 0.670394 0.622149
v -0.124272 0.656784 0.618872
v -0.131104 0.646666 0.617329
v -0.130676 0.622036 0.617425
v -0.121188 0.636089 0.619569
v -0.116780 0.636089 0.600061
v -0.126268 0.622036 0.597917
v -0.126696 0.646666 0.597820
v -0.119864 0.656784 0.599364
v -0.121188 0.636089 0.619569
v -0.130676 0.622036 0.617425
v -0.126268 0.622036 0.597917
v -0.116780 0.636089 0.600061
v -0.119864 0.656784 0.599364
v -0.126696 0.646666 0.597820
v -0.131104 0.646666 0.617329
v -0.124272 0.656784 0.618872
v -0.131104 0.646666 0.617329
v -0.132204 0.642838 0.617080
v -0.132204 0.616720 0.617080
v -0.130676 0.622036 0.617425
v -0.126268 0.622036 0.597917
v -0.127796 0.616720 0.597572
v -0.127796 0.642838 0.597572
v -0.126696 0.646666 0.597820
v -0.130676 0.622036 0.617425
v -0.132204 0.616720 0.617080
v -0.127796 0.616720 0.597572
v -0.126268 0.622036 0.597917
v -0.126696 0.646666 0.597820
v -0.127796 0.642838 0.597572
v -0.132204 0.642838 0.617080
v -0.131104 0.646666 0.617329
v -0.132204 0.642838 0.617080
v -0.133304 0.646666 0.616831
v -0.133732 0.622036 0.616735
v -0.132204 0.616720 0.617080
v -0.127796 0.616720 0.597572
v -0.129324 0.622036 0.597227
v -0.128896 0.646666 0.597323
v -0.127796 0.642838 0.597572
v -0.132204 0.616720 0.617080
v -0.133732 0.622036 0.616735
v -0.129324 0.622036 0.597227
v -0.127796 0.616720 0.597572
v -0.127796 0.642838 0.597572
v -0.128896 0.646666 0.597323
v -0.133304 0.646666 0.616831
v -0.132204 0.642838 0.617080
v -0.133304 0.646666 0.616831
v -0.140136 0.656784 0.615288
v -0.143220 0.636089 0.614591
v -0.133732 0.622036 0.616735
v -0.129324 0.622036 0.597227
v -0.138812 0.636089 0.595083
v -0.135728 0.656784 0.595780
v -0.128896 0.646666 0.597323
v -0.133732 0.622036 0.616735
v -0.143220 0.636089 0.614591
v -0.138812 0.636089 0.595083
v -0.129324 0.622036 0.597227
v -0.128896 0.646666 0.597323
v -0.135728 0.656784 0.595780
v -0.140136 0.656784 0.615288
v -0.133304 0.646666 0.616831
v -0.140136 0.656784 0.615288
v -0.154639 0.670394 0.612011
v -0.163363 0.654992 0.610039
v -0.143220 0.636089 0.614591
v -0.138812 0.636089 0.595083
v -0.158955 0.654992 0.590531
v -0.150230 0.670394 0.592503
v -0.135728 0.656784 0.595780
v -0.143220 0.636089 0.614591
v -0.163363 0.654992 0.610039
v -0.158955 0.654992 0.590531
v -0.138812 0.636089 0.595083
v -0.135728 0.656784 0.595780
v -0.150230 0.670394 0.592503
v -0.154639 0.670394 0.612011
v -0.140136 0.656784 0.615288
v -0.154639 0.670394 0.612011
v -0.173419 0.685700 0.607767
v -0.189447 0.676249 0.604146
v -0.163363 0.654992 0.610039
v -0.158955 0.654992 0.590531
v -0.185039 0.676249 0.584637
v -0.169011 0.685700 0.588259
v -0.150230 0.670394 0.592503
v -0.163363 0.654992 0.610039
v -0.189447 0.676249 0.604146
v -0.185039 0.676249 0.584637
v -0.158955 0.654992 0.590531
v -0.150230 0.670394 0.592503
v -0.169011 0.685700 0.588259
v -0.173419 0.685700 0.607767
v -0.154639 0.670394 0.612011
v -0.173419 0.685700 0.607767
v -0.189390 0.702662 0.604158
v -0.211630 0.699809 0.599133
v -0.189447 0.676249 0.604146
v -0.185039 0.676249 0.584637
v -0.207222 0.699809 0.579625
v -0.184982 0.702662 0.584650
v -0.169011 0.685700 0.588259
v -0.189447 0.676249 0.604146
v -0.211630 0.699809 0.599133
v -0.207222 0.699809 0.579625
v -0.185039 0.676249 0.584637
v -0.169011 0.685700 0.588259
v -0.184982 0.702662 0.584650
v -0.189390 0.702662 0.604158
v -0.173419 0.685700 0.607767
v -0.189390 0.702662 0.604158
v -0.195658 0.721107 0.602742
v -0.220335 0.725426 0.597166
v -0.211630 0.699809 0.599133
v -0.207222 0.699809 0.579625
v -0.215927 0.725426 0.577658
v -0.191250 0.721107 0.583234
v -0.184982 0.702662 0.584650
v -0.211630 0.699809 0.599133
v -0.220335 0.725426 0.597166
v -0.215927 0.725426 0.577658
v -0.207222 0.699809 0.579625
v -0.184982 0.702662 0.584650
v -0.191250 0.721107 0.583234
v -0.195658 0.721107 0.602742
v -0.189390 0.702662 0.604158
v -0.195658 0.721107 0.602742
v -0.189390 0.738285 0.604158
v -0.211630 0.749284 0.599133
v -0.220335 0.725426 0.597166
v -0.215927 0.725426 0.577658
v -0.207222 0.749284 0.579625
v -0.184982 0.738285 0.584650
v -0.191250 0.721107 0.583234
v -0.220335 0.725426 0.597166
v -0.211630 0.749284 0.599133
v -0.207222 0.749284 0.579625
v -0.215927 0.725426 0.577658
v -0.191250 0.721107 0.583234
v -0.184982 0.738285 0.584650
v -0.189390 0.738285 0.604158
v -0.195658 0.721107 0.602742
v -0.189390 0.738285 0.604158
v -0.173419 0.749060 0.607767
v -0.189447 0.764249 0.604146
v -0.211630 0.749284 0.599133
v -0.207222 0.749284 0.579625
v -0.185039 0.764249 0.584637
v -0.169011 0.749060 0.588259
v -0.184982 0.738285 0.584650
v -0.211630 0.749284 0.599133
v -0.189447 0.764249 0.604146
v -0.185039 0.764249 0.584637
v -0.207222 0.749284 0.579625
v -0.184982 0.738285 0.584650
v -0.169011 0.749060 0.588259
v -0.173419 0.749060 0.607767
v -0.189390 0.738285 0.604158
v -0.173419 0.749060 0.607767
v -0.154639 0.749457 0.612011
v -0.163363 0.764801 0.610039
v -0.189447 0.764249 0.604146
v -0.185039 0.764249 0.584637
v -0.158955 0.764801 0.590531
v -0.150230 0.749457 0.592503
v -0.169011 0.749060 0.588259
v -0.189447 0.764249 0.604146
v -0.163363 0.764801 0.610039
v -0.158955 0.764801 0.590531
v -0.185039 0.764249 0.584637
v -0.169011 0.749060 0.588259
v -0.150230 0.749457 0.592503
v -0.154639 0.749457 0.612011
v -0.173419 0.749060 0.607767
v -0.154639 0.749457 0.612011
v -0.140136 0.740705 0.615288
v -0.143220 0.752645 0.614591
v -0.163363 0.764801 0.610039
v -0.158955 0.764801 0.590531
v -0.138812 0.752645 0.595083
v -0.135728 0.740705 0.595780
v -0.150230 0.749457 0.592503
v -0.163363 0.764801 0.610039
v -0.143220 0.752645 0.614591
v -0.138812 0.752645 0.595083
v -0.158955 0.764801 0.590531
v -0.150230 0.749457 0.592503
v -0.135728 0.740705 0.595780
v -0.140136 0.740705 0.615288
v -0.154639 0.749457 0.612011
v -0.140136 0.740705 0.615288
v -0.133304 0.729726 0.616831
v -0.133732 0.737397 0.616735
v -0.143220 0.752645 0.614591
v -0.138812 0.752645 0.595083
v -0.129324 0.737397 0.597227
v -0.128896 0.729726 0.597323
v -0.135728 0.740705 0.595780
v -0.143220 0.752645 0.614591
v -0.133732 0.737397 0.616735
v -0.129324 0.737397 0.597227
v -0.138812 0.752645 0.595083
v -0.135728 0.740705 0.595780
v -0.128896 0.729726 0.597323
v -0.133304 0.729726 0.616831
v -0.140136 0.740705 0.615288
v -0.133304 0.729726 0.616831
v -0.132204 0.724834 0.617080
v -0.132204 0.730602 0.617080
v -0.133732 0.737397 0.616735
v -0.129324 0.737397 0.597227
v -0.127796 0.730602 0.597572
v -0.127796 0.724834 0.597572
v -0.128896 0.729726 0.597323
v -0.133732 0.737397 0.616735
v -0.132204 0.730602 0.617080
v -0.127796 0.730602 0.597572
v -0.129324 0.737397 0.597227
v -0.128896 0.729726 0.597323
v -0.127796 0.724834 0.597572
v -0.132204 0.724834 0.617080
v -0.133304 0.729726 0.616831
v 0.042500 0.741000 0.601326
v 0.042500 0.741000 0.621326
v 0.042500 0.715000 0.621326
v 0.042500 0.715000 0.601326
v -0.042500 0.715000 0.601326
v -0.042500 0.715000 0.621326
v -0.042500 0.741000 0.621326
v -0.042500 0.741000 0.601326
v -0.042500 0.741000 0.601326
v -0.042500 0.741000 0.621326
v 0.042500 0.741000 0.621326
v 0.042500 0.741000 0.601326
v 0.042500 0.715000 0.601326
v 0.042500 0.715000 0.621326
v -0.042500 0.715000 0.621326
v -0.042500 0.715000 0.601326
v 0.042500 0.715000 0.621326
v 0.042500 0.741000 0.621326
v -0.042500 0.741000 0.621326
v -0.042500 0.715000 0.621326
v -0.042500 0.715000 0.601326
v -0.042500 0.741000 0.601326
v 0.042500 0.741000 0.601326
v 0.042500 0.715000 0.601326
v 0.211481 0.724992 0.595270
v 0.545281 0.704992 0.092944
v 0.544730 0.675008 0.093773
v 0.210930 0.695008 0.596099
v 0.230919 0.695008 0.609382
v 0.564719 0.675008 0.107056
v 0.565270 0.704992 0.106227
v 0.231470 0.724992 0.608553
v 0.231470 0.724992 0.608553
v 0.565270 0.704992 0.106227
v 0.545281 0.704992 0.092944
v 0.211481 0.724992 0.595270
v 0.210930 0.695008 0.596099
v 0.544730 0.675008 0.093773
v 0.564719 0.675008 0.107056
v 0.230919 0.695008 0.609382
v 0.544730 0.675008 0.093773
v 0.545281 0.704992 0.092944
v 0.565270 0.704992 0.106227
v 0.564719 0.675008 0.107056
v 0.230919 0.695008 0.609382
v 0.231470 0.724992 0.608553
v 0.211481 0.724992 0.595270
v 0.210930 0.695008 0.596099
v -0.231470 0.724992 0.608553
v -0.565270 0.704992 0.106227
v -0.564719 0.675008 0.107056
v -0.230919 0.695008 0.609382
v -0.210930 0.695008 0.596099
v -0.544730 0.675008 0.093773
v -0.545281 0.704992 0.092944
v -0.211481 0.724992 0.595270
v -0.211481 0.724992 0.595270
v -0.545281 0.704992 0.092944
v -0.565270 0.704992 0.106227
v -0.231470 0.724992 0.608553
v -0.230919 0.695008 0.609382
v -0.564719 0.675008 0.107056
v -0.544730 0.675008 0.093773
v -0.210930 0.695008 0.596099
v -0.564719 0.675008 0.107056
v -0.565270 0.704992 0.106227
v -0.545281 0.704992 0.092944
v -0.544730 0.675008 0.093773
v -0.210930 0.695008 0.596099
v -0.211481 0.724992 0.595270
v -0.231470 0.724992 0.608553
v -0.230919 0.695008 0.609382
vn 0.2204 -0.0000 0.9754
vn -0.2204 0.0000 -0.9754
vn -0.9505 0.2246 0.2148
vn 0.9505 -0.2246 -0.2148
vn 0.2204 -0.0000 0.9754
vn -0.2204 0.0000 -0.9754
vn -0.8223 0.5378 0.1858
vn 0.8223 -0.5378 -0.1858
vn 0.2204 0.0000 0.9754
vn -0.2204 -0.0000 -0.9754
vn -0.4948 0.8618 0.1118
vn 0.4948 -0.8618 -0.1118
vn 0.2204 -0.0000 0.9754
vn -0.2204 0.0000 -0.9754
vn 0.0201 0.9998 -0.0045
vn -0.0201 -0.9998 0.0045
vn 0.2204 -0.0000 0.9754
vn -0.2204 0.0000 -0.9754
vn 0.5362 0.8354 -0.1212
vn -0.5362 -0.8354 0.1212
vn 0.2204 0.0000 0.9754
vn -0.2204 -0.0000 -0.9754
vn 0.9136 0.3504 -0.2064
vn -0.9136 -0.3504 0.2064
vn 0.2204 -0.0000 0.9754
vn -0.2204 0.0000 -0.9754
vn 0.9211 -0.3290 -0.2081
vn -0.9211 0.3290 0.2081
vn 0.2204 0.0000 0.9754
vn -0.2204 -0.0000 -0.9754
vn 0.7018 -0.6945 -0.1586
vn -0.7018 0.6945 0.1586
vn 0.2204 0.0000 0.9754
vn -0.2204 -0.0000 -0.9754
vn 0.6070 -0.7828 -0.1372
vn -0.6070 0.7828 0.1372
vn 0.2204 -0.0000 0.9754
vn -0.2204 0.0000 -0.9754
vn 0.6586 -0.7376 -0.1488
vn -0.6586 0.7376 0.1488
vn 0.2204 0.0000 0.9754
vn -0.2204 -0.0000 -0.9754
vn 0.8020 -0.5692 -0.1812
vn -0.8020 0.5692 0.1812
vn 0.2204 0.0000 0.9754
vn -0.2204 -0.0000 -0.9754
vn 0.9356 -0.2826 -0.2114
vn -0.9356 0.2826 0.2114
vn 0.2204 -0.0000 0.9754
vn -0.2204 0.0000 -0.9754
vn -0.9356 -0.2826 0.2114
vn 0.9356 0.2826 -0.2114
vn 0.2204 -0.0000 0.9754
vn -0.2204 0.0000 -0.9754
vn -0.8020 -0.5692 0.1812
vn 0.8020 0.5692 -0.1812
vn 0.2204 0.0000 0.9754
vn -0.2204 -0.0000 -0.9754
vn -0.6586 -0.7376 0.1488
vn 0.6586 0.7376 -0.1488
vn 0.2204 -0.0000 0.9754
vn -0.2204 0.0000 -0.9754
vn -0.6070 -0.7828 0.1372
vn 0.6070 0.7828 -0.1372
vn 0.2204 -0.0000 0.9754
vn -0.2204 0.0000 -0.9754
vn -0.7018 -0.6945 0.1586
vn 0.7018 0.6945 -0.1586
vn 0.2204 0.0000 0.9754
vn -0.2204 -0.0000 -0.9754
vn -0.9211 -0.3290 0.2081
vn 0.9211 0.3290 -0.2081
vn 0.2204 -0.0000 0.9754
vn -0.2204 0.0000 -0.9754
vn -0.9136 0.3504 0.2064
vn 0.9136 -0.3504 -0.2064
vn 0.2204 0.0000 0.9754
vn -0.2204 -0.0000 -0.9754
vn -0.5362 0.8354 0.1212
vn 0.5362 -0.8354 -0.1212
vn 0.2204 0.0000 0.9754
vn -0.2204 -0.0000 -0.9754
vn -0.0201 0.9998 0.0045
vn 0.0201 -0.9998 -0.0045
vn 0.2204 -0.0000 0.9754
vn -0.2204 0.0000 -0.9754
vn 0.4948 0.8618 -0.1118
vn -0.4948 -0.8618 0.1118
vn 0.2204 0.0000 0.9754
vn -0.2204 -0.0000 -0.9754
vn 0.8223 0.5378 -0.1858
vn -0.8223 -0.5378 0.1858
vn 0.2204 0.0000 0.9754
vn -0.2204 -0.0000 -0.9754
vn 0.9505 0.2246 -0.2148
vn -0.9505 -0.2246 0.2148
vn -0.2204 0.0000 0.9754
vn 0.2204 -0.0000 -0.9754
vn -0.9505 0.2246 -0.2148
vn 0.9505 -0.2246 0.2148
vn -0.2204 0.0000 0.9754
vn 0.2204 -0.0000 -0.9754
vn -0.8223 0.5378 -0.1858
vn 0.8223 -0.5378 0.1858
vn -0.2204 -0.0000 0.9754
vn 0.2204 0.0000 -0.9754
vn -0.4948 0.8618 -0.1118
vn 0.4948 -0.8618 0.1118
vn -0.2204 0.0000 0.9754
vn 0.2204 -0.0000 -0.9754
vn 0.0201 0.9998 0.0045
vn -0.0201 -0.9998 -0.0045
vn -0.2204 0.0000 0.9754
vn 0.2204 -0.0000 -0.9754
vn 0.5362 0.8354 0.1212
vn -0.5362 -0.8354 -0.1212
vn -0.2204 -0.0000 0.9754
vn 0.2204 0.0000 -0.9754
vn 0.9136 0.3504 0.2064
vn -0.9136 -0.3504 -0.2064
vn -0.2204 0.0000 0.9754
vn 0.2204 -0.0000 -0.9754
vn 0.9211 -0.3290 0.2081
vn -0.9211 0.3290 -0.2081
vn -0.2204 -0.0000 0.9754
vn 0.2204 0.0000 -0.9754
vn 0.7018 -0.6945 0.1586
vn -0.7018 0.6945 -0.1586
vn -0.2204 -0.0000 0.9754
vn 0.2204 0.0000 -0.9754
vn 0.6070 -0.7828 0.1372
vn -0.6070 0.7828 -0.1372
vn -0.2204 0.0000 0.9754
vn 0.2204 -0.0000 -0.9754
vn 0.6586 -0.7376 0.1488
vn -0.6586 0.7376 -0.1488
vn -0.2204 -0.0000 0.9754
vn 0.2204 0.0000 -0.9754
vn 0.8020 -0.5692 0.1812
vn -0.8020 0.5692 -0.1812
vn -0.2204 -0.0000 0.9754
vn 0.2204 0.0000 -0.9754
vn 0.9356 -0.2826 0.2114
vn -0.9356 0.2826 -0.2114
vn -0.2204 0.0000 0.9754
vn 0.2204 -0.0000 -0.9754
vn -0.9356 -0.2826 -0.2114
vn 0.9356 0.2826 0.2114
vn -0.2204 0.0000 0.9754
vn 0.2204 -0.0000 -0.9754
vn -0.8020 -0.5692 -0.1812
vn 0.8020 0.5692 0.1812
vn -0.2204 -0.0000 0.9754
vn 0.2204 0.0000 -0.9754
vn -0.6586 -0.7376 -0.1488
vn 0.6586 0.7376 0.1488
vn -0.2204 0.0000 0.9754
vn 0.2204 -0.0000 -0.9754
vn -0.6070 -0.7828 -0.1372
vn 0.6070 0.7828 0.1372
vn -0.2204 0.0000 0.9754
vn 0.2204 -0.0000 -0.9754
vn -0.7018 -0.6945 -0.1586
vn 0.7018 0.6945 0.1586
vn -0.2204 -0.0000 0.9754
vn 0.2204 0.0000 -0.9754
vn -0.9211 -0.3290 -0.2081
vn 0.9211 0.3290 0.2081
vn -0.2204 0.0000 0.9754
vn 0.2204 -0.0000 -0.9754
vn -0.9136 0.3504 -0.2064
vn 0.9136 -0.3504 0.2064
vn -0.2204 -0.0000 0.9754
vn 0.2204 0.0000 -0.9754
vn -0.5362 0.8354 -0.1212
vn 0.5362 -0.8354 0.1212
vn -0.2204 -0.0000 0.9754
vn 0.2204 0.0000 -0.9754
vn -0.0201 0.9998 -0.0045
vn 0.0201 -0.9998 0.0045
vn -0.2204 0.0000 0.9754
vn 0.2204 -0.0000 -0.9754
vn 0.4948 0.8618 0.1118
vn -0.4948 -0.8618 -0.1118
vn -0.2204 -0.0000 0.9754
vn 0.2204 0.0000 -0.9754
vn 0.8223 0.5378 0.1858
vn -0.8223 -0.5378 -0.1858
vn -0.2204 -0.0000 0.9754
vn 0.2204 0.0000 -0.9754
vn 0.9505 0.2246 0.2148
vn -0.9505 -0.2246 -0.2148
vn 1.0000 -0.0000 -0.0000
vn -1.0000 0.0000 0.0000
vn 0.0000 1.0000 0.0000
vn -0.0000 -1.0000 -0.0000
vn -0.0000 -0.0000 1.0000
vn 0.0000 0.0000 -1.0000
vn -0.8329 0.0000 -0.5535
vn 0.8329 -0.0000 0.5535
vn 0.0183 0.9995 -0.0276
vn -0.0183 -0.9995 0.0276
vn 0.5532 -0.0331 -0.8324
vn -0.5532 0.0331 0.8324
vn -0.8329 -0.0000 0.5535
vn 0.8329 0.0000 -0.5535
vn -0.0183 0.9995 -0.0276
vn 0.0183 -0.9995 0.0276
vn -0.5532 -0.0331 -0.8324
vn 0.5532 0.0331 0.8324
f 1//1 2//1 3//1 4//1
f 5//2 6//2 7//2 8//2
f 9//3 10//3 11//3 12//3
f 13//4 14//4 15//4 16//4
f 17//5 18//5 19//5 20//5
f 21//6 22//6 23//6 24//6
f 25//7 26//7 27//7 28//7
f 29//8 30//8 31//8 32//8
f 33//9 34//9 35//9 36//9
f 37//10 38//10 39//10 40//10
f 41//11 42//11 43//11 44//11
f 45//12 46//12 47//12 48//12
f 49//13 50//13 51//13 52//13
f 53//14 54//14 55//14 56//14
f 57//15 58//15 59//15 60//15
f 61//16 62//16 63//16 64//16
f 65//17 66//17 67//17 68//17
f 69//18 70//18 71//18 72//18
f 73//19 74//19 75//19 76//19
f 77//20 78//20 79//20 80//20
f 81//21 82//21 83//21 84//21
f 85//22 86//22 87//22 88//22
f 89//23 90//23 91//23 92//23
f 93//24 94//24 95//24 96//24
f 97//25 98//25 99//25 100//25
f 101//26 102//26 103//26 104//26
f 105//27 106//27 107//27 108//27
f 109//28 110//28 111//28 112//28
f 113//29 114//29 115//29 116//29
f 117//30 118//30 119//30 120//30
f 121//31 122//31 123//31 124//31
f 125//32 126//32 127//32 128//32
f 129//33 130//33 131//33 132//33
f 133//34 134//34 135//34 136//34
f 137//35 138//35 139//35 140//35
f 141//36 142//36 143//36 144//36
f 145//37 146//37 147//37 148//37
f 149//38 150//38 151//38 152//38
f 153//39 154//39 155//39 156//39
f 157//40 158//40 159//40 160//40
f 161//41 162//41 163//41 164//41
f 165//42 166//42 167//42 168//42
f 169//43 170//43 171//43 172//43
f 173//44 174//44 175//44 176//44
f 177//45 178//45 179//45 180//45
f 181//46 182//46 183//46 184//46
f 185//47 186//47 187//47 188//47
f 189//48 190//48 191//48 192//48
f 193//49 194//49 195//49 196//49
f 197//50 198//50 199//50 200//50
f 201//51 202//51 203//51 204//51
f 205//52 206//52 207//52 208//52
f 209//53 210//53 211//53 212//53
f 213//54 214//54 215//54 216//54
f 217//55 218//55 219//55 220//55
f 221//56 222//56 223//56 224//56
f 225//57 226//57 227//57 228//57
f 229//58 230//58 231//58 232//58
f 233//59 234//59 235//59 236//59
f 237//60 238//60 239//60 240//60
f 241//61 242//61 243//61 244//61
f 245//62 246//62 247//62 248//62
f 249//63 250//63 251//63 252//63
f 253//64 254//64 255//64 256//64
f 257//65 258//65 259//65 260//65
f 261//66 262//66 263//66 264//66
f 265//67 266//67 267//67 268//67
f 269//68 270//68 271//68 272//68
f 273//69 274//69 275//69 276//69
f 277//70 278//70 279//70 280//70
f 281//71 282//71 283//71 284//71
f 285//72 286//72 287//72 288//72
f 289//73 290//73 291//73 292//73
f 293//74 294//74 295//74 296//74
f 297//75 298//75 299//75 300//75
f 301//76 302//76 303//76 304//76
f 305//77 306//77 307//77 308//77
f 309//78 310//78 311//78 312//78
f 313//79 314//79 315//79 316//79
f 317//80 318//80 319//80 320//80
f 321//81 322//81 323//81 324//81
f 325//82 326//82 327//82 328//82
f 329//83 330//83 331//83 332//83
f 333//84 334//84 335//84 336//84
f 337//85 338//85 339//85 340//85
f 341//86 342//86 343//86 344//86
f 345//87 346//87 347//87 348//87
f 349//88 350//88 351//88 352//88
f 353//89 354//89 355//89 356//89
f 357//90 358//90 359//90 360//90
f 361//91 362//91 363//91 364//91
f 365//92 366//92 367//92 368//92
f 369//93 370//93 371//93 372//93
f 373//94 374//94 375//94 376//94
f 377//95 378//95 379//95 380//95
f 381//96 382//96 383//96 384//96
f 385//97 386//97 387//97 388//97
f 389//98 390//98 391//98 392//98
f 393//99 394//99 395//99 396//99
f 397//100 398//100 399//100 400//100
f 401//101 402//101 403//101 404//101
f 405//102 406//102 407//102 408//102
f 409//103 410//103 411//103 412//103
f 413//104 414//104 415//104 416//104
f 417//105 418//105 419//105 420//105
f 421//106 422//106 423//106 424//106
f 425//107 426//107 427//107 428//107
f 429//108 430//108 431//108 432//108
f 433//109 434//109 435//109 436//109
f 437//110 438//110 439//110 440//110
f 441//111 442//111 443//111 444//111
f 445//112 446//112 447//112 448//112
f 449//113 450//113 451//113 452//113
f 453//114 454//114 455//114 456//114
f 457//115 458//115 459//115 460//115
f 461//116 462//116 463//116 464//116
f 465//117 466//117 467//117 468//117
f 469//118 470//118 471//118 472//118
f 473//119 474//119 475//119 476//119
f 477//120 478//120 479//120 480//120
f 481//121 482//121 483//121 484//121
f 485//122 486//122 487//122 488//122
f 489//123 490//123 491//123 492//123
f 493//124 494//124 495//124 496//124
f 497//125 498//125 499//125 500//125
f 501//126 502//126 503//126 504//126
f 505//127 506//127 507//127 508//127
f 509//128 510//128 511//128 512//128
f 513//129 514//129 515//129 516//129
f 517//130 518//130 519//130 520//130
f 521//131 522//131 523//131 524//131
f 525//132 526//132 527//132 528//132
f 529//133 530//133 531//133 532//133
f 533//134 534//134 535//134 536//134
f 537//135 538//135 539//135 540//135
f 541//136 542//136 543//136 544//136
f 545//137 546//137 547//137 548//137
f 549//138 550//138 551//138 552//138
f 553//139 554//139 555//139 556//139
f 557//140 558//140 559//140 560//140
f 561//141 562//141 563//141 564//141
f 565//142 566//142 567//142 568//142
f 569//143 570//143 571//143 572//143
f 573//144 574//144 575//144 576//144
f 577//145 578//145 579//145 580//145
f 581//146 582//146 583//146 584//146
f 585//147 586//147 587//147 588//147
f 589//148 590//148 591//148 592//148
f 593//149 594//149 595//149 596//149
f 597//150 598//150 599//150 600//150
f 601//151 602//151 603//151 604//151
f 605//152 606//152 607//152 608//152
f 609//153 610//153 611//153 612//153
f 613//154 614//154 615//154 616//154
f 617//155 618//155 619//155 620//155
f 621//156 622//156 623//156 624//156
f 625//157 626//157 627//157 628//157
f 629//158 630//158 631//158 632//158
f 633//159 634//159 635//159 636//159
f 637//160 638//160 639//160 640//160
f 641//161 642//161 643//161 644//161
f 645//162 646//162 647//162 648//162
f 649//163 650//163 651//163 652//163
f 653//164 654//164 655//164 656//164
f 657//165 658//165 659//165 660//165
f 661//166 662//166 663//166 664//166
f 665//167 666//167 667//167 668//167
f 669//168 670//168 671//168 672//168
f 673//169 674//169 675//169 676//169
f 677//170 678//170 679//170 680//170
f 681//171 682//171 683//171 684//171
f 685//172 686//172 687//172 688//172
f 689//173 690//173 691//173 692//173
f 693//174 694//174 695//174 696//174
f 697//175 698//175 699//175 700//175
f 701//176 702//176 703//176 704//176
f 705//177 706//177 707//177 708//177
f 709//178 710//178 711//178 712//178
f 713//179 714//179 715//179 716//179
f 717//180 718//180 719//180 720//180
f 721//181 722//181 723//181 724//181
f 725//182 726//182 727//182 728//182
f 729//183 730//183 731//183 732//183
f 733//184 734//184 735//184 736//184
f 737//185 738//185 739//185 740//185
f 741//186 742//186 743//186 744//186
f 745//187 746//187 747//187 748//187
f 749//188 750//188 751//188 752//188
f 753//189 754//189 755//189 756//189
f 757//190 758//190 759//190 760//190
f 761//191 762//191 763//191 764//191
f 765//192 766//192 767//192 768//192
f 769//193 770//193 771//193 772//193
f 773//194 774//194 775//194 776//194
f 777//195 778//195 779//195 780//195
f 781//196 782//196 783//196 784//196
f 785//197 786//197 787//197 788//197
f 789//198 790//198 791//198 792//198
f 793//199 794//199 795//199 796//199
f 797//200 798//200 799//200 800//200
f 801//201 802//201 803//201 804//201
f 805//202 806//202 807//202 808//202
f 809//203 810//203 811//203 812//203
f 813//204 814//204 815//204 816//204
f 817//205 818//205 819//205 820//205
f 821//206 822//206 823//206 824//206
f 825//207 826//207 827//207 828//207
f 829//208 830//208 831//208 832//208
f 833//209 834//209 835//209 836//209
f 837//210 838//210 839//210 840//210
