# FaceSlapper procedural accessory - Mustache_Big8
# Player-root local space; face sphere center (0, 0.6, 0) r=0.6
o Mustache_Big8
v -0.298319 0.609804 0.532841
v -0.298247 0.611774 0.541078
v -0.309872 0.652271 0.530235
v -0.309822 0.650350 0.523607
v -0.298247 0.611774 0.541078
v -0.291214 0.616096 0.548108
v -0.304140 0.655791 0.535962
v -0.309872 0.652271 0.530235
v -0.291214 0.616096 0.548108
v -0.281340 0.620239 0.549813
v -0.295982 0.658848 0.537433
v -0.304140 0.655791 0.535962
v -0.281340 0.620239 0.549813
v -0.274409 0.621775 0.545193
v -0.290178 0.659650 0.533786
v -0.295982 0.658848 0.537433
v -0.290178 0.659650 0.533786
v -0.290128 0.657729 0.527157
v -0.274480 0.619805 0.536955
v -0.274409 0.621775 0.545193
v -0.290128 0.657729 0.527157
v -0.295860 0.654209 0.521430
v -0.281513 0.615483 0.529925
v -0.274480 0.619805 0.536955
v -0.295860 0.654209 0.521430
v -0.304018 0.651152 0.519959
v -0.291388 0.611341 0.528221
v -0.281513 0.615483 0.529925
v -0.304018 0.651152 0.519959
v -0.309822 0.650350 0.523607
v -0.298319 0.609804 0.532841
v -0.291388 0.611341 0.528221
v -0.286578 0.575162 0.539004
v -0.286392 0.577247 0.548822
v -0.298247 0.611774 0.541078
v -0.298319 0.609804 0.532841
v -0.286392 0.577247 0.548822
v -0.278202 0.582706 0.557083
v -0.291214 0.616096 0.548108
v -0.298247 0.611774 0.541078
v -0.278202 0.582706 0.557083
v -0.266805 0.588342 0.558948
v -0.281340 0.620239 0.549813
v -0.291214 0.616096 0.548108
v -0.266805 0.588342 0.558948
v -0.258877 0.590853 0.553324
v -0.274409 0.621775 0.545193
v -0.281340 0.620239 0.549813
v -0.274409 0.621775 0.545193
v -0.274480 0.619805 0.536955
v -0.259063 0.588768 0.543506
v -0.258877 0.590853 0.553324
v -0.274480 0.619805 0.536955
v -0.281513 0.615483 0.529925
v -0.267253 0.583308 0.535245
v -0.259063 0.588768 0.543506
v -0.281513 0.615483 0.529925
v -0.291388 0.611341 0.528221
v -0.278650 0.577672 0.533380
v -0.267253 0.583308 0.535245
v -0.291388 0.611341 0.528221
v -0.298319 0.609804 0.532841
v -0.286578 0.575162 0.539004
v -0.278650 0.577672 0.533380
v -0.274308 0.546068 0.543456
v -0.274105 0.548488 0.554806
v -0.286392 0.577247 0.548822
v -0.286578 0.575162 0.539004
v -0.274105 0.548488 0.554806
v -0.265107 0.555691 0.564183
v -0.278202 0.582706 0.557083
v -0.286392 0.577247 0.548822
v -0.265107 0.555691 0.564183
v -0.252585 0.563457 0.566094
v -0.266805 0.588342 0.558948
v -0.278202 0.582706 0.557083
v -0.252585 0.563457 0.566094
v -0.243874 0.567238 0.559419
v -0.258877 0.590853 0.553324
v -0.266805 0.588342 0.558948
v -0.258877 0.590853 0.553324
v -0.259063 0.588768 0.543506
v -0.244077 0.564818 0.548069
v -0.243874 0.567238 0.559419
v -0.259063 0.588768 0.543506
v -0.267253 0.583308 0.535245
v -0.253075 0.557615 0.538692
v -0.244077 0.564818 0.548069
v -0.267253 0.583308 0.535245
v -0.278650 0.577672 0.533380
v -0.265597 0.549848 0.536781
v -0.253075 0.557615 0.538692
v -0.278650 0.577672 0.533380
v -0.286578 0.575162 0.539004
v -0.274308 0.546068 0.543456
v -0.265597 0.549848 0.536781
v -0.260851 0.522030 0.547355
v -0.260924 0.525192 0.560146
v -0.274105 0.548488 0.554806
v -0.274308 0.546068 0.543456
v -0.260924 0.525192 0.560146
v -0.251935 0.535111 0.570407
v -0.265107 0.555691 0.564183
v -0.274105 0.548488 0.554806
v -0.251935 0.535111 0.570407
v -0.239150 0.545977 0.572127
v -0.252585 0.563457 0.566094
v -0.265107 0.555691 0.564183
v -0.239150 0.545977 0.572127
v -0.230058 0.551423 0.564300
v -0.243874 0.567238 0.559419
v -0.252585 0.563457 0.566094
v -0.243874 0.567238 0.559419
v -0.244077 0.564818 0.548069
v -0.229985 0.548261 0.551509
v -0.230058 0.551423 0.564300
v -0.244077 0.564818 0.548069
v -0.253075 0.557615 0.538692
v -0.238974 0.538341 0.541248
v -0.229985 0.548261 0.551509
v -0.253075 0.557615 0.538692
v -0.265597 0.549848 0.536781
v -0.251759 0.527476 0.539528
v -0.238974 0.538341 0.541248
v -0.265597 0.549848 0.536781
v -0.274308 0.546068 0.543456
v -0.260851 0.522030 0.547355
v -0.251759 0.527476 0.539528
v -0.244744 0.502651 0.551886
v -0.245820 0.507119 0.565896
v -0.260924 0.525192 0.560146
v -0.260851 0.522030 0.547355
v -0.245820 0.507119 0.565896
v -0.238694 0.521023 0.576486
v -0.251935 0.535111 0.570407
v -0.260924 0.525192 0.560146
v -0.238694 0.521023 0.576486
v -0.227540 0.536219 0.577451
v -0.239150 0.545977 0.572127
v -0.251935 0.535111 0.570407
v -0.227540 0.536219 0.577451
v -0.218892 0.543804 0.568228
v -0.230058 0.551423 0.564300
v -0.239150 0.545977 0.572127
v -0.230058 0.551423 0.564300
v -0.229985 0.548261 0.551509
v -0.217816 0.539336 0.554218
v -0.218892 0.543804 0.568228
v -0.229985 0.548261 0.551509
v -0.238974 0.538341 0.541248
v -0.224942 0.525432 0.543628
v -0.217816 0.539336 0.554218
v -0.238974 0.538341 0.541248
v -0.251759 0.527476 0.539528
v -0.236096 0.510237 0.542662
v -0.224942 0.525432 0.543628
v -0.251759 0.527476 0.539528
v -0.260851 0.522030 0.547355
v -0.244744 0.502651 0.551886
v -0.236096 0.510237 0.542662
v -0.223689 0.489023 0.558443
v -0.227169 0.495067 0.573190
v -0.245820 0.507119 0.565896
v -0.244744 0.502651 0.551886
v -0.227169 0.495067 0.573190
v -0.225385 0.513465 0.582905
v -0.238694 0.521023 0.576486
v -0.245820 0.507119 0.565896
v -0.225385 0.513465 0.582905
v -0.219381 0.533440 0.581898
v -0.227540 0.536219 0.577451
v -0.238694 0.521023 0.576486
v -0.219381 0.533440 0.581898
v -0.212675 0.543291 0.570758
v -0.218892 0.543804 0.568228
v -0.227540 0.536219 0.577451
v -0.218892 0.543804 0.568228
v -0.217816 0.539336 0.554218
v -0.209194 0.537247 0.556011
v -0.212675 0.543291 0.570758
v -0.217816 0.539336 0.554218
v -0.224942 0.525432 0.543628
v -0.210979 0.518849 0.546295
v -0.209194 0.537247 0.556011
v -0.224942 0.525432 0.543628
v -0.236096 0.510237 0.542662
v -0.216983 0.498874 0.547303
v -0.210979 0.518849 0.546295
v -0.236096 0.510237 0.542662
v -0.244744 0.502651 0.551886
v -0.223689 0.489023 0.558443
v -0.216983 0.498874 0.547303
v -0.188062 0.493917 0.572555
v -0.197939 0.499198 0.585680
v -0.227169 0.495067 0.573190
v -0.223689 0.489023 0.558443
v -0.197939 0.499198 0.585680
v -0.211686 0.516004 0.589732
v -0.225385 0.513465 0.582905
v -0.227169 0.495067 0.573190
v -0.211686 0.516004 0.589732
v -0.221250 0.534489 0.582339
v -0.219381 0.533440 0.581898
v -0.225385 0.513465 0.582905
v -0.219381 0.533440 0.581898
v -0.212675 0.543291 0.570758
v -0.221029 0.543825 0.567830
v -0.221250 0.534489 0.582339
v -0.221029 0.543825 0.567830
v -0.211152 0.538543 0.554706
v -0.209194 0.537247 0.556011
v -0.212675 0.543291 0.570758
v -0.209194 0.537247 0.556011
v -0.210979 0.518849 0.546295
v -0.197405 0.521738 0.550653
v -0.211152 0.538543 0.554706
v -0.210979 0.518849 0.546295
v -0.216983 0.498874 0.547303
v -0.187840 0.503253 0.558047
v -0.197405 0.521738 0.550653
v -0.216983 0.498874 0.547303
v -0.223689 0.489023 0.558443
v -0.188062 0.493917 0.572555
v -0.187840 0.503253 0.558047
v -0.174723 0.503162 0.578516
v -0.184176 0.508738 0.591829
v -0.197939 0.499198 0.585680
v -0.188062 0.493917 0.572555
v -0.184176 0.508738 0.591829
v -0.197574 0.525787 0.596036
v -0.211686 0.516004 0.589732
v -0.197939 0.499198 0.585680
v -0.197574 0.525787 0.596036
v -0.207067 0.544320 0.588672
v -0.221250 0.534489 0.582339
v -0.211686 0.516004 0.589732
v -0.207067 0.544320 0.588672
v -0.207095 0.553481 0.574051
v -0.221029 0.543825 0.567830
v -0.221250 0.534489 0.582339
v -0.221029 0.543825 0.567830
v -0.211152 0.538543 0.554706
v -0.197642 0.547905 0.560738
v -0.207095 0.553481 0.574051
v -0.211152 0.538543 0.554706
v -0.197405 0.521738 0.550653
v -0.184244 0.530857 0.556531
v -0.197642 0.547905 0.560738
v -0.197405 0.521738 0.550653
v -0.187840 0.503253 0.558047
v -0.174751 0.512323 0.563895
v -0.184244 0.530857 0.556531
v -0.187840 0.503253 0.558047
v -0.188062 0.493917 0.572555
v -0.174723 0.503162 0.578516
v -0.174751 0.512323 0.563895
v -0.161420 0.512058 0.583891
v -0.170439 0.517927 0.597379
v -0.184176 0.508738 0.591829
v -0.174723 0.503162 0.578516
v -0.170439 0.517927 0.597379
v -0.183462 0.535226 0.601735
v -0.197574 0.525787 0.596036
v -0.184176 0.508738 0.591829
v -0.183462 0.535226 0.601735
v -0.192859 0.553823 0.594407
v -0.207067 0.544320 0.588672
v -0.197574 0.525787 0.596036
v -0.192859 0.553823 0.594407
v -0.193126 0.562823 0.579689
v -0.207095 0.553481 0.574051
v -0.207067 0.544320 0.588672
v -0.207095 0.553481 0.574051
v -0.197642 0.547905 0.560738
v -0.184106 0.556955 0.566201
v -0.193126 0.562823 0.579689
v -0.197642 0.547905 0.560738
v -0.184244 0.530857 0.556531
v -0.171084 0.539655 0.561845
v -0.184106 0.556955 0.566201
v -0.184244 0.530857 0.556531
v -0.174751 0.512323 0.563895
v -0.161687 0.521058 0.569173
v -0.171084 0.539655 0.561845
v -0.174751 0.512323 0.563895
v -0.174723 0.503162 0.578516
v -0.161420 0.512058 0.583891
v -0.161687 0.521058 0.569173
v -0.148157 0.520593 0.588712
v -0.156731 0.526750 0.602361
v -0.170439 0.517927 0.597379
v -0.161420 0.512058 0.583891
v -0.156731 0.526750 0.602361
v -0.169349 0.544309 0.606862
v -0.183462 0.535226 0.601735
v -0.170439 0.517927 0.597379
v -0.169349 0.544309 0.606862
v -0.178622 0.562986 0.599577
v -0.192859 0.553823 0.594407
v -0.183462 0.535226 0.601735
v -0.178622 0.562986 0.599577
v -0.179116 0.571838 0.584775
v -0.193126 0.562823 0.579689
v -0.192859 0.553823 0.594407
v -0.193126 0.562823 0.579689
v -0.184106 0.556955 0.566201
v -0.170542 0.565681 0.571127
v -0.179116 0.571838 0.584775
v -0.184106 0.556955 0.566201
v -0.171084 0.539655 0.561845
v -0.157923 0.548121 0.566626
v -0.170542 0.565681 0.571127
v -0.171084 0.539655 0.561845
v -0.161687 0.521058 0.569173
v -0.148651 0.529445 0.573910
v -0.157923 0.548121 0.566626
v -0.161687 0.521058 0.569173
v -0.161420 0.512058 0.583891
v -0.148157 0.520593 0.588712
v -0.148651 0.529445 0.573910
v -0.134939 0.528752 0.593009
v -0.143053 0.535193 0.606806
v -0.156731 0.526750 0.602361
v -0.148157 0.520593 0.588712
v -0.143053 0.535193 0.606806
v -0.155237 0.553022 0.611446
v -0.169349 0.544309 0.606862
v -0.156731 0.526750 0.602361
v -0.155237 0.553022 0.611446
v -0.164353 0.571793 0.604210
v -0.178622 0.562986 0.599577
v -0.169349 0.544309 0.606862
v -0.164353 0.571793 0.604210
v -0.165061 0.580512 0.589338
v -0.179116 0.571838 0.584775
v -0.178622 0.562986 0.599577
v -0.179116 0.571838 0.584775
v -0.170542 0.565681 0.571127
v -0.156947 0.574070 0.575541
v -0.165061 0.580512 0.589338
v -0.170542 0.565681 0.571127
v -0.157923 0.548121 0.566626
v -0.144763 0.556242 0.570901
v -0.156947 0.574070 0.575541
v -0.157923 0.548121 0.566626
v -0.148651 0.529445 0.573910
v -0.135647 0.537470 0.578136
v -0.144763 0.556242 0.570901
v -0.148651 0.529445 0.573910
v -0.148157 0.520593 0.588712
v -0.134939 0.528752 0.593009
v -0.135647 0.537470 0.578136
v -0.120885 0.534933 0.596912
v -0.128990 0.542063 0.611690
v -0.143053 0.535193 0.606806
v -0.134939 0.528752 0.593009
v -0.128990 0.542063 0.611690
v -0.141413 0.561266 0.616752
v -0.155237 0.553022 0.611446
v -0.143053 0.535193 0.606806
v -0.141413 0.561266 0.616752
v -0.150879 0.581294 0.609134
v -0.164353 0.571793 0.604210
v -0.155237 0.553022 0.611446
v -0.150879 0.581294 0.609134
v -0.151842 0.590415 0.593298
v -0.165061 0.580512 0.589338
v -0.164353 0.571793 0.604210
v -0.165061 0.580512 0.589338
v -0.156947 0.574070 0.575541
v -0.143738 0.583285 0.578521
v -0.151842 0.590415 0.593298
v -0.156947 0.574070 0.575541
v -0.144763 0.556242 0.570901
v -0.131314 0.564081 0.573458
v -0.143738 0.583285 0.578521
v -0.144763 0.556242 0.570901
v -0.135647 0.537470 0.578136
v -0.121848 0.544053 0.581076
v -0.131314 0.564081 0.573458
v -0.135647 0.537470 0.578136
v -0.134939 0.528752 0.593009
v -0.120885 0.534933 0.596912
v -0.121848 0.544053 0.581076
v -0.106952 0.540668 0.600328
v -0.114970 0.548515 0.616089
v -0.128990 0.542063 0.611690
v -0.120885 0.534933 0.596912
v -0.114970 0.548515 0.616089
v -0.127532 0.569137 0.621583
v -0.141413 0.561266 0.616752
v -0.128990 0.542063 0.611690
v -0.127532 0.569137 0.621583
v -0.137279 0.590454 0.613594
v -0.150879 0.581294 0.609134
v -0.141413 0.561266 0.616752
v -0.137279 0.590454 0.613594
v -0.138503 0.599978 0.596800
v -0.151842 0.590415 0.593298
v -0.150879 0.581294 0.609134
v -0.151842 0.590415 0.593298
v -0.143738 0.583285 0.578521
v -0.130485 0.592131 0.581039
v -0.138503 0.599978 0.596800
v -0.143738 0.583285 0.578521
v -0.131314 0.564081 0.573458
v -0.117923 0.571510 0.575544
v -0.130485 0.592131 0.581039
v -0.131314 0.564081 0.573458
v -0.121848 0.544053 0.581076
v -0.108175 0.550193 0.583534
v -0.117923 0.571510 0.575544
v -0.121848 0.544053 0.581076
v -0.120885 0.534933 0.596912
v -0.106952 0.540668 0.600328
v -0.108175 0.550193 0.583534
v -0.093159 0.545932 0.603282
v -0.101008 0.554523 0.620026
v -0.114970 0.548515 0.616089
v -0.106952 0.540668 0.600328
v -0.101008 0.554523 0.620026
v -0.113593 0.576609 0.625960
v -0.127532 0.569137 0.621583
v -0.114970 0.548515 0.616089
v -0.113593 0.576609 0.625960
v -0.123540 0.599251 0.617609
v -0.137279 0.590454 0.613594
v -0.127532 0.569137 0.621583
v -0.123540 0.599251 0.617609
v -0.125023 0.609185 0.599863
v -0.138503 0.599978 0.596800
v -0.137279 0.590454 0.613594
v -0.138503 0.599978 0.596800
v -0.130485 0.592131 0.581039
v -0.117174 0.600594 0.583119
v -0.125023 0.609185 0.599863
v -0.130485 0.592131 0.581039
v -0.117923 0.571510 0.575544
v -0.104589 0.578508 0.577184
v -0.117174 0.600594 0.583119
v -0.117923 0.571510 0.575544
v -0.108175 0.550193 0.583534
v -0.094642 0.555866 0.585536
v -0.104589 0.578508 0.577184
v -0.108175 0.550193 0.583534
v -0.106952 0.540668 0.600328
v -0.093159 0.545932 0.603282
v -0.094642 0.555866 0.585536
v -0.079531 0.550695 0.605796
v -0.087123 0.560058 0.623523
v -0.101008 0.554523 0.620026
v -0.093159 0.545932 0.603282
v -0.087123 0.560058 0.623523
v -0.099596 0.583653 0.629902
v -0.113593 0.576609 0.625960
v -0.101008 0.554523 0.620026
v -0.099596 0.583653 0.629902
v -0.109642 0.607660 0.621198
v -0.123540 0.599251 0.617609
v -0.113593 0.576609 0.625960
v -0.109642 0.607660 0.621198
v -0.111378 0.618014 0.602507
v -0.125023 0.609185 0.599863
v -0.123540 0.599251 0.617609
v -0.125023 0.609185 0.599863
v -0.117174 0.600594 0.583119
v -0.103786 0.608651 0.584781
v -0.111378 0.618014 0.602507
v -0.117174 0.600594 0.583119
v -0.104589 0.578508 0.577184
v -0.091314 0.585056 0.578401
v -0.103786 0.608651 0.584781
v -0.104589 0.578508 0.577184
v -0.094642 0.555866 0.585536
v -0.081267 0.561049 0.587106
v -0.091314 0.585056 0.578401
v -0.094642 0.555866 0.585536
v -0.093159 0.545932 0.603282
v -0.079531 0.550695 0.605796
v -0.081267 0.561049 0.587106
v -0.066103 0.554923 0.607893
v -0.073338 0.565081 0.626600
v -0.087123 0.560058 0.623523
v -0.079531 0.550695 0.605796
v -0.073338 0.565081 0.626600
v -0.085541 0.590236 0.633428
v -0.099596 0.583653 0.629902
v -0.087123 0.560058 0.623523
v -0.085541 0.590236 0.633428
v -0.095563 0.615651 0.624378
v -0.109642 0.607660 0.621198
v -0.099596 0.583653 0.629902
v -0.095563 0.615651 0.624378
v -0.097534 0.626439 0.604751
v -0.111378 0.618014 0.602507
v -0.109642 0.607660 0.621198
v -0.111378 0.618014 0.602507
v -0.103786 0.608651 0.584781
v -0.090298 0.616281 0.586045
v -0.097534 0.626439 0.604751
v -0.103786 0.608651 0.584781
v -0.091314 0.585056 0.578401
v -0.078096 0.591126 0.579217
v -0.090298 0.616281 0.586045
v -0.091314 0.585056 0.578401
v -0.081267 0.561049 0.587106
v -0.068073 0.565711 0.588267
v -0.078096 0.591126 0.579217
v -0.081267 0.561049 0.587106
v -0.079531 0.550695 0.605796
v -0.066103 0.554923 0.607893
v -0.068073 0.565711 0.588267
v -0.052920 0.558574 0.609596
v -0.059686 0.569550 0.629277
v -0.073338 0.565081 0.626600
v -0.066103 0.554923 0.607893
v -0.059686 0.569550 0.629277
v -0.071428 0.596313 0.636554
v -0.085541 0.590236 0.633428
v -0.073338 0.565081 0.626600
v -0.071428 0.596313 0.636554
v -0.081269 0.623186 0.627166
v -0.095563 0.615651 0.624378
v -0.085541 0.590236 0.633428
v -0.081269 0.623186 0.627166
v -0.083444 0.634426 0.606610
v -0.097534 0.626439 0.604751
v -0.095563 0.615651 0.624378
v -0.097534 0.626439 0.604751
v -0.090298 0.616281 0.586045
v -0.076678 0.623450 0.586930
v -0.083444 0.634426 0.606610
v -0.090298 0.616281 0.586045
v -0.078096 0.591126 0.579217
v -0.064935 0.596686 0.579652
v -0.076678 0.623450 0.586930
v -0.078096 0.591126 0.579217
v -0.068073 0.565711 0.588267
v -0.055095 0.569814 0.589041
v -0.064935 0.596686 0.579652
v -0.068073 0.565711 0.588267
v -0.066103 0.554923 0.607893
v -0.052920 0.558574 0.609596
v -0.055095 0.569814 0.589041
v -0.040050 0.561594 0.610926
v -0.046214 0.573408 0.631574
v -0.059686 0.569550 0.629277
v -0.052920 0.558574 0.609596
v -0.046214 0.573408 0.631574
v -0.057258 0.601832 0.639299
v -0.071428 0.596313 0.636554
v -0.059686 0.569550 0.629277
v -0.057258 0.601832 0.639299
v -0.066713 0.630215 0.629575
v -0.081269 0.623186 0.627166
v -0.071428 0.596313 0.636554
v -0.066713 0.630215 0.629575
v -0.069041 0.641931 0.608100
v -0.083444 0.634426 0.606610
v -0.081269 0.623186 0.627166
v -0.083444 0.634426 0.606610
v -0.076678 0.623450 0.586930
v -0.062877 0.630117 0.587452
v -0.069041 0.641931 0.608100
v -0.076678 0.623450 0.586930
v -0.064935 0.596686 0.579652
v -0.051833 0.601693 0.579727
v -0.062877 0.630117 0.587452
v -0.064935 0.596686 0.579652
v -0.055095 0.569814 0.589041
v -0.042378 0.573310 0.589451
v -0.051833 0.601693 0.579727
v -0.055095 0.569814 0.589041
v -0.052920 0.558574 0.609596
v -0.040050 0.561594 0.610926
v -0.042378 0.573310 0.589451
v -0.027601 0.563912 0.611907
v -0.032998 0.576580 0.633512
v -0.046214 0.573408 0.631574
v -0.040050 0.561594 0.610926
v -0.032998 0.576580 0.633512
v -0.043030 0.606717 0.641678
v -0.057258 0.601832 0.639299
v -0.046214 0.573408 0.631574
v -0.043030 0.606717 0.641678
v -0.051819 0.636669 0.631621
v -0.066713 0.630215 0.629575
v -0.057258 0.601832 0.639299
v -0.051819 0.636669 0.631621
v -0.054218 0.648892 0.609232
v -0.069041 0.641931 0.608100
v -0.066713 0.630215 0.629575
v -0.069041 0.641931 0.608100
v -0.062877 0.630117 0.587452
v -0.048820 0.636224 0.587627
v -0.054218 0.648892 0.609232
v -0.062877 0.630117 0.587452
v -0.051833 0.601693 0.579727
v -0.038789 0.606087 0.579461
v -0.048820 0.636224 0.587627
v -0.051833 0.601693 0.579727
v -0.042378 0.573310 0.589451
v -0.029999 0.576134 0.589518
v -0.038789 0.606087 0.579461
v -0.042378 0.573310 0.589451
v -0.040050 0.561594 0.610926
v -0.027601 0.563912 0.611907
v -0.029999 0.576134 0.589518
v -0.015768 0.565424 0.612562
v -0.020178 0.578956 0.635112
v -0.032998 0.576580 0.633512
v -0.027601 0.563912 0.611907
v -0.020178 0.578956 0.635112
v -0.028744 0.610861 0.643708
v -0.043030 0.606717 0.641678
v -0.032998 0.576580 0.633512
v -0.028744 0.610861 0.643708
v -0.036448 0.642448 0.633314
v -0.051819 0.636669 0.631621
v -0.043030 0.606717 0.641678
v -0.036448 0.642448 0.633314
v -0.038777 0.655215 0.610020
v -0.054218 0.648892 0.609232
v -0.051819 0.636669 0.631621
v -0.054218 0.648892 0.609232
v -0.048820 0.636224 0.587627
v -0.034368 0.641683 0.587470
v -0.038777 0.655215 0.610020
v -0.048820 0.636224 0.587627
v -0.038789 0.606087 0.579461
v -0.025802 0.609779 0.578874
v -0.034368 0.641683 0.587470
v -0.038789 0.606087 0.579461
v -0.029999 0.576134 0.589518
v -0.018098 0.578191 0.589268
v -0.025802 0.609779 0.578874
v -0.029999 0.576134 0.589518
v -0.027601 0.563912 0.611907
v -0.015768 0.565424 0.612562
v -0.018098 0.578191 0.589268
v -0.005033 0.565954 0.612922
v -0.008093 0.580353 0.636400
v -0.020178 0.578956 0.635112
v -0.015768 0.565424 0.612562
v -0.008093 0.580353 0.636400
v -0.014400 0.614079 0.645407
v -0.028744 0.610861 0.643708
v -0.020178 0.578956 0.635112
v -0.014400 0.614079 0.645407
v -0.020259 0.647375 0.634667
v -0.036448 0.642448 0.633314
v -0.028744 0.610861 0.643708
v -0.020259 0.647375 0.634667
v -0.022239 0.660737 0.610471
v -0.038777 0.655215 0.610020
v -0.036448 0.642448 0.633314
v -0.038777 0.655215 0.610020
v -0.034368 0.641683 0.587470
v -0.019180 0.646338 0.586993
v -0.022239 0.660737 0.610471
v -0.034368 0.641683 0.587470
v -0.025802 0.609779 0.578874
v -0.012873 0.612612 0.577986
v -0.019180 0.646338 0.586993
v -0.025802 0.609779 0.578874
v -0.018098 0.578191 0.589268
v -0.007013 0.579316 0.588726
v -0.012873 0.612612 0.577986
v -0.018098 0.578191 0.589268
v -0.015768 0.565424 0.612562
v -0.005033 0.565954 0.612922
v -0.007013 0.579316 0.588726
v 0.000000 0.565015 0.613038
v 0.000000 0.580262 0.637420
v -0.008093 0.580353 0.636400
v -0.005033 0.565954 0.612922
v 0.000000 0.580262 0.637420
v 0.000000 0.615858 0.646802
v -0.014400 0.614079 0.645407
v -0.008093 0.580353 0.636400
v 0.000000 0.615858 0.646802
v 0.000000 0.650951 0.635687
v -0.020259 0.647375 0.634667
v -0.014400 0.614079 0.645407
v 0.000000 0.650951 0.635687
v 0.000000 0.664985 0.610587
v -0.022239 0.660737 0.610471
v -0.020259 0.647375 0.634667
v -0.022239 0.660737 0.610471
v -0.019180 0.646338 0.586993
v 0.000000 0.649738 0.586205
v 0.000000 0.664985 0.610587
v -0.019180 0.646338 0.586993
v -0.012873 0.612612 0.577986
v 0.000000 0.614142 0.576823
v 0.000000 0.649738 0.586205
v -0.012873 0.612612 0.577986
v -0.007013 0.579316 0.588726
v 0.000000 0.579049 0.587938
v 0.000000 0.614142 0.576823
v -0.007013 0.579316 0.588726
v -0.005033 0.565954 0.612922
v 0.000000 0.565015 0.613038
v 0.000000 0.579049 0.587938
v 0.005033 0.565954 0.612922
v 0.008093 0.580353 0.636400
v 0.000000 0.580262 0.637420
v 0.000000 0.565015 0.613038
v 0.008093 0.580353 0.636400
v 0.014400 0.614079 0.645407
v 0.000000 0.615858 0.646802
v 0.000000 0.580262 0.637420
v 0.014400 0.614079 0.645407
v 0.020259 0.647375 0.634667
v 0.000000 0.650951 0.635687
v 0.000000 0.615858 0.646802
v 0.020259 0.647375 0.634667
v 0.022239 0.660737 0.610471
v 0.000000 0.664985 0.610587
v 0.000000 0.650951 0.635687
v 0.000000 0.664985 0.610587
v 0.000000 0.649738 0.586205
v 0.019180 0.646338 0.586993
v 0.022239 0.660737 0.610471
v 0.000000 0.649738 0.586205
v 0.000000 0.614142 0.576823
v 0.012873 0.612612 0.577986
v 0.019180 0.646338 0.586993
v 0.000000 0.614142 0.576823
v 0.000000 0.579049 0.587938
v 0.007013 0.579316 0.588726
v 0.012873 0.612612 0.577986
v 0.000000 0.579049 0.587938
v 0.000000 0.565015 0.613038
v 0.005033 0.565954 0.612922
v 0.007013 0.579316 0.588726
v 0.015768 0.565424 0.612562
v 0.020178 0.578956 0.635112
v 0.008093 0.580353 0.636400
v 0.005033 0.565954 0.612922
v 0.020178 0.578956 0.635112
v 0.028744 0.610861 0.643708
v 0.014400 0.614079 0.645407
v 0.008093 0.580353 0.636400
v 0.028744 0.610861 0.643708
v 0.036448 0.642448 0.633314
v 0.020259 0.647375 0.634667
v 0.014400 0.614079 0.645407
v 0.036448 0.642448 0.633314
v 0.038777 0.655215 0.610020
v 0.022239 0.660737 0.610471
v 0.020259 0.647375 0.634667
v 0.022239 0.660737 0.610471
v 0.019180 0.646338 0.586993
v 0.034368 0.641683 0.587470
v 0.038777 0.655215 0.610020
v 0.019180 0.646338 0.586993
v 0.012873 0.612612 0.577986
v 0.025802 0.609779 0.578874
v 0.034368 0.641683 0.587470
v 0.012873 0.612612 0.577986
v 0.007013 0.579316 0.588726
v 0.018098 0.578191 0.589268
v 0.025802 0.609779 0.578874
v 0.007013 0.579316 0.588726
v 0.005033 0.565954 0.612922
v 0.015768 0.565424 0.612562
v 0.018098 0.578191 0.589268
v 0.027601 0.563912 0.611907
v 0.032998 0.576580 0.633512
v 0.020178 0.578956 0.635112
v 0.015768 0.565424 0.612562
v 0.032998 0.576580 0.633512
v 0.043030 0.606717 0.641678
v 0.028744 0.610861 0.643708
v 0.020178 0.578956 0.635112
v 0.043030 0.606717 0.641678
v 0.051819 0.636669 0.631621
v 0.036448 0.642448 0.633314
v 0.028744 0.610861 0.643708
v 0.051819 0.636669 0.631621
v 0.054218 0.648892 0.609232
v 0.038777 0.655215 0.610020
v 0.036448 0.642448 0.633314
v 0.038777 0.655215 0.610020
v 0.034368 0.641683 0.587470
v 0.048820 0.636224 0.587627
v 0.054218 0.648892 0.609232
v 0.034368 0.641683 0.587470
v 0.025802 0.609779 0.578874
v 0.038789 0.606087 0.579461
v 0.048820 0.636224 0.587627
v 0.025802 0.609779 0.578874
v 0.018098 0.578191 0.589268
v 0.029999 0.576134 0.589518
v 0.038789 0.606087 0.579461
v 0.018098 0.578191 0.589268
v 0.015768 0.565424 0.612562
v 0.027601 0.563912 0.611907
v 0.029999 0.576134 0.589518
v 0.040050 0.561594 0.610926
v 0.046214 0.573408 0.631574
v 0.032998 0.576580 0.633512
v 0.027601 0.563912 0.611907
v 0.046214 0.573408 0.631574
v 0.057258 0.601832 0.639299
v 0.043030 0.606717 0.641678
v 0.032998 0.576580 0.633512
v 0.057258 0.601832 0.639299
v 0.066713 0.630215 0.629575
v 0.051819 0.636669 0.631621
v 0.043030 0.606717 0.641678
v 0.066713 0.630215 0.629575
v 0.069041 0.641931 0.608100
v 0.054218 0.648892 0.609232
v 0.051819 0.636669 0.631621
v 0.054218 0.648892 0.609232
v 0.048820 0.636224 0.587627
v 0.062877 0.630117 0.587452
v 0.069041 0.641931 0.608100
v 0.048820 0.636224 0.587627
v 0.038789 0.606087 0.579461
v 0.051833 0.601693 0.579727
v 0.062877 0.630117 0.587452
v 0.038789 0.606087 0.579461
v 0.029999 0.576134 0.589518
v 0.042378 0.573310 0.589451
v 0.051833 0.601693 0.579727
v 0.029999 0.576134 0.589518
v 0.027601 0.563912 0.611907
v 0.040050 0.561594 0.610926
v 0.042378 0.573310 0.589451
v 0.052920 0.558574 0.609596
v 0.059686 0.569550 0.629277
v 0.046214 0.573408 0.631574
v 0.040050 0.561594 0.610926
v 0.059686 0.569550 0.629277
v 0.071428 0.596313 0.636554
v 0.057258 0.601832 0.639299
v 0.046214 0.573408 0.631574
v 0.071428 0.596313 0.636554
v 0.081269 0.623186 0.627166
v 0.066713 0.630215 0.629575
v 0.057258 0.601832 0.639299
v 0.081269 0.623186 0.627166
v 0.083444 0.634426 0.606610
v 0.069041 0.641931 0.608100
v 0.066713 0.630215 0.629575
v 0.069041 0.641931 0.608100
v 0.062877 0.630117 0.587452
v 0.076678 0.623450 0.586930
v 0.083444 0.634426 0.606610
v 0.062877 0.630117 0.587452
v 0.051833 0.601693 0.579727
v 0.064935 0.596686 0.579652
v 0.076678 0.623450 0.586930
v 0.051833 0.601693 0.579727
v 0.042378 0.573310 0.589451
v 0.055095 0.569814 0.589041
v 0.064935 0.596686 0.579652
v 0.042378 0.573310 0.589451
v 0.040050 0.561594 0.610926
v 0.052920 0.558574 0.609596
v 0.055095 0.569814 0.589041
v 0.066103 0.554923 0.607893
v 0.073338 0.565081 0.626600
v 0.059686 0.569550 0.629277
v 0.052920 0.558574 0.609596
v 0.073338 0.565081 0.626600
v 0.085541 0.590236 0.633428
v 0.071428 0.596313 0.636554
v 0.059686 0.569550 0.629277
v 0.085541 0.590236 0.633428
v 0.095563 0.615651 0.624378
v 0.081269 0.623186 0.627166
v 0.071428 0.596313 0.636554
v 0.095563 0.615651 0.624378
v 0.097534 0.626439 0.604751
v 0.083444 0.634426 0.606610
v 0.081269 0.623186 0.627166
v 0.083444 0.634426 0.606610
v 0.076678 0.623450 0.586930
v 0.090298 0.616281 0.586045
v 0.097534 0.626439 0.604751
v 0.076678 0.623450 0.586930
v 0.064935 0.596686 0.579652
v 0.078096 0.591126 0.579217
v 0.090298 0.616281 0.586045
v 0.064935 0.596686 0.579652
v 0.055095 0.569814 0.589041
v 0.068073 0.565711 0.588267
v 0.078096 0.591126 0.579217
v 0.055095 0.569814 0.589041
v 0.052920 0.558574 0.609596
v 0.066103 0.554923 0.607893
v 0.068073 0.565711 0.588267
v 0.079531 0.550695 0.605796
v 0.087123 0.560058 0.623523
v 0.073338 0.565081 0.626600
v 0.066103 0.554923 0.607893
v 0.087123 0.560058 0.623523
v 0.099596 0.583653 0.629902
v 0.085541 0.590236 0.633428
v 0.073338 0.565081 0.626600
v 0.099596 0.583653 0.629902
v 0.109642 0.607660 0.621198
v 0.095563 0.615651 0.624378
v 0.085541 0.590236 0.633428
v 0.109642 0.607660 0.621198
v 0.111378 0.618014 0.602507
v 0.097534 0.626439 0.604751
v 0.095563 0.615651 0.624378
v 0.097534 0.626439 0.604751
v 0.090298 0.616281 0.586045
v 0.103786 0.608651 0.584781
v 0.111378 0.618014 0.602507
v 0.090298 0.616281 0.586045
v 0.078096 0.591126 0.579217
v 0.091314 0.585056 0.578401
v 0.103786 0.608651 0.584781
v 0.078096 0.591126 0.579217
v 0.068073 0.565711 0.588267
v 0.081267 0.561049 0.587106
v 0.091314 0.585056 0.578401
v 0.068073 0.565711 0.588267
v 0.066103 0.554923 0.607893
v 0.079531 0.550695 0.605796
v 0.081267 0.561049 0.587106
v 0.093159 0.545932 0.603282
v 0.101008 0.554523 0.620026
v 0.087123 0.560058 0.623523
v 0.079531 0.550695 0.605796
v 0.101008 0.554523 0.620026
v 0.113593 0.576609 0.625960
v 0.099596 0.583653 0.629902
v 0.087123 0.560058 0.623523
v 0.113593 0.576609 0.625960
v 0.123540 0.599251 0.617609
v 0.109642 0.607660 0.621198
v 0.099596 0.583653 0.629902
v 0.123540 0.599251 0.617609
v 0.125023 0.609185 0.599863
v 0.111378 0.618014 0.602507
v 0.109642 0.607660 0.621198
v 0.111378 0.618014 0.602507
v 0.103786 0.608651 0.584781
v 0.117174 0.600594 0.583119
v 0.125023 0.609185 0.599863
v 0.103786 0.608651 0.584781
v 0.091314 0.585056 0.578401
v 0.104589 0.578508 0.577184
v 0.117174 0.600594 0.583119
v 0.091314 0.585056 0.578401
v 0.081267 0.561049 0.587106
v 0.094642 0.555866 0.585536
v 0.104589 0.578508 0.577184
v 0.081267 0.561049 0.587106
v 0.079531 0.550695 0.605796
v 0.093159 0.545932 0.603282
v 0.094642 0.555866 0.585536
v 0.106952 0.540668 0.600328
v 0.114970 0.548515 0.616089
v 0.101008 0.554523 0.620026
v 0.093159 0.545932 0.603282
v 0.114970 0.548515 0.616089
v 0.127532 0.569137 0.621583
v 0.113593 0.576609 0.625960
v 0.101008 0.554523 0.620026
v 0.127532 0.569137 0.621583
v 0.137279 0.590454 0.613594
v 0.123540 0.599251 0.617609
v 0.113593 0.576609 0.625960
v 0.137279 0.590454 0.613594
v 0.138503 0.599978 0.596800
v 0.125023 0.609185 0.599863
v 0.123540 0.599251 0.617609
v 0.125023 0.609185 0.599863
v 0.117174 0.600594 0.583119
v 0.130485 0.592131 0.581039
v 0.138503 0.599978 0.596800
v 0.117174 0.600594 0.583119
v 0.104589 0.578508 0.577184
v 0.117923 0.571510 0.575544
v 0.130485 0.592131 0.581039
v 0.104589 0.578508 0.577184
v 0.094642 0.555866 0.585536
v 0.108175 0.550193 0.583534
v 0.117923 0.571510 0.575544
v 0.094642 0.555866 0.585536
v 0.093159 0.545932 0.603282
v 0.106952 0.540668 0.600328
v 0.108175 0.550193 0.583534
v 0.120885 0.534933 0.596912
v 0.128990 0.542063 0.611690
v 0.114970 0.548515 0.616089
v 0.106952 0.540668 0.600328
v 0.128990 0.542063 0.611690
v 0.141413 0.561266 0.616752
v 0.127532 0.569137 0.621583
v 0.114970 0.548515 0.616089
v 0.141413 0.561266 0.616752
v 0.150879 0.581294 0.609134
v 0.137279 0.590454 0.613594
v 0.127532 0.569137 0.621583
v 0.150879 0.581294 0.609134
v 0.151842 0.590415 0.593298
v 0.138503 0.599978 0.596800
v 0.137279 0.590454 0.613594
v 0.138503 0.599978 0.596800
v 0.130485 0.592131 0.581039
v 0.143738 0.583285 0.578521
v 0.151842 0.590415 0.593298
v 0.130485 0.592131 0.581039
v 0.117923 0.571510 0.575544
v 0.131314 0.564081 0.573458
v 0.143738 0.583285 0.578521
v 0.117923 0.571510 0.575544
v 0.108175 0.550193 0.583534
v 0.121848 0.544053 0.581076
v 0.131314 0.564081 0.573458
v 0.108175 0.550193 0.583534
v 0.106952 0.540668 0.600328
v 0.120885 0.534933 0.596912
v 0.121848 0.544053 0.581076
v 0.134939 0.528752 0.593009
v 0.143053 0.535193 0.606806
v 0.128990 0.542063 0.611690
v 0.120885 0.534933 0.596912
v 0.143053 0.535193 0.606806
v 0.155237 0.553022 0.611446
v 0.141413 0.561266 0.616752
v 0.128990 0.542063 0.611690
v 0.155237 0.553022 0.611446
v 0.164353 0.571793 0.604210
v 0.150879 0.581294 0.609134
v 0.141413 0.561266 0.616752
v 0.164353 0.571793 0.604210
v 0.165061 0.580512 0.589338
v 0.151842 0.590415 0.593298
v 0.150879 0.581294 0.609134
v 0.151842 0.590415 0.593298
v 0.143738 0.583285 0.578521
v 0.156947 0.574070 0.575541
v 0.165061 0.580512 0.589338
v 0.143738 0.583285 0.578521
v 0.131314 0.564081 0.573458
v 0.144763 0.556242 0.570901
v 0.156947 0.574070 0.575541
v 0.131314 0.564081 0.573458
v 0.121848 0.544053 0.581076
v 0.135647 0.537470 0.578136
v 0.144763 0.556242 0.570901
v 0.121848 0.544053 0.581076
v 0.120885 0.534933 0.596912
v 0.134939 0.528752 0.593009
v 0.135647 0.537470 0.578136
v 0.148157 0.520593 0.588712
v 0.156731 0.526750 0.602361
v 0.143053 0.535193 0.606806
v 0.134939 0.528752 0.593009
v 0.156731 0.526750 0.602361
v 0.169349 0.544309 0.606862
v 0.155237 0.553022 0.611446
v 0.143053 0.535193 0.606806
v 0.169349 0.544309 0.606862
v 0.178622 0.562986 0.599577
v 0.164353 0.571793 0.604210
v 0.155237 0.553022 0.611446
v 0.178622 0.562986 0.599577
v 0.179116 0.571838 0.584775
v 0.165061 0.580512 0.589338
v 0.164353 0.571793 0.604210
v 0.165061 0.580512 0.589338
v 0.156947 0.574070 0.575541
v 0.170542 0.565681 0.571127
v 0.179116 0.571838 0.584775
v 0.156947 0.574070 0.575541
v 0.144763 0.556242 0.570901
v 0.157923 0.548121 0.566626
v 0.170542 0.565681 0.571127
v 0.144763 0.556242 0.570901
v 0.135647 0.537470 0.578136
v 0.148651 0.529445 0.573910
v 0.157923 0.548121 0.566626
v 0.135647 0.537470 0.578136
v 0.134939 0.528752 0.593009
v 0.148157 0.520593 0.588712
v 0.148651 0.529445 0.573910
v 0.161420 0.512058 0.583891
v 0.170439 0.517927 0.597379
v 0.156731 0.526750 0.602361
v 0.148157 0.520593 0.588712
v 0.170439 0.517927 0.597379
v 0.183462 0.535226 0.601735
v 0.169349 0.544309 0.606862
v 0.156731 0.526750 0.602361
v 0.183462 0.535226 0.601735
v 0.192859 0.553823 0.594407
v 0.178622 0.562986 0.599577
v 0.169349 0.544309 0.606862
v 0.192859 0.553823 0.594407
v 0.193126 0.562823 0.579689
v 0.179116 0.571838 0.584775
v 0.178622 0.562986 0.599577
v 0.179116 0.571838 0.584775
v 0.170542 0.565681 0.571127
v 0.184106 0.556955 0.566201
v 0.193126 0.562823 0.579689
v 0.170542 0.565681 0.571127
v 0.157923 0.548121 0.566626
v 0.171084 0.539655 0.561845
v 0.184106 0.556955 0.566201
v 0.157923 0.548121 0.566626
v 0.148651 0.529445 0.573910
v 0.161687 0.521058 0.569173
v 0.171084 0.539655 0.561845
v 0.148651 0.529445 0.573910
v 0.148157 0.520593 0.588712
v 0.161420 0.512058 0.583891
v 0.161687 0.521058 0.569173
v 0.174723 0.503162 0.578516
v 0.184176 0.508738 0.591829
v 0.170439 0.517927 0.597379
v 0.161420 0.512058 0.583891
v 0.184176 0.508738 0.591829
v 0.197574 0.525787 0.596036
v 0.183462 0.535226 0.601735
v 0.170439 0.517927 0.597379
v 0.197574 0.525787 0.596036
v 0.207067 0.544320 0.588672
v 0.192859 0.553823 0.594407
v 0.183462 0.535226 0.601735
v 0.207067 0.544320 0.588672
v 0.207095 0.553481 0.574051
v 0.193126 0.562823 0.579689
v 0.192859 0.553823 0.594407
v 0.193126 0.562823 0.579689
v 0.184106 0.556955 0.566201
v 0.197642 0.547905 0.560738
v 0.207095 0.553481 0.574051
v 0.184106 0.556955 0.566201
v 0.171084 0.539655 0.561845
v 0.184244 0.530857 0.556531
v 0.197642 0.547905 0.560738
v 0.171084 0.539655 0.561845
v 0.161687 0.521058 0.569173
v 0.174751 0.512323 0.563895
v 0.184244 0.530857 0.556531
v 0.161687 0.521058 0.569173
v 0.161420 0.512058 0.583891
v 0.174723 0.503162 0.578516
v 0.174751 0.512323 0.563895
v 0.188062 0.493917 0.572555
v 0.197939 0.499198 0.585680
v 0.184176 0.508738 0.591829
v 0.174723 0.503162 0.578516
v 0.197939 0.499198 0.585680
v 0.211686 0.516004 0.589732
v 0.197574 0.525787 0.596036
v 0.184176 0.508738 0.591829
v 0.211686 0.516004 0.589732
v 0.221250 0.534489 0.582339
v 0.207067 0.544320 0.588672
v 0.197574 0.525787 0.596036
v 0.221250 0.534489 0.582339
v 0.221029 0.543825 0.567830
v 0.207095 0.553481 0.574051
v 0.207067 0.544320 0.588672
v 0.207095 0.553481 0.574051
v 0.197642 0.547905 0.560738
v 0.211152 0.538543 0.554706
v 0.221029 0.543825 0.567830
v 0.197642 0.547905 0.560738
v 0.184244 0.530857 0.556531
v 0.197405 0.521738 0.550653
v 0.211152 0.538543 0.554706
v 0.184244 0.530857 0.556531
v 0.174751 0.512323 0.563895
v 0.187840 0.503253 0.558047
v 0.197405 0.521738 0.550653
v 0.174751 0.512323 0.563895
v 0.174723 0.503162 0.578516
v 0.188062 0.493917 0.572555
v 0.187840 0.503253 0.558047
v 0.223689 0.489023 0.558443
v 0.227169 0.495067 0.573190
v 0.197939 0.499198 0.585680
v 0.188062 0.493917 0.572555
v 0.227169 0.495067 0.573190
v 0.225385 0.513465 0.582905
v 0.211686 0.516004 0.589732
v 0.197939 0.499198 0.585680
v 0.225385 0.513465 0.582905
v 0.219381 0.533440 0.581898
v 0.221250 0.534489 0.582339
v 0.211686 0.516004 0.589732
v 0.221250 0.534489 0.582339
v 0.221029 0.543825 0.567830
v 0.212675 0.543291 0.570758
v 0.219381 0.533440 0.581898
v 0.212675 0.543291 0.570758
v 0.209194 0.537247 0.556011
v 0.211152 0.538543 0.554706
v 0.221029 0.543825 0.567830
v 0.211152 0.538543 0.554706
v 0.197405 0.521738 0.550653
v 0.210979 0.518849 0.546295
v 0.209194 0.537247 0.556011
v 0.197405 0.521738 0.550653
v 0.187840 0.503253 0.558047
v 0.216983 0.498874 0.547303
v 0.210979 0.518849 0.546295
v 0.187840 0.503253 0.558047
v 0.188062 0.493917 0.572555
v 0.223689 0.489023 0.558443
v 0.216983 0.498874 0.547303
v 0.244744 0.502651 0.551886
v 0.245820 0.507119 0.565896
v 0.227169 0.495067 0.573190
v 0.223689 0.489023 0.558443
v 0.245820 0.507119 0.565896
v 0.238694 0.521023 0.576486
v 0.225385 0.513465 0.582905
v 0.227169 0.495067 0.573190
v 0.238694 0.521023 0.576486
v 0.227540 0.536219 0.577451
v 0.219381 0.533440 0.581898
v 0.225385 0.513465 0.582905
v 0.227540 0.536219 0.577451
v 0.218892 0.543804 0.568228
v 0.212675 0.543291 0.570758
v 0.219381 0.533440 0.581898
v 0.212675 0.543291 0.570758
v 0.209194 0.537247 0.556011
v 0.217816 0.539336 0.554218
v 0.218892 0.543804 0.568228
v 0.209194 0.537247 0.556011
v 0.210979 0.518849 0.546295
v 0.224942 0.525432 0.543628
v 0.217816 0.539336 0.554218
v 0.210979 0.518849 0.546295
v 0.216983 0.498874 0.547303
v 0.236096 0.510237 0.542662
v 0.224942 0.525432 0.543628
v 0.216983 0.498874 0.547303
v 0.223689 0.489023 0.558443
v 0.244744 0.502651 0.551886
v 0.236096 0.510237 0.542662
v 0.260851 0.522030 0.547355
v 0.260924 0.525192 0.560146
v 0.245820 0.507119 0.565896
v 0.244744 0.502651 0.551886
v 0.260924 0.525192 0.560146
v 0.251935 0.535111 0.570407
v 0.238694 0.521023 0.576486
v 0.245820 0.507119 0.565896
v 0.251935 0.535111 0.570407
v 0.239150 0.545977 0.572127
v 0.227540 0.536219 0.577451
v 0.238694 0.521023 0.576486
v 0.239150 0.545977 0.572127
v 0.230058 0.551423 0.564300
v 0.218892 0.543804 0.568228
v 0.227540 0.536219 0.577451
v 0.218892 0.543804 0.568228
v 0.217816 0.539336 0.554218
v 0.229985 0.548261 0.551509
v 0.230058 0.551423 0.564300
v 0.217816 0.539336 0.554218
v 0.224942 0.525432 0.543628
v 0.238974 0.538341 0.541248
v 0.229985 0.548261 0.551509
v 0.224942 0.525432 0.543628
v 0.236096 0.510237 0.542662
v 0.251759 0.527476 0.539528
v 0.238974 0.538341 0.541248
v 0.236096 0.510237 0.542662
v 0.244744 0.502651 0.551886
v 0.260851 0.522030 0.547355
v 0.251759 0.527476 0.539528
v 0.274308 0.546068 0.543456
v 0.274105 0.548488 0.554806
v 0.260924 0.525192 0.560146
v 0.260851 0.522030 0.547355
v 0.274105 0.548488 0.554806
v 0.265107 0.555691 0.564183
v 0.251935 0.535111 0.570407
v 0.260924 0.525192 0.560146
v 0.265107 0.555691 0.564183
v 0.252585 0.563457 0.566094
v 0.239150 0.545977 0.572127
v 0.251935 0.535111 0.570407
v 0.252585 0.563457 0.566094
v 0.243874 0.567238 0.559419
v 0.230058 0.551423 0.564300
v 0.239150 0.545977 0.572127
v 0.230058 0.551423 0.564300
v 0.229985 0.548261 0.551509
v 0.244077 0.564818 0.548069
v 0.243874 0.567238 0.559419
v 0.229985 0.548261 0.551509
v 0.238974 0.538341 0.541248
v 0.253075 0.557615 0.538692
v 0.244077 0.564818 0.548069
v 0.238974 0.538341 0.541248
v 0.251759 0.527476 0.539528
v 0.265597 0.549848 0.536781
v 0.253075 0.557615 0.538692
v 0.251759 0.527476 0.539528
v 0.260851 0.522030 0.547355
v 0.274308 0.546068 0.543456
v 0.265597 0.549848 0.536781
v 0.286578 0.575162 0.539004
v 0.286392 0.577247 0.548822
v 0.274105 0.548488 0.554806
v 0.274308 0.546068 0.543456
v 0.286392 0.577247 0.548822
v 0.278202 0.582706 0.557083
v 0.265107 0.555691 0.564183
v 0.274105 0.548488 0.554806
v 0.278202 0.582706 0.557083
v 0.266805 0.588342 0.558948
v 0.252585 0.563457 0.566094
v 0.265107 0.555691 0.564183
v 0.266805 0.588342 0.558948
v 0.258877 0.590853 0.553324
v 0.243874 0.567238 0.559419
v 0.252585 0.563457 0.566094
v 0.243874 0.567238 0.559419
v 0.244077 0.564818 0.548069
v 0.259063 0.588768 0.543506
v 0.258877 0.590853 0.553324
v 0.244077 0.564818 0.548069
v 0.253075 0.557615 0.538692
v 0.267253 0.583308 0.535245
v 0.259063 0.588768 0.543506
v 0.253075 0.557615 0.538692
v 0.265597 0.549848 0.536781
v 0.278650 0.577672 0.533380
v 0.267253 0.583308 0.535245
v 0.265597 0.549848 0.536781
v 0.274308 0.546068 0.543456
v 0.286578 0.575162 0.539004
v 0.278650 0.577672 0.533380
v 0.298319 0.609804 0.532841
v 0.298247 0.611774 0.541078
v 0.286392 0.577247 0.548822
v 0.286578 0.575162 0.539004
v 0.298247 0.611774 0.541078
v 0.291214 0.616096 0.548108
v 0.278202 0.582706 0.557083
v 0.286392 0.577247 0.548822
v 0.291214 0.616096 0.548108
v 0.281340 0.620239 0.549813
v 0.266805 0.588342 0.558948
v 0.278202 0.582706 0.557083
v 0.281340 0.620239 0.549813
v 0.274409 0.621775 0.545193
v 0.258877 0.590853 0.553324
v 0.266805 0.588342 0.558948
v 0.258877 0.590853 0.553324
v 0.259063 0.588768 0.543506
v 0.274480 0.619805 0.536955
v 0.274409 0.621775 0.545193
v 0.259063 0.588768 0.543506
v 0.267253 0.583308 0.535245
v 0.281513 0.615483 0.529925
v 0.274480 0.619805 0.536955
v 0.267253 0.583308 0.535245
v 0.278650 0.577672 0.533380
v 0.291388 0.611341 0.528221
v 0.281513 0.615483 0.529925
v 0.278650 0.577672 0.533380
v 0.286578 0.575162 0.539004
v 0.298319 0.609804 0.532841
v 0.291388 0.611341 0.528221
v 0.309822 0.650350 0.523607
v 0.309872 0.652271 0.530235
v 0.298247 0.611774 0.541078
v 0.298319 0.609804 0.532841
v 0.309872 0.652271 0.530235
v 0.304140 0.655791 0.535962
v 0.291214 0.616096 0.548108
v 0.298247 0.611774 0.541078
v 0.304140 0.655791 0.535962
v 0.295982 0.658848 0.537433
v 0.281340 0.620239 0.549813
v 0.291214 0.616096 0.548108
v 0.295982 0.658848 0.537433
v 0.290178 0.659650 0.533786
v 0.274409 0.621775 0.545193
v 0.281340 0.620239 0.549813
v 0.274409 0.621775 0.545193
v 0.274480 0.619805 0.536955
v 0.290128 0.657729 0.527157
v 0.290178 0.659650 0.533786
v 0.274480 0.619805 0.536955
v 0.281513 0.615483 0.529925
v 0.295860 0.654209 0.521430
v 0.290128 0.657729 0.527157
v 0.281513 0.615483 0.529925
v 0.291388 0.611341 0.528221
v 0.304018 0.651152 0.519959
v 0.295860 0.654209 0.521430
v 0.291388 0.611341 0.528221
v 0.298319 0.609804 0.532841
v 0.309822 0.650350 0.523607
v 0.304018 0.651152 0.519959
v -0.309822 0.650350 0.523607
v -0.309872 0.652271 0.530235
v -0.304140 0.655791 0.535962
v -0.295982 0.658848 0.537433
v -0.290178 0.659650 0.533786
v -0.290128 0.657729 0.527157
v -0.295860 0.654209 0.521430
v -0.304018 0.651152 0.519959
v 0.304018 0.651152 0.519959
v 0.295860 0.654209 0.521430
v 0.290128 0.657729 0.527157
v 0.290178 0.659650 0.533786
v 0.295982 0.658848 0.537433
v 0.304140 0.655791 0.535962
v 0.309872 0.652271 0.530235
v 0.309822 0.650350 0.523607
vn -0.9637 -0.2580 0.0689
vn -0.7033 -0.0115 0.7108
vn -0.2497 0.2083 0.9457
vn 0.4381 0.4212 0.7941
vn -0.9287 -0.3583 0.0951
vn -0.6758 -0.0899 0.7315
vn -0.2220 0.1299 0.9664
vn 0.4736 0.3208 0.8203
vn -0.9482 -0.3069 0.0824
vn -0.6836 -0.0715 0.7263
vn -0.2368 0.1656 0.9573
vn 0.4322 0.4254 0.7951
vn -0.8994 -0.4237 0.1080
vn -0.6452 -0.1628 0.7465
vn -0.1982 0.0743 0.9774
vn 0.4815 0.3085 0.8203
vn -0.9224 -0.3741 0.0965
vn -0.6626 -0.1284 0.7379
vn -0.2316 0.1423 0.9623
vn 0.4081 0.4610 0.7880
vn -0.8517 -0.5092 0.1240
vn -0.6070 -0.2340 0.7595
vn -0.1757 0.0365 0.9838
vn 0.4793 0.3257 0.8150
vn -0.8752 -0.4704 0.1135
vn -0.6381 -0.1864 0.7470
vn -0.2413 0.1406 0.9602
vn 0.3480 0.5367 0.7687
vn -0.7676 -0.6236 0.1483
vn -0.5539 -0.3062 0.7743
vn -0.1568 0.0205 0.9874
vn 0.4559 0.3831 0.8034
vn -0.7792 -0.6108 0.1405
vn -0.6033 -0.2536 0.7561
vn -0.2806 0.1602 0.9464
vn 0.2097 0.6593 0.7221
vn -0.6035 -0.7733 0.1943
vn -0.4706 -0.3790 0.7968
vn -0.1485 0.0345 0.9883
vn 0.3840 0.4962 0.7787
vn -0.5800 -0.7904 0.1970
vn -0.5383 -0.3371 0.7724
vn -0.3725 0.1828 0.9099
vn -0.1085 0.7940 0.5981
vn -0.2483 -0.9218 0.2976
vn -0.3322 -0.4346 0.8371
vn -0.1710 0.0846 0.9816
vn 0.2090 0.6594 0.7222
vn -0.0214 -0.9298 0.3676
vn -0.3120 -0.4361 0.8440
vn -0.5474 0.1299 0.8268
vn -0.0205 0.8032 0.5953
vn -0.2677 -0.9306 0.2498
vn -0.0994 -0.3915 0.9148
vn -0.3539 0.1682 0.9200
vn -0.3116 0.7993 0.5138
vn 0.3012 -0.7843 0.5424
vn -0.1642 -0.3561 0.9199
vn -0.4674 0.1091 0.8773
vn -0.6361 0.6533 0.4106
vn 0.3013 -0.7842 0.5424
vn -0.1641 -0.3560 0.9200
vn -0.4675 0.1091 0.8773
vn -0.6362 0.6532 0.4106
vn 0.3038 -0.7825 0.5435
vn -0.1453 -0.3431 0.9280
vn -0.4427 0.1260 0.8878
vn -0.6155 0.6673 0.4193
vn 0.3038 -0.7825 0.5436
vn -0.1453 -0.3431 0.9280
vn -0.4428 0.1260 0.8877
vn -0.6156 0.6673 0.4193
vn 0.3052 -0.7815 0.5442
vn -0.1268 -0.3309 0.9351
vn -0.4177 0.1426 0.8973
vn -0.5939 0.6816 0.4275
vn 0.3052 -0.7815 0.5442
vn -0.1268 -0.3308 0.9351
vn -0.4177 0.1425 0.8973
vn -0.5939 0.6816 0.4275
vn 0.3054 -0.7813 0.5443
vn -0.1087 -0.3194 0.9414
vn -0.3922 0.1587 0.9061
vn -0.5710 0.6961 0.4353
vn 0.3054 -0.7813 0.5443
vn -0.1087 -0.3193 0.9414
vn -0.3923 0.1587 0.9061
vn -0.5710 0.6960 0.4353
vn 0.2215 -0.8261 0.5181
vn -0.1522 -0.3439 0.9266
vn -0.4253 0.1387 0.8944
vn -0.6210 0.6626 0.4187
vn 0.3814 -0.7322 0.5643
vn -0.0271 -0.2702 0.9624
vn -0.3000 0.2123 0.9300
vn -0.4607 0.7563 0.4644
vn 0.2154 -0.8270 0.5193
vn -0.1374 -0.3334 0.9327
vn -0.4010 0.1545 0.9030
vn -0.5977 0.6782 0.4276
vn 0.3813 -0.7344 0.5615
vn -0.0076 -0.2607 0.9654
vn -0.2710 0.2272 0.9354
vn -0.4313 0.7706 0.4692
vn 0.2073 -0.8285 0.5202
vn -0.1232 -0.3236 0.9381
vn -0.3761 0.1701 0.9108
vn -0.5726 0.6943 0.4360
vn 0.3794 -0.7378 0.5583
vn 0.0113 -0.2523 0.9676
vn -0.2412 0.2413 0.9400
vn -0.4000 0.7848 0.4735
vn 0.1971 -0.8306 0.5209
vn -0.1097 -0.3144 0.9429
vn -0.3506 0.1854 0.9180
vn -0.5454 0.7109 0.4440
vn 0.3754 -0.7424 0.5549
vn 0.0296 -0.2450 0.9691
vn -0.2108 0.2547 0.9438
vn -0.3664 0.7988 0.4772
vn 0.1841 -0.8332 0.5214
vn -0.0971 -0.3058 0.9471
vn -0.3242 0.2005 0.9245
vn -0.5157 0.7281 0.4516
vn 0.3689 -0.7484 0.5511
vn 0.0470 -0.2390 0.9699
vn -0.1794 0.2673 0.9468
vn -0.3301 0.8126 0.4803
vn 0.1679 -0.8364 0.5218
vn -0.0856 -0.2978 0.9508
vn -0.2969 0.2153 0.9303
vn -0.4830 0.7459 0.4587
vn 0.3593 -0.7559 0.5472
vn 0.0635 -0.2343 0.9701
vn -0.1470 0.2788 0.9490
vn -0.2906 0.8261 0.4829
vn 0.1475 -0.8401 0.5220
vn -0.0755 -0.2905 0.9539
vn -0.2683 0.2299 0.9355
vn -0.4463 0.7644 0.4653
vn 0.3457 -0.7651 0.5432
vn 0.0787 -0.2311 0.9697
vn -0.1131 0.2893 0.9505
vn -0.2467 0.8391 0.4847
vn 0.1212 -0.8441 0.5223
vn -0.0672 -0.2837 0.9565
vn -0.2380 0.2443 0.9400
vn -0.4043 0.7838 0.4713
vn 0.3268 -0.7762 0.5392
vn 0.0922 -0.2297 0.9689
vn -0.0773 0.2984 0.9513
vn -0.1969 0.8515 0.4859
vn 0.0860 -0.8483 0.5225
vn -0.0616 -0.2775 0.9587
vn -0.2051 0.2587 0.9439
vn -0.3544 0.8045 0.4767
vn 0.3000 -0.7897 0.5352
vn 0.1031 -0.2305 0.9676
vn -0.0386 0.3058 0.9513
vn -0.1380 0.8628 0.4863
vn 0.0342 -0.8519 0.5225
vn -0.0612 -0.2715 0.9605
vn -0.1676 0.2735 0.9472
vn -0.2905 0.8270 0.4814
vn 0.2591 -0.8065 0.5315
vn 0.1093 -0.2343 0.9660
vn 0.0054 0.3107 0.9505
vn -0.0621 0.8721 0.4854
vn -0.1113 -0.8480 0.5182
vn -0.0835 -0.2626 0.9613
vn -0.1116 0.2938 0.9493
vn -0.1710 0.8583 0.4839
vn 0.1626 -0.8341 0.5271
vn 0.0967 -0.2470 0.9642
vn 0.0734 0.3093 0.9481
vn 0.1139 0.8703 0.4791
vn 0.1113 -0.8480 0.5182
vn 0.0835 -0.2626 0.9613
vn 0.1116 0.2938 0.9493
vn 0.1710 0.8583 0.4839
vn -0.1626 -0.8341 0.5271
vn -0.0967 -0.2470 0.9642
vn -0.0734 0.3093 0.9481
vn -0.1139 0.8703 0.4791
vn -0.0342 -0.8519 0.5225
vn 0.0612 -0.2715 0.9605
vn 0.1676 0.2735 0.9472
vn 0.2905 0.8270 0.4814
vn -0.2591 -0.8065 0.5315
vn -0.1093 -0.2343 0.9660
vn -0.0054 0.3107 0.9505
vn 0.0621 0.8721 0.4854
vn -0.0860 -0.8483 0.5225
vn 0.0616 -0.2775 0.9587
vn 0.2051 0.2587 0.9439
vn 0.3544 0.8045 0.4767
vn -0.3000 -0.7897 0.5352
vn -0.1031 -0.2305 0.9676
vn 0.0386 0.3058 0.9513
vn 0.1380 0.8628 0.4863
vn -0.1212 -0.8441 0.5223
vn 0.0672 -0.2837 0.9565
vn 0.2380 0.2443 0.9400
vn 0.4043 0.7838 0.4713
vn -0.3268 -0.7762 0.5392
vn -0.0922 -0.2297 0.9689
vn 0.0773 0.2984 0.9513
vn 0.1969 0.8515 0.4859
vn -0.1475 -0.8401 0.5220
vn 0.0755 -0.2905 0.9539
vn 0.2683 0.2299 0.9355
vn 0.4463 0.7644 0.4653
vn -0.3457 -0.7651 0.5432
vn -0.0787 -0.2311 0.9697
vn 0.1131 0.2893 0.9505
vn 0.2467 0.8391 0.4847
vn -0.1679 -0.8364 0.5218
vn 0.0856 -0.2978 0.9508
vn 0.2969 0.2153 0.9303
vn 0.4830 0.7459 0.4587
vn -0.3593 -0.7559 0.5472
vn -0.0635 -0.2343 0.9701
vn 0.1470 0.2788 0.9490
vn 0.2906 0.8261 0.4829
vn -0.1841 -0.8332 0.5214
vn 0.0971 -0.3058 0.9471
vn 0.3242 0.2005 0.9245
vn 0.5157 0.7281 0.4516
vn -0.3689 -0.7484 0.5511
vn -0.0470 -0.2390 0.9699
vn 0.1794 0.2673 0.9468
vn 0.3301 0.8126 0.4803
vn -0.1971 -0.8306 0.5209
vn 0.1097 -0.3144 0.9429
vn 0.3506 0.1854 0.9180
vn 0.5454 0.7109 0.4440
vn -0.3754 -0.7424 0.5549
vn -0.0296 -0.2450 0.9691
vn 0.2108 0.2547 0.9438
vn 0.3664 0.7988 0.4772
vn -0.2073 -0.8285 0.5202
vn 0.1232 -0.3236 0.9381
vn 0.3761 0.1701 0.9108
vn 0.5726 0.6943 0.4360
vn -0.3794 -0.7378 0.5583
vn -0.0113 -0.2523 0.9676
vn 0.2412 0.2413 0.9400
vn 0.4000 0.7848 0.4735
vn -0.2154 -0.8270 0.5193
vn 0.1374 -0.3334 0.9327
vn 0.4010 0.1545 0.9030
vn 0.5977 0.6782 0.4276
vn -0.3813 -0.7344 0.5615
vn 0.0076 -0.2607 0.9654
vn 0.2710 0.2272 0.9354
vn 0.4313 0.7706 0.4692
vn -0.2215 -0.8261 0.5181
vn 0.1522 -0.3439 0.9266
vn 0.4253 0.1387 0.8944
vn 0.6210 0.6626 0.4187
vn -0.3814 -0.7322 0.5643
vn 0.0271 -0.2702 0.9624
vn 0.3000 0.2123 0.9300
vn 0.4607 0.7563 0.4644
vn -0.3054 -0.7813 0.5443
vn 0.1087 -0.3194 0.9414
vn 0.3922 0.1587 0.9061
vn 0.5710 0.6961 0.4353
vn -0.3054 -0.7813 0.5443
vn 0.1087 -0.3193 0.9414
vn 0.3923 0.1587 0.9061
vn 0.5710 0.6960 0.4353
vn -0.3052 -0.7815 0.5442
vn 0.1268 -0.3309 0.9351
vn 0.4177 0.1426 0.8973
vn 0.5939 0.6816 0.4275
vn -0.3052 -0.7815 0.5442
vn 0.1268 -0.3308 0.9351
vn 0.4177 0.1425 0.8973
vn 0.5939 0.6816 0.4275
vn -0.3038 -0.7825 0.5435
vn 0.1453 -0.3431 0.9280
vn 0.4427 0.1260 0.8878
vn 0.6155 0.6673 0.4193
vn -0.3038 -0.7825 0.5436
vn 0.1453 -0.3431 0.9280
vn 0.4428 0.1260 0.8877
vn 0.6156 0.6673 0.4193
vn -0.3012 -0.7843 0.5424
vn 0.1642 -0.3561 0.9199
vn 0.4674 0.1091 0.8773
vn 0.6361 0.6533 0.4106
vn -0.3013 -0.7842 0.5424
vn 0.1641 -0.3560 0.9200
vn 0.4675 0.1091 0.8773
vn 0.6362 0.6532 0.4106
vn 0.0214 -0.9298 0.3676
vn 0.3120 -0.4361 0.8440
vn 0.5474 0.1299 0.8268
vn 0.0205 0.8032 0.5953
vn 0.2677 -0.9306 0.2498
vn 0.0994 -0.3915 0.9148
vn 0.3539 0.1682 0.9200
vn 0.3116 0.7993 0.5138
vn 0.5800 -0.7904 0.1970
vn 0.5383 -0.3371 0.7724
vn 0.3725 0.1828 0.9099
vn 0.1085 0.7940 0.5981
vn 0.2483 -0.9218 0.2976
vn 0.3322 -0.4346 0.8371
vn 0.1710 0.0846 0.9816
vn -0.2090 0.6594 0.7222
vn 0.7792 -0.6108 0.1405
vn 0.6033 -0.2536 0.7561
vn 0.2806 0.1602 0.9464
vn -0.2097 0.6593 0.7221
vn 0.6035 -0.7733 0.1943
vn 0.4706 -0.3790 0.7968
vn 0.1485 0.0345 0.9883
vn -0.3840 0.4962 0.7787
vn 0.8752 -0.4704 0.1135
vn 0.6381 -0.1864 0.7470
vn 0.2413 0.1406 0.9602
vn -0.3480 0.5367 0.7687
vn 0.7676 -0.6236 0.1483
vn 0.5539 -0.3062 0.7743
vn 0.1568 0.0205 0.9874
vn -0.4559 0.3831 0.8034
vn 0.9224 -0.3741 0.0965
vn 0.6626 -0.1284 0.7379
vn 0.2316 0.1423 0.9623
vn -0.4081 0.4610 0.7880
vn 0.8517 -0.5092 0.1240
vn 0.6070 -0.2340 0.7595
vn 0.1757 0.0365 0.9838
vn -0.4793 0.3257 0.8150
vn 0.9482 -0.3069 0.0824
vn 0.6836 -0.0715 0.7263
vn 0.2368 0.1656 0.9573
vn -0.4322 0.4254 0.7951
vn 0.8994 -0.4237 0.1080
vn 0.6452 -0.1628 0.7465
vn 0.1982 0.0743 0.9774
vn -0.4815 0.3085 0.8203
vn 0.9637 -0.2580 0.0689
vn 0.7033 -0.0115 0.7108
vn 0.2497 0.2083 0.9457
vn -0.4381 0.4212 0.7941
vn 0.9287 -0.3583 0.0951
vn 0.6758 -0.0899 0.7315
vn 0.2220 0.1299 0.9664
vn -0.4736 0.3208 0.8203
vn -0.2953 0.9170 -0.2681
vn 0.2953 0.9170 -0.2681
f 1//1 2//1 3//1 4//1
f 5//2 6//2 7//2 8//2
f 9//3 10//3 11//3 12//3
f 13//4 14//4 15//4 16//4
f 17//5 18//5 19//5 20//5
f 21//6 22//6 23//6 24//6
f 25//7 26//7 27//7 28//7
f 29//8 30//8 31//8 32//8
f 33//9 34//9 35//9 36//9
f 37//10 38//10 39//10 40//10
f 41//11 42//11 43//11 44//11
f 45//12 46//12 47//12 48//12
f 49//13 50//13 51//13 52//13
f 53//14 54//14 55//14 56//14
f 57//15 58//15 59//15 60//15
f 61//16 62//16 63//16 64//16
f 65//17 66//17 67//17 68//17
f 69//18 70//18 71//18 72//18
f 73//19 74//19 75//19 76//19
f 77//20 78//20 79//20 80//20
f 81//21 82//21 83//21 84//21
f 85//22 86//22 87//22 88//22
f 89//23 90//23 91//23 92//23
f 93//24 94//24 95//24 96//24
f 97//25 98//25 99//25 100//25
f 101//26 102//26 103//26 104//26
f 105//27 106//27 107//27 108//27
f 109//28 110//28 111//28 112//28
f 113//29 114//29 115//29 116//29
f 117//30 118//30 119//30 120//30
f 121//31 122//31 123//31 124//31
f 125//32 126//32 127//32 128//32
f 129//33 130//33 131//33 132//33
f 133//34 134//34 135//34 136//34
f 137//35 138//35 139//35 140//35
f 141//36 142//36 143//36 144//36
f 145//37 146//37 147//37 148//37
f 149//38 150//38 151//38 152//38
f 153//39 154//39 155//39 156//39
f 157//40 158//40 159//40 160//40
f 161//41 162//41 163//41 164//41
f 165//42 166//42 167//42 168//42
f 169//43 170//43 171//43 172//43
f 173//44 174//44 175//44 176//44
f 177//45 178//45 179//45 180//45
f 181//46 182//46 183//46 184//46
f 185//47 186//47 187//47 188//47
f 189//48 190//48 191//48 192//48
f 193//49 194//49 195//49 196//49
f 197//50 198//50 199//50 200//50
f 201//51 202//51 203//51 204//51
f 205//52 206//52 207//52 208//52
f 209//53 210//53 211//53 212//53
f 213//54 214//54 215//54 216//54
f 217//55 218//55 219//55 220//55
f 221//56 222//56 223//56 224//56
f 225//57 226//57 227//57 228//57
f 229//58 230//58 231//58 232//58
f 233//59 234//59 235//59 236//59
f 237//60 238//60 239//60 240//60
f 241//61 242//61 243//61 244//61
f 245//62 246//62 247//62 248//62
f 249//63 250//63 251//63 252//63
f 253//64 254//64 255//64 256//64
f 257//65 258//65 259//65 260//65
f 261//66 262//66 263//66 264//66
f 265//67 266//67 267//67 268//67
f 269//68 270//68 271//68 272//68
f 273//69 274//69 275//69 276//69
f 277//70 278//70 279//70 280//70
f 281//71 282//71 283//71 284//71
f 285//72 286//72 287//72 288//72
f 289//73 290//73 291//73 292//73
f 293//74 294//74 295//74 296//74
f 297//75 298//75 299//75 300//75
f 301//76 302//76 303//76 304//76
f 305//77 306//77 307//77 308//77
f 309//78 310//78 311//78 312//78
f 313//79 314//79 315//79 316//79
f 317//80 318//80 319//80 320//80
f 321//81 322//81 323//81 324//81
f 325//82 326//82 327//82 328//82
f 329//83 330//83 331//83 332//83
f 333//84 334//84 335//84 336//84
f 337//85 338//85 339//85 340//85
f 341//86 342//86 343//86 344//86
f 345//87 346//87 347//87 348//87
f 349//88 350//88 351//88 352//88
f 353//89 354//89 355//89 356//89
f 357//90 358//90 359//90 360//90
f 361//91 362//91 363//91 364//91
f 365//92 366//92 367//92 368//92
f 369//93 370//93 371//93 372//93
f 373//94 374//94 375//94 376//94
f 377//95 378//95 379//95 380//95
f 381//96 382//96 383//96 384//96
f 385//97 386//97 387//97 388//97
f 389//98 390//98 391//98 392//98
f 393//99 394//99 395//99 396//99
f 397//100 398//100 399//100 400//100
f 401//101 402//101 403//101 404//101
f 405//102 406//102 407//102 408//102
f 409//103 410//103 411//103 412//103
f 413//104 414//104 415//104 416//104
f 417//105 418//105 419//105 420//105
f 421//106 422//106 423//106 424//106
f 425//107 426//107 427//107 428//107
f 429//108 430//108 431//108 432//108
f 433//109 434//109 435//109 436//109
f 437//110 438//110 439//110 440//110
f 441//111 442//111 443//111 444//111
f 445//112 446//112 447//112 448//112
f 449//113 450//113 451//113 452//113
f 453//114 454//114 455//114 456//114
f 457//115 458//115 459//115 460//115
f 461//116 462//116 463//116 464//116
f 465//117 466//117 467//117 468//117
f 469//118 470//118 471//118 472//118
f 473//119 474//119 475//119 476//119
f 477//120 478//120 479//120 480//120
f 481//121 482//121 483//121 484//121
f 485//122 486//122 487//122 488//122
f 489//123 490//123 491//123 492//123
f 493//124 494//124 495//124 496//124
f 497//125 498//125 499//125 500//125
f 501//126 502//126 503//126 504//126
f 505//127 506//127 507//127 508//127
f 509//128 510//128 511//128 512//128
f 513//129 514//129 515//129 516//129
f 517//130 518//130 519//130 520//130
f 521//131 522//131 523//131 524//131
f 525//132 526//132 527//132 528//132
f 529//133 530//133 531//133 532//133
f 533//134 534//134 535//134 536//134
f 537//135 538//135 539//135 540//135
f 541//136 542//136 543//136 544//136
f 545//137 546//137 547//137 548//137
f 549//138 550//138 551//138 552//138
f 553//139 554//139 555//139 556//139
f 557//140 558//140 559//140 560//140
f 561//141 562//141 563//141 564//141
f 565//142 566//142 567//142 568//142
f 569//143 570//143 571//143 572//143
f 573//144 574//144 575//144 576//144
f 577//145 578//145 579//145 580//145
f 581//146 582//146 583//146 584//146
f 585//147 586//147 587//147 588//147
f 589//148 590//148 591//148 592//148
f 593//149 594//149 595//149 596//149
f 597//150 598//150 599//150 600//150
f 601//151 602//151 603//151 604//151
f 605//152 606//152 607//152 608//152
f 609//153 610//153 611//153 612//153
f 613//154 614//154 615//154 616//154
f 617//155 618//155 619//155 620//155
f 621//156 622//156 623//156 624//156
f 625//157 626//157 627//157 628//157
f 629//158 630//158 631//158 632//158
f 633//159 634//159 635//159 636//159
f 637//160 638//160 639//160 640//160
f 641//161 642//161 643//161 644//161
f 645//162 646//162 647//162 648//162
f 649//163 650//163 651//163 652//163
f 653//164 654//164 655//164 656//164
f 657//165 658//165 659//165 660//165
f 661//166 662//166 663//166 664//166
f 665//167 666//167 667//167 668//167
f 669//168 670//168 671//168 672//168
f 673//169 674//169 675//169 676//169
f 677//170 678//170 679//170 680//170
f 681//171 682//171 683//171 684//171
f 685//172 686//172 687//172 688//172
f 689//173 690//173 691//173 692//173
f 693//174 694//174 695//174 696//174
f 697//175 698//175 699//175 700//175
f 701//176 702//176 703//176 704//176
f 705//177 706//177 707//177 708//177
f 709//178 710//178 711//178 712//178
f 713//179 714//179 715//179 716//179
f 717//180 718//180 719//180 720//180
f 721//181 722//181 723//181 724//181
f 725//182 726//182 727//182 728//182
f 729//183 730//183 731//183 732//183
f 733//184 734//184 735//184 736//184
f 737//185 738//185 739//185 740//185
f 741//186 742//186 743//186 744//186
f 745//187 746//187 747//187 748//187
f 749//188 750//188 751//188 752//188
f 753//189 754//189 755//189 756//189
f 757//190 758//190 759//190 760//190
f 761//191 762//191 763//191 764//191
f 765//192 766//192 767//192 768//192
f 769//193 770//193 771//193 772//193
f 773//194 774//194 775//194 776//194
f 777//195 778//195 779//195 780//195
f 781//196 782//196 783//196 784//196
f 785//197 786//197 787//197 788//197
f 789//198 790//198 791//198 792//198
f 793//199 794//199 795//199 796//199
f 797//200 798//200 799//200 800//200
f 801//201 802//201 803//201 804//201
f 805//202 806//202 807//202 808//202
f 809//203 810//203 811//203 812//203
f 813//204 814//204 815//204 816//204
f 817//205 818//205 819//205 820//205
f 821//206 822//206 823//206 824//206
f 825//207 826//207 827//207 828//207
f 829//208 830//208 831//208 832//208
f 833//209 834//209 835//209 836//209
f 837//210 838//210 839//210 840//210
f 841//211 842//211 843//211 844//211
f 845//212 846//212 847//212 848//212
f 849//213 850//213 851//213 852//213
f 853//214 854//214 855//214 856//214
f 857//215 858//215 859//215 860//215
f 861//216 862//216 863//216 864//216
f 865//217 866//217 867//217 868//217
f 869//218 870//218 871//218 872//218
f 873//219 874//219 875//219 876//219
f 877//220 878//220 879//220 880//220
f 881//221 882//221 883//221 884//221
f 885//222 886//222 887//222 888//222
f 889//223 890//223 891//223 892//223
f 893//224 894//224 895//224 896//224
f 897//225 898//225 899//225 900//225
f 901//226 902//226 903//226 904//226
f 905//227 906//227 907//227 908//227
f 909//228 910//228 911//228 912//228
f 913//229 914//229 915//229 916//229
f 917//230 918//230 919//230 920//230
f 921//231 922//231 923//231 924//231
f 925//232 926//232 927//232 928//232
f 929//233 930//233 931//233 932//233
f 933//234 934//234 935//234 936//234
f 937//235 938//235 939//235 940//235
f 941//236 942//236 943//236 944//236
f 945//237 946//237 947//237 948//237
f 949//238 950//238 951//238 952//238
f 953//239 954//239 955//239 956//239
f 957//240 958//240 959//240 960//240
f 961//241 962//241 963//241 964//241
f 965//242 966//242 967//242 968//242
f 969//243 970//243 971//243 972//243
f 973//244 974//244 975//244 976//244
f 977//245 978//245 979//245 980//245
f 981//246 982//246 983//246 984//246
f 985//247 986//247 987//247 988//247
f 989//248 990//248 991//248 992//248
f 993//249 994//249 995//249 996//249
f 997//250 998//250 999//250 1000//250
f 1001//251 1002//251 1003//251 1004//251
f 1005//252 1006//252 1007//252 1008//252
f 1009//253 1010//253 1011//253 1012//253
f 1013//254 1014//254 1015//254 1016//254
f 1017//255 1018//255 1019//255 1020//255
f 1021//256 1022//256 1023//256 1024//256
f 1025//257 1026//257 1027//257 1028//257
f 1029//258 1030//258 1031//258 1032//258
f 1033//259 1034//259 1035//259 1036//259
f 1037//260 1038//260 1039//260 1040//260
f 1041//261 1042//261 1043//261 1044//261
f 1045//262 1046//262 1047//262 1048//262
f 1049//263 1050//263 1051//263 1052//263
f 1053//264 1054//264 1055//264 1056//264
f 1057//265 1058//265 1059//265 1060//265
f 1061//266 1062//266 1063//266 1064//266
f 1065//267 1066//267 1067//267 1068//267
f 1069//268 1070//268 1071//268 1072//268
f 1073//269 1074//269 1075//269 1076//269
f 1077//270 1078//270 1079//270 1080//270
f 1081//271 1082//271 1083//271 1084//271
f 1085//272 1086//272 1087//272 1088//272
f 1089//273 1090//273 1091//273 1092//273
f 1093//274 1094//274 1095//274 1096//274
f 1097//275 1098//275 1099//275 1100//275
f 1101//276 1102//276 1103//276 1104//276
f 1105//277 1106//277 1107//277 1108//277
f 1109//278 1110//278 1111//278 1112//278
f 1113//279 1114//279 1115//279 1116//279
f 1117//280 1118//280 1119//280 1120//280
f 1121//281 1122//281 1123//281 1124//281
f 1125//282 1126//282 1127//282 1128//282
f 1129//283 1130//283 1131//283 1132//283
f 1133//284 1134//284 1135//284 1136//284
f 1137//285 1138//285 1139//285 1140//285
f 1141//286 1142//286 1143//286 1144//286
f 1145//287 1146//287 1147//287 1148//287
f 1149//288 1150//288 1151//288 1152//288
f 1153//289 1154//289 1155//289 1156//289
f 1157//290 1158//290 1159//290 1160//290
f 1161//291 1162//291 1163//291 1164//291
f 1165//292 1166//292 1167//292 1168//292
f 1169//293 1170//293 1171//293 1172//293
f 1173//294 1174//294 1175//294 1176//294
f 1177//295 1178//295 1179//295 1180//295
f 1181//296 1182//296 1183//296 1184//296
f 1185//297 1186//297 1187//297 1188//297
f 1189//298 1190//298 1191//298 1192//298
f 1193//299 1194//299 1195//299 1196//299
f 1197//300 1198//300 1199//300 1200//300
f 1201//301 1202//301 1203//301 1204//301
f 1205//302 1206//302 1207//302 1208//302
f 1209//303 1210//303 1211//303 1212//303
f 1213//304 1214//304 1215//304 1216//304
f 1217//305 1218//305 1219//305 1220//305
f 1221//306 1222//306 1223//306 1224//306
f 1225//307 1226//307 1227//307 1228//307
f 1229//308 1230//308 1231//308 1232//308
f 1233//309 1234//309 1235//309 1236//309
f 1237//310 1238//310 1239//310 1240//310
f 1241//311 1242//311 1243//311 1244//311
f 1245//312 1246//312 1247//312 1248//312
f 1249//313 1250//313 1251//313 1252//313
f 1253//314 1254//314 1255//314 1256//314
f 1257//315 1258//315 1259//315 1260//315
f 1261//316 1262//316 1263//316 1264//316
f 1265//317 1266//317 1267//317 1268//317
f 1269//318 1270//318 1271//318 1272//318
f 1273//319 1274//319 1275//319 1276//319
f 1277//320 1278//320 1279//320 1280//320
f 1281//321 1282//321 1283//321 1284//321
f 1285//322 1286//322 1287//322 1288//322
f 1289//323 1290//323 1291//323 1292//323
f 1293//324 1294//324 1295//324 1296//324
f 1297//325 1298//325 1299//325 1300//325
f 1301//326 1302//326 1303//326 1304//326
f 1305//327 1306//327 1307//327 1308//327
f 1309//328 1310//328 1311//328 1312//328
f 1313//329 1314//329 1315//329 1316//329
f 1317//330 1318//330 1319//330 1320//330
f 1321//331 1322//331 1323//331 1324//331
f 1325//332 1326//332 1327//332 1328//332
f 1329//333 1330//333 1331//333 1332//333
f 1333//334 1334//334 1335//334 1336//334
f 1337//335 1338//335 1339//335 1340//335
f 1341//336 1342//336 1343//336 1344//336
f 1345//337 1346//337 1347//337 1348//337
f 1349//338 1350//338 1351//338 1352//338
f 1353//339 1354//339 1355//339 1356//339
f 1357//340 1358//340 1359//340 1360//340
f 1361//341 1362//341 1363//341 1364//341
f 1365//342 1366//342 1367//342 1368//342
f 1369//343 1370//343 1371//343 1372//343
f 1373//344 1374//344 1375//344 1376//344
f 1377//345 1378//345 1379//345 1380//345
f 1381//346 1382//346 1383//346 1384//346
f 1385//347 1386//347 1387//347 1388//347
f 1389//348 1390//348 1391//348 1392//348
f 1393//349 1394//349 1395//349 1396//349
f 1397//350 1398//350 1399//350 1400//350
f 1401//351 1402//351 1403//351 1404//351
f 1405//352 1406//352 1407//352 1408//352
f 1409//353 1410//353 1411//353 1412//353 1413//353 1414//353 1415//353 1416//353
f 1417//354 1418//354 1419//354 1420//354 1421//354 1422//354 1423//354 1424//354
